<svg id="Layer_1" data-name="Layer 1" xmlns="http://www.w3.org/2000/svg" viewBox="0 0 536.49 139.07"><title>academy-logo-black</title><path d="M106.2,88.47a18.27,18.27,0,0,1-12.58-4.8q-5.38-4.8-5.37-13.47t5.37-13.53a18.47,18.47,0,0,1,12.84-4.87,22.69,22.69,0,0,1,9.42,2.15,22.46,22.46,0,0,1,8,6.07l9.86-12.9a37.6,37.6,0,0,0-13.21-9,39.52,39.52,0,0,0-14.86-3,36.25,36.25,0,0,0-25.35,9.8q-10.69,9.8-10.69,25.42T80.21,95.61q10.56,9.67,25.86,9.67t28.45-13.66L123.27,79Q115.68,88.47,106.2,88.47Z"/><path d="M189.53,41.3q-7.84-6.19-20.23-6.2a50.74,50.74,0,0,0-30.6,9.74l8.47,12.27a33.89,33.89,0,0,1,9.29-4.87,31.12,31.12,0,0,1,10.43-2q11.51,0,11.51,10.87v.38H164.24q-13.15,0-20.74,5.18t-7.59,15.62q0,10.43,7.33,16.69t18.15,6.26q10.81,0,18.15-9.23v8.22h17.83V60.9Q197.37,47.5,189.53,41.3ZM178.27,78.35a10.08,10.08,0,0,1-3.86,8.28,13.82,13.82,0,0,1-8.91,3.1q-5.06,0-7.78-2A6.51,6.51,0,0,1,155,82.15q0-7.08,11.38-7.08h11.89Z"/><path d="M254.4,43.83q-7.84-8.72-20.23-8.73t-21.62,9.67q-9.23,9.67-9.23,24.85T212.79,95q9.48,10.24,21.56,10.24t20-10v9h19V10.45h-19Zm-4.36,40a14.38,14.38,0,0,1-11.19,5.25,15.33,15.33,0,0,1-11.51-5.25q-4.93-5.25-4.93-13.47a20.34,20.34,0,0,1,4.8-13.78A14.72,14.72,0,0,1,238.72,51,14.24,14.24,0,0,1,250,56.54a20.72,20.72,0,0,1,4.62,13.78Q254.65,78.61,250,83.85Z"/><path d="M338.42,43.58q-9.8-8.47-23.84-8.47a34.75,34.75,0,0,0-24.34,9.48q-10.31,9.48-10.31,25.54t10.12,25.61q10.12,9.55,25.61,9.55a38,38,0,0,0,27-10.87L332,82.91a21.82,21.82,0,0,1-16.44,6.7,18.61,18.61,0,0,1-11.13-3.54,13.52,13.52,0,0,1-5.82-9.1h49.57V66.85Q348.22,52.05,338.42,43.58ZM299.16,63.43a13.06,13.06,0,0,1,5.44-9.23,17.09,17.09,0,0,1,10.31-3.41,14.37,14.37,0,0,1,9.55,3.29A13.48,13.48,0,0,1,329,63.43Z"/><path d="M434.72,35.11a28.93,28.93,0,0,0-13.34,3.41,26.71,26.71,0,0,0-10.56,9.61,24.71,24.71,0,0,0-7.9-9.23,19.5,19.5,0,0,0-11.7-3.79q-10.12,0-18,8.85V36.24h-19v68h19V67.6q0-8,4.24-12.08a13.59,13.59,0,0,1,9.74-4.11q5.5,0,8,3.79t2.47,11.89v37.18h19.09V67.6q0-8,4.17-12.08a13.59,13.59,0,0,1,9.86-4.11q11.51,0,11.51,15.68v37.18H461.4V62.93q0-13.53-7.33-20.67T434.72,35.11Z"/><path d="M515.9,36.24,499.33,78.61,482.77,36.24H462.53q26.3,66.39,26.3,69.3a9.16,9.16,0,0,1-1.9,5.5,5.54,5.54,0,0,1-4.55,2.59q-5.06,0-9.86-4.68l-8.6,14q8.85,8.09,18.84,8.09a23.36,23.36,0,0,0,13.09-3.86,22.6,22.6,0,0,0,8.66-10.81l31.61-80.17Z"/><polygon points="25.47 42.24 36.49 67.95 14.15 67.95 7.13 85.36 44.18 85.36 52.4 104.45 73.39 104.45 35.19 19.2 25.47 42.24"/></svg>