<?xml version="1.0" encoding="utf-8"?>
<!-- Generator: Adobe Illustrator 18.0.0, SVG Export Plug-In . SVG Version: 6.00 Build 0)  -->
<!DOCTYPE svg PUBLIC "-//W3C//DTD SVG 1.1//EN" "http://www.w3.org/Graphics/SVG/1.1/DTD/svg11.dtd">
<svg version="1.1" id="Layer_1" xmlns="http://www.w3.org/2000/svg" xmlns:xlink="http://www.w3.org/1999/xlink" x="0px" y="0px"
	 viewBox="0 0 536.5 139.1" enable-background="new 0 0 536.5 139.1" xml:space="preserve">
<g>
	<g>
		<path d="M106.2,91.6c6.3,0,12-3.2,17.1-9.5l11.3,12.6c-8.8,9.1-18.3,13.7-28.5,13.7c-10.2,0-18.8-3.2-25.9-9.7
			c-7-6.5-10.6-14.9-10.6-25.3c0-10.4,3.6-18.9,10.7-25.4c7.1-6.5,15.6-9.8,25.4-9.8c4.9,0,9.8,1,14.9,3c5,2,9.4,5,13.2,9l-9.9,12.9
			c-2.2-2.6-4.9-4.6-8-6.1c-3.2-1.4-6.3-2.1-9.4-2.1c-5,0-9.3,1.6-12.8,4.9c-3.6,3.2-5.4,7.8-5.4,13.5c0,5.8,1.8,10.3,5.4,13.5
			C97.2,90,101.4,91.6,106.2,91.6z"/>
		<path d="M197.4,107.4h-17.8v-8.2c-4.9,6.2-10.9,9.2-18.1,9.2s-13.3-2.1-18.1-6.3c-4.9-4.2-7.3-9.7-7.3-16.7s2.5-12.2,7.6-15.6
			c5.1-3.5,12-5.2,20.7-5.2h14.2v-0.4c0-7.3-3.8-10.9-11.5-10.9c-3.3,0-6.8,0.7-10.4,2c-3.7,1.3-6.8,2.9-9.3,4.9l-8.5-12.3
			c8.9-6.5,19.1-9.7,30.6-9.7c8.3,0,15,2.1,20.2,6.2c5.2,4.1,7.8,10.7,7.8,19.6V107.4z M178.3,81.5v-3.3h-11.9
			c-7.6,0-11.4,2.4-11.4,7.1c0,2.4,0.9,4.3,2.7,5.6c1.8,1.3,4.4,2,7.8,2c3.4,0,6.3-1,8.9-3.1C177,87.7,178.3,84.9,178.3,81.5z"/>
		<path d="M234.4,108.4c-8.1,0-15.2-3.4-21.6-10.2c-6.3-6.8-9.5-15.3-9.5-25.4c0-10.1,3.1-18.4,9.2-24.9c6.2-6.5,13.4-9.7,21.6-9.7
			c8.3,0,15,2.9,20.2,8.7V13.5h19v93.8h-19v-9C249.2,105.1,242.5,108.4,234.4,108.4z M222.5,73.5c0,5.5,1.6,10,4.9,13.5
			c3.3,3.5,7.1,5.2,11.5,5.2c4.4,0,8.1-1.7,11.2-5.2c3.1-3.5,4.6-8,4.6-13.5c0-5.5-1.5-10.1-4.6-13.8c-3.1-3.7-6.9-5.5-11.3-5.5
			c-4.5,0-8.3,1.9-11.5,5.6C224.1,63.4,222.5,68,222.5,73.5z"/>
		<path d="M342.7,97.5c-7.7,7.3-16.7,10.9-27,10.9c-10.3,0-18.9-3.2-25.6-9.5c-6.7-6.4-10.1-14.9-10.1-25.6
			c0-10.7,3.4-19.2,10.3-25.5c6.9-6.3,15-9.5,24.3-9.5c9.4,0,17.3,2.8,23.8,8.5c6.5,5.6,9.8,13.4,9.8,23.3v10.1h-49.6
			c0.6,3.7,2.5,6.7,5.8,9.1c3.3,2.4,7,3.5,11.1,3.5c6.7,0,12.1-2.2,16.4-6.7L342.7,97.5z M324.5,57.2c-2.6-2.2-5.8-3.3-9.5-3.3
			c-3.8,0-7.2,1.1-10.3,3.4c-3.1,2.3-4.9,5.4-5.4,9.2h29.8C328.7,62.5,327.1,59.4,324.5,57.2z"/>
		<path d="M416.9,70.7v36.7h-19.1V70.2c0-5.4-0.8-9.4-2.5-11.9c-1.6-2.5-4.3-3.8-8-3.8s-6.9,1.4-9.7,4.1c-2.8,2.7-4.2,6.8-4.2,12.1
			v36.7h-19v-68h19v7.7c5.2-5.9,11.2-8.9,18-8.9c4.3,0,8.2,1.3,11.7,3.8c3.5,2.5,6.1,5.6,7.9,9.2c2.6-4.1,6.1-7.3,10.6-9.6
			c4.4-2.3,8.9-3.4,13.3-3.4c8,0,14.5,2.4,19.4,7.1c4.9,4.8,7.3,11.7,7.3,20.7v41.4h-19.1V70.2c0-10.5-3.8-15.7-11.5-15.7
			c-3.8,0-7.1,1.4-9.9,4.1C418.3,61.4,416.9,65.4,416.9,70.7z"/>
		<path d="M482.9,134.2c-6.7,0-12.9-2.7-18.8-8.1l8.6-14c3.2,3.1,6.5,4.7,9.9,4.7c1.8,0,3.3-0.9,4.6-2.6c1.3-1.7,1.9-3.6,1.9-5.5
			c0-1.9-8.8-25-26.3-69.3h20.2l16.6,42.4L516,39.3h20.2l-31.6,80.2c-1.9,4.6-4.7,8.2-8.7,10.8C492.1,132.9,487.7,134.2,482.9,134.2
			z"/>
	</g>
	<g>
		<path d="M74.8,108.4h-21l-8.2-19.1H8.5l-8.2,19.1l-0.6-1L38,19 M27.1,46.3L16,72h22.1L27.1,46.3z"/>
	</g>
</g>
</svg>
