<svg id="Layer_1" data-name="Layer 1" xmlns="http://www.w3.org/2000/svg" viewBox="0 0 536.49 139.07"><defs><style>.cls-1{fill:#fff;}</style></defs><title>academy-logo-white</title><path class="cls-1" d="M105.56,88.47A18.27,18.27,0,0,1,93,83.66q-5.38-4.8-5.37-13.47T93,56.66a18.47,18.47,0,0,1,12.84-4.87,22.69,22.69,0,0,1,9.42,2.15,22.46,22.46,0,0,1,8,6.07l9.86-12.9a37.6,37.6,0,0,0-13.21-9,39.52,39.52,0,0,0-14.86-3A36.25,36.25,0,0,0,79.7,44.9Q69,54.7,69,70.32T79.57,95.61q10.56,9.67,25.86,9.67t28.45-13.66L122.63,79Q115,88.47,105.56,88.47Z"/><path class="cls-1" d="M188.89,41.3Q181,35.1,168.66,35.1a50.74,50.74,0,0,0-30.6,9.74l8.47,12.27a33.89,33.89,0,0,1,9.29-4.87,31.12,31.12,0,0,1,10.43-2q11.51,0,11.51,10.87v.38H163.6q-13.15,0-20.74,5.18t-7.59,15.62q0,10.43,7.33,16.69t18.15,6.26q10.81,0,18.15-9.23v8.22h17.83V60.9Q196.73,47.5,188.89,41.3ZM177.64,78.35a10.08,10.08,0,0,1-3.86,8.28,13.82,13.82,0,0,1-8.91,3.1q-5.06,0-7.78-2a6.51,6.51,0,0,1-2.72-5.63q0-7.08,11.38-7.08h11.89Z"/><path class="cls-1" d="M253.76,43.83q-7.84-8.72-20.23-8.73T211.9,44.78q-9.23,9.67-9.23,24.85T212.16,95q9.48,10.24,21.56,10.24t20-10v9h19V10.44h-19Zm-4.36,40A14.38,14.38,0,0,1,238.2,89.1a15.33,15.33,0,0,1-11.51-5.25q-4.93-5.25-4.93-13.47a20.34,20.34,0,0,1,4.8-13.78A14.72,14.72,0,0,1,238.08,51a14.24,14.24,0,0,1,11.32,5.5A20.72,20.72,0,0,1,254,70.32Q254,78.6,249.4,83.85Z"/><path class="cls-1" d="M337.78,43.58Q328,35.1,313.95,35.1a34.75,34.75,0,0,0-24.34,9.48Q279.3,54.07,279.3,70.13t10.12,25.61q10.12,9.55,25.61,9.55a38,38,0,0,0,27-10.87L331.4,82.9A21.82,21.82,0,0,1,315,89.6a18.61,18.61,0,0,1-11.13-3.54A13.52,13.52,0,0,1,298,77h49.57V66.84Q347.58,52,337.78,43.58ZM298.52,63.43A13.06,13.06,0,0,1,304,54.2a17.09,17.09,0,0,1,10.31-3.41,14.37,14.37,0,0,1,9.55,3.29,13.48,13.48,0,0,1,4.55,9.36Z"/><path class="cls-1" d="M434.08,35.1a28.93,28.93,0,0,0-13.34,3.41,26.71,26.71,0,0,0-10.56,9.61,24.71,24.71,0,0,0-7.9-9.23,19.5,19.5,0,0,0-11.7-3.79q-10.12,0-18,8.85V36.24h-19v68h19V67.6q0-8,4.24-12.08a13.59,13.59,0,0,1,9.74-4.11q5.5,0,8,3.79T397,67.1v37.18h19.09V67.6q0-8,4.17-12.08a13.59,13.59,0,0,1,9.86-4.11q11.51,0,11.51,15.68v37.18h19.09V62.92q0-13.53-7.33-20.67T434.08,35.1Z"/><path class="cls-1" d="M515.26,36.24,498.69,78.6,482.13,36.24H461.89q26.3,66.39,26.3,69.3a9.16,9.16,0,0,1-1.9,5.5,5.54,5.54,0,0,1-4.55,2.59q-5.06,0-9.86-4.68l-8.6,14q8.85,8.09,18.84,8.09a23.36,23.36,0,0,0,13.09-3.86,22.6,22.6,0,0,0,8.66-10.81l31.61-80.17Z"/><polygon class="cls-1" points="24.84 42.23 35.86 67.95 13.51 67.95 6.49 85.35 43.54 85.35 51.76 104.45 72.75 104.45 34.56 19.2 24.84 42.23"/></svg>