<?xml version="1.0" encoding="UTF-8"?>
<svg width="16px" height="13px" viewBox="0 0 16 13" version="1.1" xmlns="http://www.w3.org/2000/svg" xmlns:xlink="http://www.w3.org/1999/xlink">
    <!-- Generator: Sketch 41.2 (35397) - http://www.bohemiancoding.com/sketch -->
    <title>arrow-thin-left</title>
    <desc>Created with Sketch.</desc>
    <defs></defs>
    <g id="Innovation-Services" stroke="none" stroke-width="1" fill="none" fill-rule="evenodd">
        <g id="innovation_services_small_v2" transform="translate(-17.000000, -23.000000)" fill="#000000">
            <g id="Nav">
                <path d="M32.5,29.3947652 C32.5,29.8307535 32.146512,30.1842415 31.7105237,30.1842415 L20.1918674,30.1842415 L23.7693792,33.7714243 C24.0772749,34.0803069 24.0766828,34.5800454 23.7679976,34.8879412 C23.6138523,35.0416917 23.4121412,35.1184682 23.21043,35.1184682 C23.0081267,35.1184682 22.805626,35.0410995 22.6514808,34.8865596 L17.7304777,29.9523328 C17.4231741,29.6440423 17.4231741,29.1454881 17.7304777,28.8371976 L22.6514808,23.9029708 C22.9593765,23.5942856 23.459115,23.5936935 23.7679976,23.9015892 C24.0766828,24.209485 24.0772749,24.7092235 23.7693792,25.0181061 L20.1918674,28.6052889 L31.7105237,28.6052889 C32.146512,28.6052889 32.5,28.9587769 32.5,29.3947652" id="arrow-thin-left"></path>
            </g>
        </g>
    </g>
</svg>