<?xml version="1.0" encoding="UTF-8"?>
<svg width="14px" height="16px" viewBox="0 0 14 16" version="1.1" xmlns="http://www.w3.org/2000/svg" xmlns:xlink="http://www.w3.org/1999/xlink">
    <!-- Generator: Sketch 42 (36781) - http://www.bohemiancoding.com/sketch -->
    <title>down-arrow</title>
    <desc>Created with Sketch.</desc>
    <defs></defs>
    <g id="Home" stroke="none" stroke-width="1" fill="none" fill-rule="evenodd">
        <g id="homepage_small_v2-copy" transform="translate(-180.000000, -550.000000)" fill="#6D65CB">
            <g id="down-arrow" transform="translate(180.000000, 550.000000)">
                <path d="M12.8578977,10.5050526 L7.59473984,15.7541053 C7.43031879,15.9181053 7.2151609,16 7.000003,16 C6.78484511,16 6.56968721,15.9181053 6.40526616,15.7541053 L1.14210826,10.5050526 C0.812845106,10.1766316 0.812213527,9.64357895 1.14063458,9.31410526 C1.46905563,8.98484211 2.00210826,8.98421053 2.33158195,9.31263158 L6.15789774,13.1286316 L6.15789774,0.842105263 C6.15789774,0.377052632 6.53495037,0 7.000003,0 C7.46505563,0 7.84210826,0.377052632 7.84210826,0.842105263 L7.84210826,13.1286316 L11.6686346,9.31263158 C11.9976872,8.98421053 12.5309504,8.98463158 12.8593714,9.31410526 C13.1877925,9.64357895 13.1871609,10.1766316 12.8578977,10.5050526" id="arrow-thin-down"></path>
            </g>
        </g>
    </g>
</svg>