<?xml version="1.0" encoding="UTF-8"?>
<svg width="343px" height="171px" viewBox="0 0 343 171" version="1.1" xmlns="http://www.w3.org/2000/svg" xmlns:xlink="http://www.w3.org/1999/xlink">
    <!-- Generator: Sketch 42 (36781) - http://www.bohemiancoding.com/sketch -->
    <title>Brandon-Grotesque</title>
    <desc>Created with Sketch.</desc>
    <defs></defs>
    <g id="Case-Study" stroke="none" stroke-width="1" fill="none" fill-rule="evenodd">
        <g id="casestudy_timeinc_large_v2" transform="translate(-125.000000, -15178.000000)" fill="#333333">
            <g id="Group-35-Copy" transform="translate(125.000000, 15178.000000)">
                <path d="M4.67,58.385 L4.67,2.115 C4.67,1.6616644 4.82583178,1.27916823 5.1375,0.9675 C5.44916823,0.655831775 5.8316644,0.5 6.285,0.5 L24.9,0.5 C30.0566925,0.5 34.2499839,1.9733186 37.48,4.92 C40.7100162,7.8666814 42.325,11.606644 42.325,16.14 C42.325,19.1433483 41.5033416,21.8349881 39.86,24.215 C38.2166585,26.5950119 36.261678,28.4366602 33.995,29.74 C36.7716806,30.873339 39.1658233,32.5874885 41.1775,34.8825 C43.1891767,37.1775115 44.195,40.0816491 44.195,43.595 C44.195,48.3550238 42.466684,52.2791512 39.01,55.3675 C35.5533161,58.4558488 31.1050272,60 25.665,60 L6.285,60 C5.8316644,60 5.44916823,59.8441682 5.1375,59.5325 C4.82583178,59.2208318 4.67,58.8383356 4.67,58.385 Z M11.045,27.19 L24.9,27.19 C28.0733492,27.19 30.5666576,26.1841767 32.38,24.1725 C34.1933424,22.1608233 35.1,19.6250153 35.1,16.565 C35.1,13.4483178 34.2075089,10.9691759 32.4225,9.1275 C30.6374911,7.28582413 28.1300162,6.365 24.9,6.365 L11.045,6.365 L11.045,27.19 Z M10.875,54.305 L26.345,54.305 C29.4050153,54.305 31.9549898,53.2708437 33.995,51.2025 C36.0350102,49.1341563 37.055,46.5700153 37.055,43.51 C37.055,40.5066516 35.8650119,38.0133432 33.485,36.03 C31.1049881,34.0466568 28.2433501,33.055 24.9,33.055 L10.875,33.055 L10.875,54.305 Z M54.055,58.385 L54.055,27.615 C54.055,27.2183313 54.2108318,26.8500017 54.5225,26.51 C54.8341682,26.1699983 55.2166644,26 55.67,26 L57.285,26 C58.0783373,26 58.5599992,26.3966627 58.73,27.19 L59.41,29.655 L60.09,28.89 C60.4866687,28.4366644 61.0674962,27.940836 61.8325,27.4025 C62.5975038,26.864164 63.6741597,26.3541691 65.0625,25.8725 C66.4508403,25.3908309 67.9666585,25.15 69.61,25.15 C70.6866721,25.15 71.6641623,25.2066661 72.5425,25.32 C73.4208377,25.4333339 74.2141631,25.7166644 74.9225,26.17 C75.6308369,26.6233356 75.8433348,27.2183296 75.56,27.955 L74.54,30.845 C74.1999983,31.7516712 73.5200051,32.0066686 72.5,31.61 C71.4799949,31.1566644 70.375006,30.93 69.185,30.93 C67.2583237,30.93 65.5300077,31.3266627 64,32.12 C62.4699924,32.9133373 61.3933365,33.7066627 60.77,34.5 L59.92,35.69 L59.92,58.385 C59.92,58.7816687 59.7500017,59.1499983 59.41,59.49 C59.0699983,59.8300017 58.7016687,60 58.305,60 L55.67,60 C55.2166644,60 54.8341682,59.8300017 54.5225,59.49 C54.2108318,59.1499983 54.055,58.7816687 54.055,58.385 Z M79.98,49.715 C79.98,46.37165 81.1841546,43.6516772 83.5925,41.555 C86.0008454,39.4583229 89.3299788,38.41 93.58,38.41 C95.1100077,38.41 96.6966585,38.5799983 98.34,38.92 L100.805,39.515 C100.861667,36.114983 100.535837,33.7350068 99.8275,32.375 C99.1191631,31.0149932 97.603345,30.335 95.28,30.335 C91.7099822,30.335 88.3100162,30.9583271 85.08,32.205 C84.2866627,32.5450017 83.7483348,32.2616712 83.465,31.355 L82.785,29.23 C82.5016653,28.3799957 82.8133288,27.7566686 83.72,27.36 C84.0600017,27.1899992 84.6691623,26.9633348 85.5475,26.68 C86.4258377,26.3966653 87.8283237,26.0708352 89.755,25.7025 C91.6816763,25.3341648 93.6083237,25.15 95.535,25.15 C99.7283543,25.15 102.575826,26.2408224 104.0775,28.4225 C105.579174,30.6041776 106.33,34.3016406 106.33,39.515 L106.33,58.385 C106.33,58.7816687 106.160002,59.1499983 105.82,59.49 C105.479998,59.8300017 105.111669,60 104.715,60 L103.1,60 C102.419997,60 101.938335,59.5750042 101.655,58.725 L100.975,56.43 C98.0283186,59.3766814 94.5150204,60.85 90.435,60.85 C87.4316517,60.85 84.9383433,59.8300102 82.955,57.79 C80.9716568,55.7499898 79.98,53.0583501 79.98,49.715 Z M85.42,49.715 C85.42,51.4716754 85.958328,52.916661 87.035,54.05 C88.1116721,55.183339 89.5566576,55.75 91.37,55.75 C93.3533433,55.75 95.1949915,55.2541716 96.895,54.2625 C98.5950085,53.2708284 99.8699958,52.180006 100.72,50.99 L100.72,44.275 C99.1899924,43.3683288 96.8100162,42.915 93.58,42.915 C91.1433212,42.915 89.1741742,43.509994 87.6725,44.7 C86.1708258,45.890006 85.42,47.5616559 85.42,49.715 Z M118.145,58.385 L118.145,27.615 C118.145,27.2183313 118.300832,26.8500017 118.6125,26.51 C118.924168,26.1699983 119.306664,26 119.76,26 L121.375,26 C122.11167,26 122.564999,26.3399966 122.735,27.02 L123.5,29.655 L124.86,28.55 C125.823338,27.7566627 127.296657,26.9916703 129.28,26.255 C131.263343,25.5183296 133.303323,25.15 135.4,25.15 C144.183377,25.15 148.575,30.249949 148.575,40.45 L148.575,58.385 C148.575,58.7816687 148.419168,59.1499983 148.1075,59.49 C147.795832,59.8300017 147.413336,60 146.96,60 L144.24,60 C143.786664,60 143.404168,59.8300017 143.0925,59.49 C142.780832,59.1499983 142.625,58.7816687 142.625,58.385 L142.625,40.45 C142.625,37.2766508 141.959173,34.8825081 140.6275,33.2675 C139.295827,31.6524919 137.411679,30.845 134.975,30.845 C133.104991,30.845 131.249176,31.2558292 129.4075,32.0775 C127.565824,32.8991708 126.220004,33.7066627 125.37,34.5 L124.01,35.69 L124.01,58.385 C124.01,58.7816687 123.840002,59.1499983 123.5,59.49 C123.159998,59.8300017 122.791669,60 122.395,60 L119.76,60 C119.306664,60 118.924168,59.8300017 118.6125,59.49 C118.300832,59.1499983 118.145,58.7816687 118.145,58.385 Z M157.755,42.915 C157.755,37.8149745 159.228319,33.5791835 162.175,30.2075 C165.121681,26.8358165 169.088308,25.15 174.075,25.15 C175.718342,25.15 177.304992,25.3341648 178.835,25.7025 C180.365008,26.0708352 181.469997,26.4533313 182.15,26.85 L183.17,27.36 L183.17,2.115 C183.17,1.71833135 183.325832,1.3500017 183.6375,1.01 C183.949168,0.6699983 184.331664,0.5 184.785,0.5 L187.42,0.5 C187.816669,0.5 188.184998,0.6699983 188.525,1.01 C188.865002,1.3500017 189.035,1.71833135 189.035,2.115 L189.035,58.385 C189.035,58.7816687 188.865002,59.1499983 188.525,59.49 C188.184998,59.8300017 187.816669,60 187.42,60 L185.635,60 C184.89833,60 184.416668,59.5466712 184.19,58.64 L183.68,56.345 L182.49,57.45 C181.696663,58.2433373 180.421675,59.0083297 178.665,59.745 C176.908325,60.4816704 175.095009,60.85 173.225,60.85 C168.918312,60.85 165.263348,59.0933509 162.26,55.58 C159.256652,52.0666491 157.755,47.8450246 157.755,42.915 Z M163.705,43 C163.705,46.4566839 164.639991,49.4033211 166.51,51.84 C168.380009,54.2766788 170.816652,55.495 173.82,55.495 C175.236674,55.495 176.568327,55.197503 177.815,54.6025 C179.061673,54.007497 180.039163,53.3700034 180.7475,52.69 C181.455837,52.0099966 182.008331,51.3866695 182.405,50.82 L183.085,49.885 L183.085,32.885 L180.365,31.865 C178.608325,31.1849966 176.766676,30.845 174.84,30.845 C171.269982,30.845 168.521676,31.978322 166.595,34.245 C164.668324,36.511678 163.705,39.4299822 163.705,43 Z M198.725,42.915 C198.725,38.0983092 200.368317,33.9333509 203.655,30.42 C206.941683,26.9066491 210.936643,25.15 215.64,25.15 C220.343357,25.15 224.338317,26.9066491 227.625,30.42 C230.911683,33.9333509 232.555,38.0983092 232.555,42.915 C232.555,47.8450246 230.911683,52.0666491 227.625,55.58 C224.338317,59.0933509 220.343357,60.85 215.64,60.85 C210.936643,60.85 206.941683,59.0933509 203.655,55.58 C200.368317,52.0666491 198.725,47.8450246 198.725,42.915 Z M204.59,42.915 C204.59,46.3716839 205.652489,49.3041546 207.7775,51.7125 C209.902511,54.1208454 212.523318,55.325 215.64,55.325 C218.756682,55.325 221.377489,54.1208454 223.5025,51.7125 C225.627511,49.3041546 226.69,46.3716839 226.69,42.915 C226.69,39.57165 225.627511,36.7100119 223.5025,34.33 C221.377489,31.9499881 218.756682,30.76 215.64,30.76 C212.523318,30.76 209.902511,31.9499881 207.7775,34.33 C205.652489,36.7100119 204.59,39.57165 204.59,42.915 Z M242.16,58.385 L242.16,27.615 C242.16,27.2183313 242.315832,26.8500017 242.6275,26.51 C242.939168,26.1699983 243.321664,26 243.775,26 L245.39,26 C246.12667,26 246.579999,26.3399966 246.75,27.02 L247.515,29.655 L248.875,28.55 C249.838338,27.7566627 251.311657,26.9916703 253.295,26.255 C255.278343,25.5183296 257.318323,25.15 259.415,25.15 C268.198377,25.15 272.59,30.249949 272.59,40.45 L272.59,58.385 C272.59,58.7816687 272.434168,59.1499983 272.1225,59.49 C271.810832,59.8300017 271.428336,60 270.975,60 L268.255,60 C267.801664,60 267.419168,59.8300017 267.1075,59.49 C266.795832,59.1499983 266.64,58.7816687 266.64,58.385 L266.64,40.45 C266.64,37.2766508 265.974173,34.8825081 264.6425,33.2675 C263.310827,31.6524919 261.426679,30.845 258.99,30.845 C257.119991,30.845 255.264176,31.2558292 253.4225,32.0775 C251.580824,32.8991708 250.235004,33.7066627 249.385,34.5 L248.025,35.69 L248.025,58.385 C248.025,58.7816687 247.855002,59.1499983 247.515,59.49 C247.174998,59.8300017 246.806669,60 246.41,60 L243.775,60 C243.321664,60 242.939168,59.8300017 242.6275,59.49 C242.315832,59.1499983 242.16,58.7816687 242.16,58.385 Z M0.335,115.335 C0.335,106.834958 3.32413678,99.5958632 9.3025,93.6175 C15.2808632,87.6391368 22.5199575,84.65 31.02,84.65 C38.5567044,84.65 45.4133025,87.2849737 51.59,92.555 C52.3833373,93.4050042 52.4116704,94.1983297 51.675,94.935 L49.295,97.315 C48.6716636,97.9950034 47.9350043,97.9666704 47.085,97.23 C44.818322,95.2466567 42.254181,93.6458394 39.3925,92.4275 C36.530819,91.2091606 33.7116806,90.6 30.935,90.6 C24.3049669,90.6 18.7091895,92.9941427 14.1475,97.7825 C9.58581053,102.570857 7.305,108.3083 7.305,114.995 C7.305,121.625033 9.58581053,127.376642 14.1475,132.25 C18.7091895,137.123358 24.3049669,139.56 30.935,139.56 C33.7116806,139.56 36.3749873,139.262503 38.925,138.6675 C41.4750128,138.072497 43.316661,137.463336 44.45,136.84 L46.235,135.99 L46.235,124.09 L36.46,124.09 C36.0066644,124.09 35.6241682,123.948335 35.3125,123.665 C35.0008318,123.381665 34.845,123.013336 34.845,122.56 L34.845,119.415 C34.845,118.338328 35.383328,117.8 36.46,117.8 L51.165,117.8 C51.5616687,117.8 51.9158318,117.955832 52.2275,118.2675 C52.5391682,118.579168 52.695,118.961664 52.695,119.415 L52.695,138.88 C52.695,139.446669 52.4683356,139.899998 52.015,140.24 L49.55,141.6 C47.8499915,142.563338 45.2433509,143.512495 41.73,144.4475 C38.2166491,145.382505 34.6466848,145.85 31.02,145.85 C22.5199575,145.85 15.2808632,142.889196 9.3025,136.9675 C3.32413678,131.045804 0.335,123.835042 0.335,115.335 Z M63.405,143.385 L63.405,112.615 C63.405,112.218331 63.5608318,111.850002 63.8725,111.51 C64.1841682,111.169998 64.5666644,111 65.02,111 L66.635,111 C67.4283373,111 67.9099992,111.396663 68.08,112.19 L68.76,114.655 L69.44,113.89 C69.8366687,113.436664 70.4174962,112.940836 71.1825,112.4025 C71.9475038,111.864164 73.0241597,111.354169 74.4125,110.8725 C75.8008403,110.390831 77.3166585,110.15 78.96,110.15 C80.0366721,110.15 81.0141623,110.206666 81.8925,110.32 C82.7708377,110.433334 83.5641631,110.716664 84.2725,111.17 C84.9808369,111.623336 85.1933348,112.21833 84.91,112.955 L83.89,115.845 C83.5499983,116.751671 82.8700051,117.006669 81.85,116.61 C80.8299949,116.156664 79.725006,115.93 78.535,115.93 C76.6083237,115.93 74.8800077,116.326663 73.35,117.12 C71.8199924,117.913337 70.7433365,118.706663 70.12,119.5 L69.27,120.69 L69.27,143.385 C69.27,143.781669 69.1000017,144.149998 68.76,144.49 C68.4199983,144.830002 68.0516687,145 67.655,145 L65.02,145 C64.5666644,145 64.1841682,144.830002 63.8725,144.49 C63.5608318,144.149998 63.405,143.781669 63.405,143.385 Z M89.075,127.915 C89.075,123.098309 90.7183169,118.933351 94.005,115.42 C97.2916831,111.906649 101.286643,110.15 105.99,110.15 C110.693357,110.15 114.688317,111.906649 117.975,115.42 C121.261683,118.933351 122.905,123.098309 122.905,127.915 C122.905,132.845025 121.261683,137.066649 117.975,140.58 C114.688317,144.093351 110.693357,145.85 105.99,145.85 C101.286643,145.85 97.2916831,144.093351 94.005,140.58 C90.7183169,137.066649 89.075,132.845025 89.075,127.915 Z M94.94,127.915 C94.94,131.371684 96.0024894,134.304155 98.1275,136.7125 C100.252511,139.120845 102.873318,140.325 105.99,140.325 C109.106682,140.325 111.727489,139.120845 113.8525,136.7125 C115.977511,134.304155 117.04,131.371684 117.04,127.915 C117.04,124.57165 115.977511,121.710012 113.8525,119.33 C111.727489,116.949988 109.106682,115.76 105.99,115.76 C102.873318,115.76 100.252511,116.949988 98.1275,119.33 C96.0024894,121.710012 94.94,124.57165 94.94,127.915 Z M134.72,136.5 L134.72,116.1 L130.385,116.1 C129.931664,116.1 129.549168,115.944168 129.2375,115.6325 C128.925832,115.320832 128.77,114.938336 128.77,114.485 L128.77,112.615 C128.77,111.538328 129.308328,111 130.385,111 L134.72,111 L134.72,101.565 C134.72,101.168331 134.875832,100.800002 135.1875,100.46 C135.499168,100.119998 135.881664,99.95 136.335,99.95 L139.055,99.78 C139.451669,99.78 139.805832,99.9358318 140.1175,100.2475 C140.429168,100.559168 140.585,100.941664 140.585,101.395 L140.585,111 L150.445,111 C151.521672,111 152.06,111.538328 152.06,112.615 L152.06,114.485 C152.06,114.938336 151.904168,115.320832 151.5925,115.6325 C151.280832,115.944168 150.898336,116.1 150.445,116.1 L140.585,116.1 L140.585,135.99 C140.585,137.633342 140.797498,138.724164 141.2225,139.2625 C141.647502,139.800836 142.369995,140.07 143.39,140.07 C145.203342,140.07 147.271655,139.446673 149.595,138.2 C150.445004,137.746664 151.124997,137.916663 151.635,138.71 L152.91,140.835 C153.420003,141.685004 153.221671,142.39333 152.315,142.96 C151.408329,143.526669 149.991676,144.149997 148.065,144.83 C146.138324,145.510003 144.296675,145.85 142.54,145.85 C139.423318,145.85 137.340839,145.056675 136.2925,143.47 C135.244161,141.883325 134.72,139.560015 134.72,136.5 Z M159.115,128 C159.115,123.013308 160.644985,118.791684 163.705,115.335 C166.765015,111.878316 170.788308,110.15 175.775,110.15 C180.251689,110.15 183.934986,111.623319 186.825,114.57 C189.715014,117.516681 191.16,121.228311 191.16,125.705 C191.16,126.44167 191.103334,127.206663 190.99,128 C190.876666,128.963338 190.366671,129.445 189.46,129.445 L164.98,129.445 C165.150001,132.335014 166.354155,134.899155 168.5925,137.1375 C170.830845,139.375845 173.423319,140.495 176.37,140.495 C179.203348,140.495 182.008319,139.645008 184.785,137.945 C185.52167,137.548331 185.974999,137.321667 186.145,137.265 C186.315001,137.208333 186.654997,137.378331 187.165,137.775 L188.61,139.73 C188.950002,140.183336 189.12,140.551665 189.12,140.835 C189.12,141.118335 188.83667,141.486664 188.27,141.94 C184.983317,144.54668 180.818359,145.85 175.775,145.85 C170.788308,145.85 166.765015,144.13585 163.705,140.7075 C160.644985,137.27915 159.115,133.043359 159.115,128 Z M165.065,124.685 L185.295,124.685 C185.181666,122.191654 184.204176,120.010009 182.3625,118.14 C180.520824,116.269991 178.325013,115.335 175.775,115.335 C172.941653,115.335 170.519177,116.227491 168.5075,118.0125 C166.495823,119.797509 165.348335,122.021653 165.065,124.685 Z M198.81,142.025 C198.243331,141.571664 198.101665,140.97667 198.385,140.24 C198.498334,140.069999 198.710832,139.701669 199.0225,139.135 C199.334168,138.568331 199.518333,138.228334 199.575,138.115 C200.085003,137.321663 200.849995,137.236664 201.87,137.86 L202.89,138.625 C203.570003,139.135003 204.575827,139.630831 205.9075,140.1125 C207.239173,140.594169 208.55666,140.835 209.86,140.835 C211.560009,140.835 212.905828,140.452504 213.8975,139.6875 C214.889172,138.922496 215.385,137.945006 215.385,136.755 C215.385,135.394993 214.846672,134.275838 213.77,133.3975 C212.693328,132.519162 210.738348,131.371674 207.905,129.955 C206.034991,129.048329 204.490839,128.198337 203.2725,127.405 C202.054161,126.611663 200.906672,125.464174 199.83,123.9625 C198.753328,122.460826 198.215,120.803342 198.215,118.99 C198.215,116.836656 199.121658,114.825009 200.935,112.955 C202.748342,111.084991 205.439982,110.15 209.01,110.15 C212.750019,110.15 215.894987,111.028325 218.445,112.785 C219.408338,113.408336 219.578336,114.286661 218.955,115.42 L218.275,116.78 C217.651664,117.856672 216.830005,118.111669 215.81,117.545 L213.43,116.525 C211.786658,115.844997 210.31334,115.505 209.01,115.505 C207.309992,115.505 206.077504,115.844997 205.3125,116.525 C204.547496,117.205003 204.165,117.998329 204.165,118.905 C204.165,119.811671 204.504997,120.63333 205.185,121.37 C205.865003,122.10667 206.516664,122.644998 207.14,122.985 C207.763336,123.325002 208.868325,123.891663 210.455,124.685 C212.325009,125.591671 213.769995,126.32833 214.79,126.895 C215.810005,127.461669 216.929161,128.212495 218.1475,129.1475 C219.365839,130.082505 220.244164,131.130828 220.7825,132.2925 C221.320836,133.454172 221.59,134.771659 221.59,136.245 C221.59,138.795013 220.485011,141.033324 218.275,142.96 C216.064989,144.886676 213.260017,145.85 209.86,145.85 C205.77998,145.85 202.096683,144.575013 198.81,142.025 Z M228.22,128.085 C228.22,123.154975 229.749985,118.933351 232.81,115.42 C235.870015,111.906649 239.694977,110.15 244.285,110.15 C246.098342,110.15 247.826658,110.447497 249.47,111.0425 C251.113342,111.637503 252.30333,112.246664 253.04,112.87 L254.145,113.72 L254.74,112.19 C255.023335,111.396663 255.561663,111 256.355,111 L257.885,111 C258.281669,111 258.649998,111.169998 258.99,111.51 C259.330002,111.850002 259.5,112.218331 259.5,112.615 L259.5,168.885 C259.5,169.281669 259.330002,169.649998 258.99,169.99 C258.649998,170.330002 258.281669,170.5 257.885,170.5 L255.25,170.5 C254.796664,170.5 254.414168,170.330002 254.1025,169.99 C253.790832,169.649998 253.635,169.281669 253.635,168.885 L253.635,142.875 L252.615,143.64 C251.934997,144.093336 250.830008,144.574997 249.3,145.085 C247.769992,145.595003 246.183342,145.85 244.54,145.85 C239.89331,145.85 236.011682,144.13585 232.895,140.7075 C229.778318,137.27915 228.22,133.071692 228.22,128.085 Z M234.17,128 C234.17,131.456684 235.218323,134.346655 237.315,136.67 C239.411677,138.993345 242.074984,140.155 245.305,140.155 C246.665007,140.155 248.03916,139.914169 249.4275,139.4325 C250.81584,138.950831 251.849997,138.483336 252.53,138.03 L253.55,137.35 L253.55,119.67 L252.615,118.65 C251.991664,117.969997 250.957507,117.275837 249.5125,116.5675 C248.067493,115.859163 246.523342,115.505 244.88,115.505 C241.593317,115.505 238.986676,116.723321 237.06,119.16 C235.133324,121.596679 234.17,124.543316 234.17,128 Z M271.23,130.465 L271.23,112.615 C271.23,112.218331 271.399998,111.850002 271.74,111.51 C272.080002,111.169998 272.448331,111 272.845,111 L275.565,111 C275.961669,111 276.329998,111.169998 276.67,111.51 C277.010002,111.850002 277.18,112.218331 277.18,112.615 L277.18,130.55 C277.18,133.723349 277.845827,136.117492 279.1775,137.7325 C280.509173,139.347508 282.393321,140.155 284.83,140.155 C286.756676,140.155 288.555825,139.744171 290.2275,138.9225 C291.899175,138.100829 293.10333,137.293337 293.84,136.5 L294.945,135.31 L294.945,112.615 C294.945,112.218331 295.100832,111.850002 295.4125,111.51 C295.724168,111.169998 296.106664,111 296.56,111 L299.195,111 C299.591669,111 299.959998,111.169998 300.3,111.51 C300.640002,111.850002 300.81,112.218331 300.81,112.615 L300.81,143.385 C300.81,143.781669 300.640002,144.149998 300.3,144.49 C299.959998,144.830002 299.591669,145 299.195,145 L297.58,145 C296.84333,145 296.333335,144.518338 296.05,143.555 L295.455,141.345 L294.265,142.45 C293.471663,143.243337 292.154176,144.00833 290.3125,144.745 C288.470824,145.48167 286.501677,145.85 284.405,145.85 C275.621623,145.85 271.23,140.721718 271.23,130.465 Z M310.415,128 C310.415,123.013308 311.944985,118.791684 315.005,115.335 C318.065015,111.878316 322.088308,110.15 327.075,110.15 C331.551689,110.15 335.234986,111.623319 338.125,114.57 C341.015014,117.516681 342.46,121.228311 342.46,125.705 C342.46,126.44167 342.403334,127.206663 342.29,128 C342.176666,128.963338 341.666671,129.445 340.76,129.445 L316.28,129.445 C316.450001,132.335014 317.654155,134.899155 319.8925,137.1375 C322.130845,139.375845 324.723319,140.495 327.67,140.495 C330.503348,140.495 333.308319,139.645008 336.085,137.945 C336.82167,137.548331 337.274999,137.321667 337.445,137.265 C337.615001,137.208333 337.954997,137.378331 338.465,137.775 L339.91,139.73 C340.250002,140.183336 340.42,140.551665 340.42,140.835 C340.42,141.118335 340.13667,141.486664 339.57,141.94 C336.283317,144.54668 332.118359,145.85 327.075,145.85 C322.088308,145.85 318.065015,144.13585 315.005,140.7075 C311.944985,137.27915 310.415,133.043359 310.415,128 Z M316.365,124.685 L336.595,124.685 C336.481666,122.191654 335.504176,120.010009 333.6625,118.14 C331.820824,116.269991 329.625013,115.335 327.075,115.335 C324.241653,115.335 321.819177,116.227491 319.8075,118.0125 C317.795823,119.797509 316.648335,122.021653 316.365,124.685 Z" id="Brandon-Grotesque"></path>
            </g>
        </g>
    </g>
</svg>