<?xml version="1.0" encoding="UTF-8"?>
<svg width="36px" height="33px" viewBox="0 0 36 33" version="1.1" xmlns="http://www.w3.org/2000/svg" xmlns:xlink="http://www.w3.org/1999/xlink">
    <!-- Generator: Sketch 41.2 (35397) - http://www.bohemiancoding.com/sketch -->
    <title>brush</title>
    <desc>Created with Sketch.</desc>
    <defs></defs>
    <g id="Design-Sprint-Academy" stroke="none" stroke-width="1" fill="none" fill-rule="evenodd">
        <g id="design_sprints_small_v2" transform="translate(-21.000000, -628.000000)">
            <g id="Group-13" transform="translate(21.000000, 520.000000)">
                <g id="Group-12-Copy-2" transform="translate(0.000000, 108.000000)">
                    <g id="brush">
                        <path d="M0.583728814,32 C0.583728814,32 4.15254237,30.5660377 4.15254237,27.1196981 C4.15254237,24.8344151 5.76372881,24.754717 7.22898305,24.754717 L7.47516949,24.754717 C9.23881356,24.754717 10.6684746,26.1132075 10.6684746,27.9076226 C10.6684746,29.5118491 10.9876271,32 7.96101695,32 L0.583728814,32 Z" id="Fill-335" fill="#D0E8F9"></path>
                        <path d="M0.583728814,32 C0.583728814,32 4.15254237,30.5660377 4.15254237,27.1196981 C4.15254237,24.8344151 5.76372881,24.754717 7.22898305,24.754717 L7.47516949,24.754717 C9.23881356,24.754717 10.6684746,26.1132075 10.6684746,27.9076226 C10.6684746,29.5118491 10.9876271,32 7.96101695,32 L0.583728814,32 Z" id="Stroke-336" stroke="#6D65CB" stroke-linejoin="round" fill="#FFE2BA"></path>
                        <path d="M28.915339,1.66460377 L27.2371186,3.37267925 L8.20008475,24.8410566 C9.56211864,25.1441509 10.5800847,26.285283 10.6524576,27.7476226 L10.9745763,28.0754717 L32.2711864,8.49569811 L33.9488136,6.78822642 C35.3387288,5.37298113 35.3387288,3.07984906 33.9488136,1.66460377 C32.5588983,0.249962264 30.3052542,0.249962264 28.915339,1.66460377 Z" id="Fill-337" fill="#FFFFFF"></path>
                        <path d="M28.915339,1.66460377 L27.2371186,3.37267925 L8.20008475,24.8410566 C9.56211864,25.1441509 10.5800847,26.285283 10.6524576,27.7476226 L10.9745763,28.0754717 L32.2711864,8.49569811 L33.9488136,6.78822642 C35.3387288,5.37298113 35.3387288,3.07984906 33.9488136,1.66460377 C32.5588983,0.249962264 30.3052542,0.249962264 28.915339,1.66460377 Z" id="Stroke-338" stroke="#6D65CB" stroke-linejoin="round"></path>
                        <polygon id="Stroke-339" stroke="#6D65CB" stroke-linejoin="round" points="17.7687288 21.8288302 14.1429661 18.138566 11.7552542 20.8313962 15.1241525 24.2602264"></polygon>
                    </g>
                </g>
            </g>
        </g>
    </g>
</svg>