<?xml version="1.0" encoding="UTF-8"?>
<svg width="60px" height="60px" viewBox="0 0 60 60" version="1.1" xmlns="http://www.w3.org/2000/svg" xmlns:xlink="http://www.w3.org/1999/xlink">
    <!-- Generator: Sketch 41.2 (35397) - http://www.bohemiancoding.com/sketch -->
    <title>Group 29</title>
    <desc>Created with Sketch.</desc>
    <defs></defs>
    <g id="Home" stroke="none" stroke-width="1" fill="none" fill-rule="evenodd">
        <g id="Group-28" transform="translate(-277.000000, -858.000000)">
            <g id="Group-29" transform="translate(278.000000, 859.000000)">
                <g id="Hamburger-Menu">
                    <polygon id="Fill-3676" fill="#FFFFFF" points="0 0 58 0 58 58 0 58"></polygon>
                    <polygon id="Stroke-3677" stroke="#6D65CB" stroke-width="2" stroke-linejoin="round" points="0 0 58 0 58 58 0 58"></polygon>
                    <polygon id="Fill-3678" fill-opacity="0.5" fill="#6D65CB" points="0 0 58 0 58 12 0 12"></polygon>
                    <polygon id="Stroke-3679" stroke="#6D65CB" stroke-width="2" stroke-linejoin="round" points="0 0 58 0 58 12 0 12"></polygon>
                    <path d="M9,6 C9,7.657 7.657,9 6,9 C4.343,9 3,7.657 3,6 C3,4.343 4.343,3 6,3 C7.657,3 9,4.343 9,6 L9,6 Z" id="Fill-3903" fill="#FFFFFF"></path>
                    <path d="M9,6 C9,7.657 7.657,9 6,9 C4.343,9 3,7.657 3,6 C3,4.343 4.343,3 6,3 C7.657,3 9,4.343 9,6 L9,6 Z" id="Stroke-3904" stroke="#6D65CB" stroke-width="2" stroke-linejoin="round"></path>
                    <path d="M18,6 C18,7.657 16.657,9 15,9 C13.343,9 12,7.657 12,6 C12,4.343 13.343,3 15,3 C16.657,3 18,4.343 18,6 L18,6 Z" id="Fill-3905" fill="#FFFFFF"></path>
                    <path d="M18,6 C18,7.657 16.657,9 15,9 C13.343,9 12,7.657 12,6 C12,4.343 13.343,3 15,3 C16.657,3 18,4.343 18,6 L18,6 Z" id="Stroke-3906" stroke="#6D65CB" stroke-width="2" stroke-linejoin="round"></path>
                    <path d="M27,6 C27,7.657 25.657,9 24,9 C22.343,9 21,7.657 21,6 C21,4.343 22.343,3 24,3 C25.657,3 27,4.343 27,6 L27,6 Z" id="Fill-3907" fill="#FFFFFF"></path>
                    <path d="M27,6 C27,7.657 25.657,9 24,9 C22.343,9 21,7.657 21,6 C21,4.343 22.343,3 24,3 C25.657,3 27,4.343 27,6 L27,6 Z" id="Stroke-3908" stroke="#6D65CB" stroke-width="2" stroke-linejoin="round"></path>
                </g>
                <text id="&lt;!DOCTYPE-html&gt;-&lt;htm" font-family="Montserrat-Regular, Montserrat" font-size="2.40000004" font-weight="normal" letter-spacing="0.0793846083" fill="#6D65CB">
                    <tspan x="5" y="20">&lt;!DOCTYPE html&gt;</tspan>
                    <tspan x="5" y="23">&lt;html&gt;</tspan>
                    <tspan x="5" y="26">&lt;head&gt;</tspan>
                    <tspan x="5" y="29">&lt;title&gt;Title of the document&lt;/title&gt;</tspan>
                    <tspan x="5" y="32">&lt;/head&gt;</tspan>
                    <tspan x="5" y="35"></tspan>
                    <tspan x="5" y="38">&lt;body&gt;</tspan>
                    <tspan x="5" y="41">The content of the document……</tspan>
                    <tspan x="5" y="44">&lt;/body&gt;</tspan>
                    <tspan x="5" y="47"></tspan>
                    <tspan x="5" y="50">&lt;/html&gt;</tspan>
                </text>
            </g>
        </g>
    </g>
</svg>