<?xml version="1.0" encoding="UTF-8"?>
<svg width="11px" height="11px" viewBox="0 0 11 11" version="1.1" xmlns="http://www.w3.org/2000/svg" xmlns:xlink="http://www.w3.org/1999/xlink">
    <!-- Generator: Sketch 41.2 (35397) - http://www.bohemiancoding.com/sketch -->
    <title>cross</title>
    <desc>Created with Sketch.</desc>
    <defs></defs>
    <g id="Menu" stroke="none" stroke-width="1" fill="none" fill-rule="evenodd">
        <g id="menu_small_v2" transform="translate(-344.000000, -23.000000)" fill="#000000">
            <g id="Nav" transform="translate(0.000000, -1.000000)">
                <path d="M354.721093,33.3749686 C355.092764,33.7466401 355.092764,34.3495221 354.721093,34.7211935 C354.535151,34.907135 354.291671,35 354.04798,35 C353.804289,35 353.560809,34.907135 353.374868,34.7211935 L349.499923,30.8462489 L345.624978,34.7211935 C345.439037,34.907135 345.195557,35 344.951866,35 C344.708175,35 344.464695,34.907135 344.278754,34.7211935 C343.907082,34.3495221 343.907082,33.7466401 344.278754,33.3749686 L348.153698,29.500024 L344.278754,25.6250794 C343.907082,25.253408 343.907082,24.650526 344.278754,24.2788546 C344.650637,23.9071831 345.253095,23.9071831 345.624978,24.2788546 L349.499923,28.1537992 L353.374868,24.2788546 C353.746751,23.9071831 354.34921,23.9071831 354.721093,24.2788546 C355.092764,24.650526 355.092764,25.253408 354.721093,25.6250794 L350.846148,29.500024 L354.721093,33.3749686 Z" id="cross"></path>
            </g>
        </g>
    </g>
</svg>