<?xml version="1.0" encoding="UTF-8"?>
<svg width="868px" height="535px" viewBox="0 0 868 535" version="1.1" xmlns="http://www.w3.org/2000/svg" xmlns:xlink="http://www.w3.org/1999/xlink">
    <!-- Generator: Sketch 42 (36781) - http://www.bohemiancoding.com/sketch -->
    <title>design-sprint</title>
    <desc>Created with Sketch.</desc>
    <defs></defs>
    <g id="Case-Study" stroke="none" stroke-width="1" fill="none" fill-rule="evenodd">
        <g id="casestudy_timeinc_large_v2" transform="translate(-479.000000, -2883.000000)">
            <g id="design-sprint" transform="translate(479.000000, 2884.000000)">
                <g transform="translate(155.892488, 50.456115)" id="Page-1">
                    <g>
                        <g id="Group-6" transform="translate(69.552033, 22.825386)">
                            <path d="M380.025533,190.61017 C380.025533,295.718668 294.971791,380.925832 190.052549,380.925832 C85.1333074,380.925832 0.0795651275,295.718668 0.0795651275,190.61017 C0.0795651275,85.5016718 85.1333074,0.294507541 190.052549,0.294507541 C294.971791,0.294507541 380.025533,85.5016718 380.025533,190.61017 Z" id="Stroke-1" stroke="#FF0084" stroke-width="0.599999964"></path>
                            <g id="Group-20" transform="translate(334.569263, 76.885509)">
                                <path d="M45.3431289,22.71246 C45.3431289,35.2562107 35.1927292,45.4249199 22.6715644,45.4249199 C10.1503997,45.4249199 0,35.2562107 0,22.71246 C0,10.1687093 10.1503997,0 22.6715644,0 C35.1927292,0 45.3431289,10.1687093 45.3431289,22.71246" id="Fill-3" fill="#6D65CB"></path>
                                <text id="2" font-family="Montserrat-Bold, Montserrat" font-size="19.8427788" font-weight="bold" fill="#FEFEFE">
                                    <tspan x="16.7884218" y="28.6106887">2</tspan>
                                </text>
                            </g>
                        </g>
                        <g id="Group-15" transform="translate(0.000000, 0.388032)">
                            <path d="M89.022765,109.25533 C89.022765,61.3136108 52.1865693,22.5194653 6.66416402,22.5194653" id="Stroke-7" stroke="#FF0084" stroke-width="0.599999964" stroke-dasharray="2.399999856948853"></path>
                            <polygon id="Fill-9" fill="#6D65CB" points="6.51384769 15.484201 8.59381323 17.3228458 4.26599793 22.2357097 9.16941626 26.5713317 7.33408201 28.6556498 0.349498966 22.4807823"></polygon>
                            <g id="Group-19" transform="translate(235.037905, 0.000000)">
                                <path d="M45.3431289,22.71246 C45.3431289,35.2562107 35.1927292,45.4249199 22.6715644,45.4249199 C10.1503997,45.4249199 0,35.2562107 0,22.71246 C0,10.1687093 10.1503997,0 22.6715644,0 C35.1927292,0 45.3431289,10.1687093 45.3431289,22.71246" id="Fill-11" fill="#6D65CB"></path>
                                <text id="1" font-family="Montserrat-Bold, Montserrat" font-size="19.8427788" font-weight="bold" fill="#FEFEFE">
                                    <tspan x="18.5871813" y="28.8233251">1</tspan>
                                </text>
                            </g>
                            <g id="Group-21" transform="translate(396.926258, 283.515315)">
                                <path d="M45.3431289,22.71246 C45.3431289,35.2562107 35.1927292,45.4249199 22.6715644,45.4249199 C10.1503997,45.4249199 0,35.2562107 0,22.71246 C0,10.1687093 10.1503997,0 22.6715644,0 C35.1927292,0 45.3431289,10.1687093 45.3431289,22.71246" id="Fill-13" fill="#6D65CB"></path>
                                <text id="3" font-family="Montserrat-Bold, Montserrat" font-size="19.8427788" font-weight="bold" fill="#FEFEFE">
                                    <tspan x="17.3880083" y="28.8233251">3</tspan>
                                </text>
                            </g>
                        </g>
                        <g id="Group-18" transform="translate(67.153687, 283.903347)">
                            <g id="Group-23">
                                <path d="M45.3431289,22.71246 C45.3431289,35.2562107 35.1927292,45.4249199 22.6715644,45.4249199 C10.1503997,45.4249199 0,35.2562107 0,22.71246 C0,10.1687093 10.1503997,0 22.6715644,0 C35.1927292,0 45.3431289,10.1687093 45.3431289,22.71246" id="Fill-17" fill="#6D65CB"></path>
                                <text id="5" font-family="Montserrat-Bold, Montserrat" font-size="19.8427788" font-weight="bold" fill="#FEFEFE">
                                    <tspan x="16.7884218" y="28.8233251">5</tspan>
                                </text>
                            </g>
                        </g>
                        <g id="Group-24" transform="translate(67.153687, 99.710895)">
                            <path d="M45.3431289,22.71246 C45.3431289,35.2562107 35.1927292,45.4249199 22.6715644,45.4249199 C10.1503997,45.4249199 0,35.2562107 0,22.71246 C0,10.1687093 10.1503997,0 22.6715644,0 C35.1927292,0 45.3431289,10.1687093 45.3431289,22.71246" id="Fill-19" fill="#6D65CB"></path>
                            <text id="6" font-family="Montserrat-Bold, Montserrat" font-size="19.8427788" font-weight="bold" fill="#FEFEFE">
                                <tspan x="16.1888353" y="29.8120247">6</tspan>
                            </text>
                        </g>
                        <g id="Group-22" transform="translate(235.037905, 385.628882)">
                            <path d="M45.3431289,22.71246 C45.3431289,35.2562107 35.1927292,45.4249199 22.6715644,45.4249199 C10.1503997,45.4249199 0,35.2562107 0,22.71246 C0,10.1687093 10.1503997,0 22.6715644,0 C35.1927292,0 45.3431289,10.1687093 45.3431289,22.71246" id="Fill-21" fill="#6D65CB"></path>
                            <text id="4" font-family="Montserrat-Bold, Montserrat" font-size="19.8427788" font-weight="bold" fill="#FEFEFE">
                                <tspan x="16.1888353" y="28.6106887">4</tspan>
                            </text>
                        </g>
                        <g id="Group-31" transform="translate(98.931771, 61.055504)">
                            <path d="M309.880449,152.167415 C309.880449,235.894533 242.128375,303.769421 158.551414,303.769421 C74.9750531,303.769421 7.22297864,235.894533 7.22297864,152.167415 C7.22297864,68.4402968 74.9750531,0.565408827 158.551414,0.565408827 C242.128375,0.565408827 309.880449,68.4402968 309.880449,152.167415 Z" id="Stroke-24" stroke="#FF0084" stroke-width="0.599999964" stroke-dasharray="2.399999856948853"></path>
                            <polygon id="Fill-25" fill="#6D65CB" points="89.6552088 279.486755 90.4130861 282.37777 83.6089786 284.167761 85.3957464 290.983541 82.5099366 291.742786 79.9646919 282.035389"></polygon>
                            <polygon id="Fill-26" fill="#6D65CB" points="14.2492329 154.387965 12.211838 156.539558 7.14773053 151.727606 2.34444314 156.800848 0.196724328 154.759778 7.03740662 147.534342"></polygon>
                            <polygon id="Fill-27" fill="#6D65CB" points="76.8599731 32.9021326 74.1462447 32.3266926 75.4995114 25.9163632 69.1013239 24.5600548 69.6751282 21.8408306 78.7888429 23.772579"></polygon>
                            <polygon id="Fill-28" fill="#6D65CB" points="239.104181 273.192655 241.949818 274.090654 239.836276 280.812129 246.545649 282.929484 245.649267 285.780855 236.093657 282.765501"></polygon>
                            <polygon id="Fill-29" fill="#6D65CB" points="302.737875 148.730813 304.80465 146.575015 309.877751 151.456645 314.750591 146.374392 316.903106 148.444895 309.962892 155.684146"></polygon>
                            <polygon id="Fill-30" fill="#6D65CB" points="240.017591 32.1100917 239.869493 29.1247715 246.895447 28.7751827 246.547088 21.7371553 249.527032 21.5887903 250.02409 31.6133392"></polygon>
                        </g>
                        <text id="DESIGN-SPRINT" font-family="Montserrat-Bold, Montserrat" font-size="23.9999986" font-weight="bold" line-spacing="22.1999987" fill="#221F20">
                            <tspan x="219.923529" y="215.627585">DESIGN </tspan>
                            <tspan x="219.923529" y="237.827583">SPRINT</tspan>
                        </text>
                        <g id="Group-25" transform="translate(199.062715, 203.025798)" stroke="#000000" stroke-width="1.19999993" stroke-linecap="round" stroke-linejoin="round">
                            <path d="M0.299793246,2.39819275 L13.0189435,2.39819275" id="Line"></path>
                            <path d="M0.299793246,27.6172917 L13.0189435,27.6172917" id="Line-Copy"></path>
                            <path d="M5.69607167,15.0077422 L18.4152219,15.0077422" id="Line"></path>
                        </g>
                        <g id="Group-25-Copy" transform="translate(188.270159, 203.025798)" stroke="#000000" stroke-width="1.19999993" stroke-linecap="round" stroke-linejoin="round">
                            <path d="M0.109015726,2.39819275 L4.73416127,2.39819275" id="Line"></path>
                            <path d="M0.109015726,27.6172917 L4.73416127,27.6172917" id="Line-Copy"></path>
                            <path d="M2.07129879,15.0077422 L6.69644433,15.0077422" id="Line"></path>
                        </g>
                        <g id="Group-25" transform="translate(205.058580, 198.821122)" stroke="#000000" stroke-width="1.19999993" stroke-linecap="round" stroke-linejoin="round">
                            <path d="M6.89524466,1.80136421 L19.6143949,1.80136421" id="Line"></path>
                            <path d="M0.299793246,12.6095494 L13.0189435,12.6095494" id="Line"></path>
                            <path d="M5.69607167,25.2190989 L18.4152219,25.2190989" id="Line"></path>
                        </g>
                        <g id="Group-25-Copy" transform="translate(194.266023, 198.821122)" stroke="#000000" stroke-width="1.19999993" stroke-linecap="round" stroke-linejoin="round">
                            <path d="M2.50736169,1.80136421 L7.13250723,1.80136421" id="Line"></path>
                            <path d="M0.109015726,12.6095494 L4.73416127,12.6095494" id="Line"></path>
                            <path d="M2.07129879,25.2190989 L6.69644433,25.2190989" id="Line"></path>
                        </g>
                    </g>
                </g>
                <g id="Successfull-Cycle" transform="translate(327.973811, 0.000000)">
                    <path d="M18.4026931,17.7197072 L8.76318719,17.7197072 C3.94343424,17.7197072 0,13.7327731 0,8.85985361 C0,3.98693412 3.94343424,0 8.76318719,0 L36.8053862,0" id="Path" stroke="#6D65CB" stroke-width="1.13999992" stroke-linecap="round" stroke-linejoin="round"></path>
                    <path d="M8.76318719,35.4394144 L36.8053862,35.4394144 C41.6251392,35.4394144 45.5685734,31.4524803 45.5685734,26.5795608 C45.5685734,21.7066413 41.6251392,17.7197072 36.8053862,17.7197072" id="Path" stroke="#6D65CB" stroke-width="1.13999992" stroke-linecap="round" stroke-linejoin="round" stroke-dasharray="3.191999626636516"></path>
                    <path d="M18.4026931,17.7197072 L10.5158246,9.74583897" id="Path" stroke="#6D65CB" stroke-width="1.13999992" stroke-linecap="round" stroke-linejoin="round"></path>
                    <path d="M18.4026931,17.7197072 L10.5158246,25.6935755" id="Path" stroke="#6D65CB" stroke-width="1.13999992" stroke-linecap="round" stroke-linejoin="round"></path>
                    <path d="M31.5474739,17.1481038 L37.6817049,17.1481038" id="Path" stroke="#6D65CB" stroke-width="1.13999992" stroke-linecap="round" stroke-linejoin="round"></path>
                    <path d="M31.5474739,17.7197072 C31.5474739,20.1659128 29.5853963,22.149634 27.1658803,22.149634 C24.7463643,22.149634 22.7842867,20.1659128 22.7842867,17.7197072 C22.7842867,15.2735016 24.7463643,13.2897804 27.1658803,13.2897804 C29.5853963,13.2897804 31.5474739,15.2735016 31.5474739,17.7197072 L31.5474739,17.7197072 Z" id="Fill-21" fill="#FFE2BA"></path>
                    <path d="M31.5474739,17.7197072 C31.5474739,20.1659128 29.5853963,22.149634 27.1658803,22.149634 C24.7463643,22.149634 22.7842867,20.1659128 22.7842867,17.7197072 C22.7842867,15.2735016 24.7463643,13.2897804 27.1658803,13.2897804 C29.5853963,13.2897804 31.5474739,15.2735016 31.5474739,17.7197072 L31.5474739,17.7197072 Z" id="Stroke-22" stroke="#6D65CB" stroke-width="1.13999992" stroke-linecap="round" stroke-linejoin="round"></path>
                </g>
                <g id="Group-12-Copy" transform="translate(395.727085, 9.010021)">
                    <text id="SKETCH/WIREFRAME" font-family="Montserrat-Regular, Montserrat" font-size="14.8199989" font-weight="normal" letter-spacing="0.49019987" fill="#000000">
                        <tspan x="300.392833" y="165.969014">SKETCH/WIREFRAME</tspan>
                    </text>
                    <text id="DISCOVERY" font-family="Montserrat-Regular, Montserrat" font-size="14.8199989" font-weight="normal" letter-spacing="0.49019987" fill="#000000">
                        <tspan x="0" y="14">DISCOVERY</tspan>
                    </text>
                    <g id="Group-14" transform="translate(236.836664, 137.552981)">
                        <g id="Edit-Top-Right-Corner">
                            <polygon id="Fill-464" fill="#FFFFFF" points="0 0 9.20055134 0 9.20055134 9.19643484 0 9.19643484"></polygon>
                            <polygon id="Stroke-465" stroke="#6D65CB" stroke-width="1.13999992" points="0 0 9.20055134 0 9.20055134 9.19643484 0 9.19643484"></polygon>
                            <polygon id="Fill-466" fill="#FFE2BA" points="35.2687802 0 44.4693315 0 44.4693315 9.19643484 35.2687802 9.19643484"></polygon>
                            <polygon id="Stroke-467" stroke="#6D65CB" stroke-width="1.13999992" points="35.2687802 0 44.4693315 0 44.4693315 9.19643484 35.2687802 9.19643484"></polygon>
                            <polygon id="Fill-468" fill="#FFFFFF" points="0 35.2530002 9.20055134 35.2530002 9.20055134 44.449435 0 44.449435"></polygon>
                            <polygon id="Stroke-469" stroke="#6D65CB" stroke-width="1.13999992" points="0 35.2530002 9.20055134 35.2530002 9.20055134 44.449435 0 44.449435"></polygon>
                            <polygon id="Fill-470" fill="#FFFFFF" points="35.2687802 35.2530002 44.4693315 35.2530002 44.4693315 44.449435 35.2687802 44.449435"></polygon>
                            <polygon id="Stroke-471" stroke="#6D65CB" stroke-width="1.13999992" points="35.2687802 35.2530002 44.4693315 35.2530002 44.4693315 44.449435 35.2687802 44.449435"></polygon>
                            <path d="M34.5020675,39.8512176 C34.5020675,39.4297144 34.8470882,39.0848481 35.2687802,39.0848481 C35.6904721,39.0848481 36.0354928,39.4297144 36.0354928,39.8512176 C36.0354928,40.2727209 35.6904721,40.6175872 35.2687802,40.6175872 C34.8470882,40.6175872 34.5020675,40.2727209 34.5020675,39.8512176 L34.5020675,39.8512176 Z M31.4352171,39.8512176 C31.4352171,39.4297144 31.7802378,39.0848481 32.2019297,39.0848481 C32.6236216,39.0848481 32.9686423,39.4297144 32.9686423,39.8512176 C32.9686423,40.2727209 32.6236216,40.6175872 32.2019297,40.6175872 C31.7802378,40.6175872 31.4352171,40.2727209 31.4352171,39.8512176 L31.4352171,39.8512176 Z M28.3683666,39.8512176 C28.3683666,39.4297144 28.7057202,39.0848481 29.1350793,39.0848481 C29.5567712,39.0848481 29.9017919,39.4297144 29.9017919,39.8512176 C29.9017919,40.2727209 29.5567712,40.6175872 29.1350793,40.6175872 C28.7057202,40.6175872 28.3683666,40.2727209 28.3683666,39.8512176 L28.3683666,39.8512176 Z M25.3015162,39.8512176 C25.3015162,39.4297144 25.6465369,39.0848481 26.0682288,39.0848481 C26.4899207,39.0848481 26.8349414,39.4297144 26.8349414,39.8512176 C26.8349414,40.2727209 26.4899207,40.6175872 26.0682288,40.6175872 C25.6465369,40.6175872 25.3015162,40.2727209 25.3015162,39.8512176 L25.3015162,39.8512176 Z M22.2346657,39.8512176 C22.2346657,39.4297144 22.5796864,39.0848481 23.0013784,39.0848481 C23.4230703,39.0848481 23.768091,39.4297144 23.768091,39.8512176 C23.768091,40.2727209 23.4230703,40.6175872 23.0013784,40.6175872 C22.5796864,40.6175872 22.2346657,40.2727209 22.2346657,39.8512176 L22.2346657,39.8512176 Z M19.1678153,39.8512176 C19.1678153,39.4297144 19.512836,39.0848481 19.9345279,39.0848481 C20.3562198,39.0848481 20.7012405,39.4297144 20.7012405,39.8512176 C20.7012405,40.2727209 20.3562198,40.6175872 19.9345279,40.6175872 C19.512836,40.6175872 19.1678153,40.2727209 19.1678153,39.8512176 L19.1678153,39.8512176 Z M16.1009649,39.8512176 C16.1009649,39.4297144 16.4459855,39.0848481 16.8676775,39.0848481 C17.2893694,39.0848481 17.6343901,39.4297144 17.6343901,39.8512176 C17.6343901,40.2727209 17.2893694,40.6175872 16.8676775,40.6175872 C16.4459855,40.6175872 16.1009649,40.2727209 16.1009649,39.8512176 L16.1009649,39.8512176 Z M13.0341144,39.8512176 C13.0341144,39.4297144 13.3791351,39.0848481 13.800827,39.0848481 C14.222519,39.0848481 14.5675396,39.4297144 14.5675396,39.8512176 C14.5675396,40.2727209 14.222519,40.6175872 13.800827,40.6175872 C13.3791351,40.6175872 13.0341144,40.2727209 13.0341144,39.8512176 L13.0341144,39.8512176 Z M9.96726396,39.8512176 C9.96726396,39.4297144 10.3122846,39.0848481 10.7339766,39.0848481 C11.1556685,39.0848481 11.5006892,39.4297144 11.5006892,39.8512176 C11.5006892,40.2727209 11.1556685,40.6175872 10.7339766,40.6175872 C10.3122846,40.6175872 9.96726396,40.2727209 9.96726396,39.8512176 L9.96726396,39.8512176 Z M8.43383873,38.3184785 C8.43383873,37.8969752 8.77885941,37.5521089 9.20055134,37.5521089 C9.62224328,37.5521089 9.96726396,37.8969752 9.96726396,38.3184785 C9.96726396,38.7399817 9.62224328,39.0848481 9.20055134,39.0848481 C8.77885941,39.0848481 8.43383873,38.7399817 8.43383873,38.3184785 L8.43383873,38.3184785 Z M34.5020675,36.7857393 C34.5020675,36.3642361 34.8470882,36.0193698 35.2687802,36.0193698 C35.6904721,36.0193698 36.0354928,36.3642361 36.0354928,36.7857393 C36.0354928,37.2072426 35.6904721,37.5521089 35.2687802,37.5521089 C34.8470882,37.5521089 34.5020675,37.2072426 34.5020675,36.7857393 L34.5020675,36.7857393 Z M39.1023432,35.2530002 C39.1023432,34.8314969 39.4473639,34.4866306 39.8690558,34.4866306 C40.2907478,34.4866306 40.6357684,34.8314969 40.6357684,35.2530002 C40.6357684,35.6745035 40.2907478,36.0193698 39.8690558,36.0193698 C39.4473639,36.0193698 39.1023432,35.6745035 39.1023432,35.2530002 L39.1023432,35.2530002 Z M36.0354928,35.2530002 C36.0354928,34.8314969 36.3805134,34.4866306 36.8022054,34.4866306 C37.2238973,34.4866306 37.568918,34.8314969 37.568918,35.2530002 C37.568918,35.6745035 37.2238973,36.0193698 36.8022054,36.0193698 C36.3805134,36.0193698 36.0354928,35.6745035 36.0354928,35.2530002 L36.0354928,35.2530002 Z M8.43383873,35.2530002 C8.43383873,34.8314969 8.77885941,34.4866306 9.20055134,34.4866306 C9.62224328,34.4866306 9.96726396,34.8314969 9.96726396,35.2530002 C9.96726396,35.6745035 9.62224328,36.0193698 9.20055134,36.0193698 C8.77885941,36.0193698 8.43383873,35.6745035 8.43383873,35.2530002 L8.43383873,35.2530002 Z M5.36698828,35.2530002 C5.36698828,34.8314969 5.71200896,34.4866306 6.1337009,34.4866306 C6.55539283,34.4866306 6.90041351,34.8314969 6.90041351,35.2530002 C6.90041351,35.6745035 6.55539283,36.0193698 6.1337009,36.0193698 C5.71200896,36.0193698 5.36698828,35.6745035 5.36698828,35.2530002 L5.36698828,35.2530002 Z M3.83356306,33.7202611 C3.83356306,33.2987578 4.17858374,32.9538915 4.60027567,32.9538915 C5.02196761,32.9538915 5.36698828,33.2987578 5.36698828,33.7202611 C5.36698828,34.1417643 5.02196761,34.4866306 4.60027567,34.4866306 C4.17858374,34.4866306 3.83356306,34.1417643 3.83356306,33.7202611 L3.83356306,33.7202611 Z M39.1023432,32.1875219 C39.1023432,31.7660187 39.4473639,31.4211524 39.8690558,31.4211524 C40.2907478,31.4211524 40.6357684,31.7660187 40.6357684,32.1875219 C40.6357684,32.6090252 40.2907478,32.9538915 39.8690558,32.9538915 C39.4473639,32.9538915 39.1023432,32.6090252 39.1023432,32.1875219 L39.1023432,32.1875219 Z M3.83356306,30.6547828 C3.83356306,30.2332795 4.17858374,29.8884132 4.60027567,29.8884132 C5.02196761,29.8884132 5.36698828,30.2332795 5.36698828,30.6547828 C5.36698828,31.0762861 5.02196761,31.4211524 4.60027567,31.4211524 C4.17858374,31.4211524 3.83356306,31.0762861 3.83356306,30.6547828 L3.83356306,30.6547828 Z M39.1023432,29.1220436 C39.1023432,28.7005404 39.4473639,28.3556741 39.8690558,28.3556741 C40.2907478,28.3556741 40.6357684,28.7005404 40.6357684,29.1220436 C40.6357684,29.5435469 40.2907478,29.8884132 39.8690558,29.8884132 C39.4473639,29.8884132 39.1023432,29.5435469 39.1023432,29.1220436 L39.1023432,29.1220436 Z M3.83356306,27.5893045 C3.83356306,27.1678012 4.17858374,26.8229349 4.60027567,26.8229349 C5.02196761,26.8229349 5.36698828,27.1678012 5.36698828,27.5893045 C5.36698828,28.0108078 5.02196761,28.3556741 4.60027567,28.3556741 C4.17858374,28.3556741 3.83356306,28.0108078 3.83356306,27.5893045 L3.83356306,27.5893045 Z M39.1023432,26.0565654 C39.1023432,25.6350621 39.4473639,25.2901958 39.8690558,25.2901958 C40.2907478,25.2901958 40.6357684,25.6350621 40.6357684,26.0565654 C40.6357684,26.4780686 40.2907478,26.8229349 39.8690558,26.8229349 C39.4473639,26.8229349 39.1023432,26.4780686 39.1023432,26.0565654 L39.1023432,26.0565654 Z M3.83356306,24.5238262 C3.83356306,24.102323 4.17858374,23.7574567 4.60027567,23.7574567 C5.02196761,23.7574567 5.36698828,24.102323 5.36698828,24.5238262 C5.36698828,24.9453295 5.02196761,25.2901958 4.60027567,25.2901958 C4.17858374,25.2901958 3.83356306,24.9453295 3.83356306,24.5238262 L3.83356306,24.5238262 Z M39.1023432,22.9910871 C39.1023432,22.5695838 39.4473639,22.2247175 39.8690558,22.2247175 C40.2907478,22.2247175 40.6357684,22.5695838 40.6357684,22.9910871 C40.6357684,23.4125904 40.2907478,23.7574567 39.8690558,23.7574567 C39.4473639,23.7574567 39.1023432,23.4125904 39.1023432,22.9910871 L39.1023432,22.9910871 Z M3.83356306,21.458348 C3.83356306,21.0368447 4.17858374,20.6919784 4.60027567,20.6919784 C5.02196761,20.6919784 5.36698828,21.0368447 5.36698828,21.458348 C5.36698828,21.8798512 5.02196761,22.2247175 4.60027567,22.2247175 C4.17858374,22.2247175 3.83356306,21.8798512 3.83356306,21.458348 L3.83356306,21.458348 Z M39.1023432,19.9256088 C39.1023432,19.5041055 39.4473639,19.1592392 39.8690558,19.1592392 C40.2907478,19.1592392 40.6357684,19.5041055 40.6357684,19.9256088 C40.6357684,20.3471121 40.2907478,20.6919784 39.8690558,20.6919784 C39.4473639,20.6919784 39.1023432,20.3471121 39.1023432,19.9256088 L39.1023432,19.9256088 Z M3.83356306,18.3928697 C3.83356306,17.9713664 4.17858374,17.6265001 4.60027567,17.6265001 C5.02196761,17.6265001 5.36698828,17.9713664 5.36698828,18.3928697 C5.36698828,18.8143729 5.02196761,19.1592392 4.60027567,19.1592392 C4.17858374,19.1592392 3.83356306,18.8143729 3.83356306,18.3928697 L3.83356306,18.3928697 Z M39.1023432,16.8601305 C39.1023432,16.4386273 39.4473639,16.093761 39.8690558,16.093761 C40.2907478,16.093761 40.6357684,16.4386273 40.6357684,16.8601305 C40.6357684,17.2816338 40.2907478,17.6265001 39.8690558,17.6265001 C39.4473639,17.6265001 39.1023432,17.2816338 39.1023432,16.8601305 L39.1023432,16.8601305 Z M3.83356306,15.3273914 C3.83356306,14.9058881 4.17858374,14.5610218 4.60027567,14.5610218 C5.02196761,14.5610218 5.36698828,14.9058881 5.36698828,15.3273914 C5.36698828,15.7488947 5.02196761,16.093761 4.60027567,16.093761 C4.17858374,16.093761 3.83356306,15.7488947 3.83356306,15.3273914 L3.83356306,15.3273914 Z M39.1023432,13.7946523 C39.1023432,13.373149 39.4473639,13.0282827 39.8690558,13.0282827 C40.2907478,13.0282827 40.6357684,13.373149 40.6357684,13.7946523 C40.6357684,14.2161555 40.2907478,14.5610218 39.8690558,14.5610218 C39.4473639,14.5610218 39.1023432,14.2161555 39.1023432,13.7946523 L39.1023432,13.7946523 Z M3.83356306,12.2619131 C3.83356306,11.8404099 4.17858374,11.4955435 4.60027567,11.4955435 C5.02196761,11.4955435 5.36698828,11.8404099 5.36698828,12.2619131 C5.36698828,12.6834164 5.02196761,13.0282827 4.60027567,13.0282827 C4.17858374,13.0282827 3.83356306,12.6834164 3.83356306,12.2619131 L3.83356306,12.2619131 Z M39.1023432,10.729174 C39.1023432,10.3076707 39.4473639,9.96280441 39.8690558,9.96280441 C40.2907478,9.96280441 40.6357684,10.3076707 40.6357684,10.729174 C40.6357684,11.1506772 40.2907478,11.4955435 39.8690558,11.4955435 C39.4473639,11.4955435 39.1023432,11.1506772 39.1023432,10.729174 L39.1023432,10.729174 Z M37.568918,9.19643484 C37.568918,8.77493157 37.9139387,8.43006527 38.3356306,8.43006527 C38.7573225,8.43006527 39.1023432,8.77493157 39.1023432,9.19643484 C39.1023432,9.6179381 38.7573225,9.96280441 38.3356306,9.96280441 C37.9139387,9.96280441 37.568918,9.6179381 37.568918,9.19643484 L37.568918,9.19643484 Z M34.5020675,9.19643484 C34.5020675,8.77493157 34.8470882,8.43006527 35.2687802,8.43006527 C35.6904721,8.43006527 36.0354928,8.77493157 36.0354928,9.19643484 C36.0354928,9.6179381 35.6904721,9.96280441 35.2687802,9.96280441 C34.8470882,9.96280441 34.5020675,9.6179381 34.5020675,9.19643484 L34.5020675,9.19643484 Z M6.90041351,9.19643484 C6.90041351,8.77493157 7.24543418,8.43006527 7.66712612,8.43006527 C8.08881806,8.43006527 8.43383873,8.77493157 8.43383873,9.19643484 C8.43383873,9.6179381 8.08881806,9.96280441 7.66712612,9.96280441 C7.24543418,9.96280441 6.90041351,9.6179381 6.90041351,9.19643484 L6.90041351,9.19643484 Z M3.83356306,9.19643484 C3.83356306,8.77493157 4.17858374,8.43006527 4.60027567,8.43006527 C5.02196761,8.43006527 5.36698828,8.77493157 5.36698828,9.19643484 C5.36698828,9.6179381 5.02196761,9.96280441 4.60027567,9.96280441 C4.17858374,9.96280441 3.83356306,9.6179381 3.83356306,9.19643484 L3.83356306,9.19643484 Z M8.43383873,7.6636957 C8.43383873,7.24219243 8.77885941,6.89732613 9.20055134,6.89732613 C9.62224328,6.89732613 9.96726396,7.24219243 9.96726396,7.6636957 C9.96726396,8.08519896 9.62224328,8.43006527 9.20055134,8.43006527 C8.77885941,8.43006527 8.43383873,8.08519896 8.43383873,7.6636957 L8.43383873,7.6636957 Z M34.5020675,6.13095656 C34.5020675,5.70945329 34.8470882,5.36458699 35.2687802,5.36458699 C35.6904721,5.36458699 36.0354928,5.70945329 36.0354928,6.13095656 C36.0354928,6.55245982 35.6904721,6.89732613 35.2687802,6.89732613 C34.8470882,6.89732613 34.5020675,6.55245982 34.5020675,6.13095656 L34.5020675,6.13095656 Z M32.9686423,4.59821742 C32.9686423,4.17671415 33.313663,3.83184785 33.7353549,3.83184785 C34.1570469,3.83184785 34.5020675,4.17671415 34.5020675,4.59821742 C34.5020675,5.01972068 34.1570469,5.36458699 33.7353549,5.36458699 C33.313663,5.36458699 32.9686423,5.01972068 32.9686423,4.59821742 L32.9686423,4.59821742 Z M29.9017919,4.59821742 C29.9017919,4.17671415 30.2468125,3.83184785 30.6685045,3.83184785 C31.0901964,3.83184785 31.4352171,4.17671415 31.4352171,4.59821742 C31.4352171,5.01972068 31.0901964,5.36458699 30.6685045,5.36458699 C30.2468125,5.36458699 29.9017919,5.01972068 29.9017919,4.59821742 L29.9017919,4.59821742 Z M26.8349414,4.59821742 C26.8349414,4.17671415 27.1799621,3.83184785 27.601654,3.83184785 C28.023346,3.83184785 28.3683666,4.17671415 28.3683666,4.59821742 C28.3683666,5.01972068 28.023346,5.36458699 27.601654,5.36458699 C27.1799621,5.36458699 26.8349414,5.01972068 26.8349414,4.59821742 L26.8349414,4.59821742 Z M23.768091,4.59821742 C23.768091,4.17671415 24.1131116,3.83184785 24.5348036,3.83184785 C24.9564955,3.83184785 25.3015162,4.17671415 25.3015162,4.59821742 C25.3015162,5.01972068 24.9564955,5.36458699 24.5348036,5.36458699 C24.1131116,5.36458699 23.768091,5.01972068 23.768091,4.59821742 L23.768091,4.59821742 Z M20.7012405,4.59821742 C20.7012405,4.17671415 21.0462612,3.83184785 21.4679531,3.83184785 C21.8896451,3.83184785 22.2346657,4.17671415 22.2346657,4.59821742 C22.2346657,5.01972068 21.8896451,5.36458699 21.4679531,5.36458699 C21.0462612,5.36458699 20.7012405,5.01972068 20.7012405,4.59821742 L20.7012405,4.59821742 Z M17.6343901,4.59821742 C17.6343901,4.17671415 17.9794108,3.83184785 18.4011027,3.83184785 C18.8227946,3.83184785 19.1678153,4.17671415 19.1678153,4.59821742 C19.1678153,5.01972068 18.8227946,5.36458699 18.4011027,5.36458699 C17.9794108,5.36458699 17.6343901,5.01972068 17.6343901,4.59821742 L17.6343901,4.59821742 Z M14.5675396,4.59821742 C14.5675396,4.17671415 14.9125603,3.83184785 15.3342522,3.83184785 C15.7559442,3.83184785 16.1009649,4.17671415 16.1009649,4.59821742 C16.1009649,5.01972068 15.7559442,5.36458699 15.3342522,5.36458699 C14.9125603,5.36458699 14.5675396,5.01972068 14.5675396,4.59821742 L14.5675396,4.59821742 Z M11.5006892,4.59821742 C11.5006892,4.17671415 11.8457099,3.83184785 12.2674018,3.83184785 C12.6890937,3.83184785 13.0341144,4.17671415 13.0341144,4.59821742 C13.0341144,5.01972068 12.6890937,5.36458699 12.2674018,5.36458699 C11.8457099,5.36458699 11.5006892,5.01972068 11.5006892,4.59821742 L11.5006892,4.59821742 Z M8.43383873,4.59821742 C8.43383873,4.17671415 8.77885941,3.83184785 9.20055134,3.83184785 C9.62224328,3.83184785 9.96726396,4.17671415 9.96726396,4.59821742 C9.96726396,5.01972068 9.62224328,5.36458699 9.20055134,5.36458699 C8.77885941,5.36458699 8.43383873,5.01972068 8.43383873,4.59821742 L8.43383873,4.59821742 Z" id="Fill-472" fill="#6D65CB"></path>
                            <path d="M35.2687802,9.19643484 L44.4693315,0" id="Path" stroke="#6D65CB" stroke-width="1.13999992" stroke-linecap="round"></path>
                            <path d="M35.2687802,4.59821742 L39.8690558,0" id="Path" stroke="#6D65CB" stroke-width="1.13999992" stroke-linecap="round"></path>
                            <path d="M39.8690558,9.19643484 L44.4693315,4.59821742" id="Path" stroke="#6D65CB" stroke-width="1.13999992" stroke-linecap="round"></path>
                        </g>
                        <g id="Pencil" transform="translate(10.164419, 8.889887)">
                            <path d="M21.8012567,1.0682071 C20.892661,0.160405419 19.4204569,0.160405419 18.5118613,1.0682071 L1.65012445,17.9223997 L0.00581439201,22.8538977 L4.93951983,21.2103233 L21.8012567,4.35613073 C22.7094647,3.4479416 22.7094647,1.97639624 21.8012567,1.0682071 L21.8012567,1.0682071 Z" id="Fill-332"></path>
                            <path d="M21.8012567,1.0682071 C20.892661,0.160405419 19.4204569,0.160405419 18.5118613,1.0682071 L1.65012445,17.9223997 L0.00581439201,22.8538977 L4.93951983,21.2103233 L21.8012567,4.35613073 C22.7094647,3.4479416 22.7094647,1.97639624 21.8012567,1.0682071 L21.8012567,1.0682071 Z" id="Stroke-333" stroke="#6D65CB" stroke-width="1.13999992" stroke-linejoin="round"></path>
                            <path d="M19.8825073,6.27363416 L16.5934995,2.98609798 L17.6897063,1.89038174 L20.978714,5.17791792 L19.8825073,6.27363416 L19.8825073,6.27363416 Z M1.65012445,17.9223997 L4.93951983,21.2103233 L1.65012445,17.9223997 Z" id="Stroke-334" stroke="#6D65CB" stroke-width="1.13999992" stroke-linejoin="round"></path>
                        </g>
                    </g>
                </g>
                <g id="Group-12-Copy-2" transform="translate(622.970365, 335.773435)">
                    <text id="DESIGN" font-family="Montserrat-Regular, Montserrat" font-size="14.8199989" font-weight="normal" letter-spacing="0.49019987" fill="#000000">
                        <tspan x="63.3285879" y="22.0151642">DESIGN</tspan>
                    </text>
                    <g id="Brush">
                        <path d="M0.664225818,36.6407505 C0.664225818,36.6407505 4.72518366,34.9988301 4.72518366,31.0526904 C4.72518366,28.4359877 6.55855492,28.3447315 8.22586973,28.3447315 L8.50600562,28.3447315 C10.5128586,28.3447315 12.1396719,29.9002351 12.1396719,31.9548825 C12.1396719,33.7917593 12.502836,36.6407505 9.05885211,36.6407505 L0.664225818,36.6407505 Z" id="Fill-335" fill="#D0E8F9"></path>
                        <path d="M0.664225818,36.6407505 C0.664225818,36.6407505 4.72518366,34.9988301 4.72518366,31.0526904 C4.72518366,28.4359877 6.55855492,28.3447315 8.22586973,28.3447315 L8.50600562,28.3447315 C10.5128586,28.3447315 12.1396719,29.9002351 12.1396719,31.9548825 C12.1396719,33.7917593 12.502836,36.6407505 9.05885211,36.6407505 L0.664225818,36.6407505 Z" id="Stroke-336" stroke="#6D65CB" stroke-width="1.13999992" stroke-linejoin="round" fill="#FFE2BA"></path>
                        <path d="M32.9028039,1.90601036 L30.9931547,3.86179684 L9.33088768,28.4435924 C10.8807479,28.7906425 12.0390929,30.0972655 12.1214461,31.7716787 L12.4879854,32.1470736 L36.7214273,9.72777359 L38.6304015,7.77267845 C40.211988,6.15218941 40.211988,3.5264994 38.6304015,1.90601036 C37.048815,0.286212655 34.4843904,0.286212655 32.9028039,1.90601036 Z" id="Fill-337" fill="#FFFFFF"></path>
                        <path d="M32.9028039,1.90601036 L30.9931547,3.86179684 L9.33088768,28.4435924 C10.8807479,28.7906425 12.0390929,30.0972655 12.1214461,31.7716787 L12.4879854,32.1470736 L36.7214273,9.72777359 L38.6304015,7.77267845 C40.211988,6.15218941 40.211988,3.5264994 38.6304015,1.90601036 C37.048815,0.286212655 34.4843904,0.286212655 32.9028039,1.90601036 Z" id="Stroke-338" stroke="#6D65CB" stroke-width="1.13999992" stroke-linejoin="round"></path>
                        <polygon id="Stroke-339" stroke="#6D65CB" stroke-width="1.13999992" stroke-linejoin="round" points="20.2190609 24.9945225 16.0933005 20.7690835 13.3763199 23.8524372 17.2097939 27.7785282"></polygon>
                    </g>
                </g>
                <g id="Group-12-Copy-3" transform="translate(332.770503, 494.349798)">
                    <text id="PROTOTYPE" font-family="Montserrat-Regular, Montserrat" font-size="14.8199989" font-weight="normal" letter-spacing="0.49019987" fill="#000000">
                        <tspan x="63.3479285" y="23.1866877">PROTOTYPE</tspan>
                    </text>
                    <g id="Toy-Robot">
                        <path d="M26.7957439,26.0289484 L11.900922,26.0289484 C11.3272609,26.0289484 10.862222,25.5597424 10.862222,24.9809408 L10.862222,14.0624819 C10.862222,13.4836803 11.3272609,13.0144742 11.900922,13.0144742 L26.7957439,13.0144742 C27.369405,13.0144742 27.8344439,13.4836803 27.8344439,14.0624819 L27.8344439,24.9809408 C27.8344439,25.5597424 27.369405,26.0289484 26.7957439,26.0289484 L26.7957439,26.0289484 Z" id="Fill-39" fill="#FFFFFF"></path>
                        <path d="M26.7957439,26.0289484 L11.900922,26.0289484 C11.3272609,26.0289484 10.862222,25.5597424 10.862222,24.9809408 L10.862222,14.0624819 C10.862222,13.4836803 11.3272609,13.0144742 11.900922,13.0144742 L26.7957439,13.0144742 C27.369405,13.0144742 27.8344439,13.4836803 27.8344439,14.0624819 L27.8344439,24.9809408 C27.8344439,25.5597424 27.369405,26.0289484 26.7957439,26.0289484 L26.7957439,26.0289484 Z" id="Stroke-40" stroke="#6D65CB" stroke-width="1.13999992" stroke-linejoin="round"></path>
                        <polygon id="Fill-41" fill="#FFFFFF" points="15.6144442 9.58961259 23.0822218 9.58961259 23.0822218 13.0144742 15.6144442 13.0144742"></polygon>
                        <polygon id="Stroke-42" stroke="#6D65CB" stroke-width="1.13999992" stroke-linejoin="round" points="15.6144442 9.58961259 23.0822218 9.58961259 23.0822218 13.0144742 15.6144442 13.0144742"></polygon>
                        <path d="M25.1188884,9.58961259 L13.5777775,9.58961259 L13.5777775,1.79394253 C13.5777775,0.80347254 14.3741142,0 15.3557875,0 L23.3408784,0 C24.3225518,0 25.1188884,0.80347254 25.1188884,1.79394253 L25.1188884,9.58961259 L25.1188884,9.58961259 Z" id="Fill-43" fill="#FFFFFF"></path>
                        <path d="M25.1188884,9.58961259 L13.5777775,9.58961259 L13.5777775,1.79394253 C13.5777775,0.80347254 14.3741142,0 15.3557875,0 L23.3408784,0 C24.3225518,0 25.1188884,0.80347254 25.1188884,1.79394253 L25.1188884,9.58961259 L25.1188884,9.58961259 Z" id="Stroke-44" stroke="#6D65CB" stroke-width="1.13999992" stroke-linejoin="round"></path>
                        <path d="M17.6511108,2.73988931 C17.6511108,3.11799404 17.3469686,3.42486164 16.9722219,3.42486164 C16.5974752,3.42486164 16.293333,3.11799404 16.293333,2.73988931 C16.293333,2.36178459 16.5974752,2.05491698 16.9722219,2.05491698 C17.3469686,2.05491698 17.6511108,2.36178459 17.6511108,2.73988931" id="Fill-45" fill="#6D65CB"></path>
                        <path d="M22.4033329,2.73988931 C22.4033329,3.11799404 22.0991907,3.42486164 21.724444,3.42486164 C21.3496974,3.42486164 21.0455552,3.11799404 21.0455552,2.73988931 C21.0455552,2.36178459 21.3496974,2.05491698 21.724444,2.05491698 C22.0991907,2.05491698 22.4033329,2.36178459 22.4033329,2.73988931" id="Fill-46" fill="#6D65CB"></path>
                        <polygon id="Fill-47" fill="#FFFFFF" points="13.5777775 8.21966793 11.5411109 7.5346956 11.5411109 3.42486164 13.5777775 2.73988931"></polygon>
                        <polygon id="Stroke-48" stroke="#6D65CB" stroke-width="1.13999992" stroke-linejoin="round" points="13.5777775 8.21966793 11.5411109 7.5346956 11.5411109 3.42486164 13.5777775 2.73988931"></polygon>
                        <polygon id="Fill-49" fill="#FFFFFF" points="25.1188884 8.21966793 27.155555 7.5346956 27.155555 3.42486164 25.1188884 2.73988931"></polygon>
                        <polygon id="Stroke-50" stroke="#6D65CB" stroke-width="1.13999992" stroke-linejoin="round" points="25.1188884 8.21966793 27.155555 7.5346956 27.155555 3.42486164 25.1188884 2.73988931"></polygon>
                        <path d="M2.03666663,27.3988931 L4.75222213,27.3988931 C4.75222213,22.8664312 6.37001432,19.1792252 10.862222,19.1792252 L10.862222,16.4393359 C4.87306435,16.4393359 2.03666663,21.3560672 2.03666663,27.3988931 L2.03666663,27.3988931 Z" id="Fill-51" fill="#FFFFFF"></path>
                        <path d="M2.03666663,27.3988931 L4.75222213,27.3988931 C4.75222213,22.8664312 6.37001432,19.1792252 10.862222,19.1792252 L10.862222,16.4393359 C4.87306435,16.4393359 2.03666663,21.3560672 2.03666663,27.3988931 L2.03666663,27.3988931 Z" id="Stroke-52" stroke="#6D65CB" stroke-width="1.13999992" stroke-linejoin="round"></path>
                        <path d="M18.3299997,19.1792252 C18.3299997,20.692329 17.1141097,21.9191145 15.6144442,21.9191145 C14.1147786,21.9191145 12.8988886,20.692329 12.8988886,19.1792252 C12.8988886,17.6661213 14.1147786,16.4393359 15.6144442,16.4393359 C17.1141097,16.4393359 18.3299997,17.6661213 18.3299997,19.1792252 L18.3299997,19.1792252 Z" id="Fill-53" fill="#FFE2BA"></path>
                        <path d="M18.3299997,19.1792252 C18.3299997,20.692329 17.1141097,21.9191145 15.6144442,21.9191145 C14.1147786,21.9191145 12.8988886,20.692329 12.8988886,19.1792252 C12.8988886,17.6661213 14.1147786,16.4393359 15.6144442,16.4393359 C17.1141097,16.4393359 18.3299997,17.6661213 18.3299997,19.1792252 L18.3299997,19.1792252 Z" id="Stroke-54" stroke="#6D65CB" stroke-width="1.13999992" stroke-linejoin="round"></path>
                        <path d="M21.0455552,21.9191145 L25.7977773,21.9191145 M21.724444,19.1792252 L25.7977773,19.1792252 M21.724444,16.4393359 L25.7977773,16.4393359 M1.35913553,33.565014 C0.534285545,32.9403192 0,31.9450544 0,30.8237547 C0,28.9325461 1.52003219,27.3988931 3.39444438,27.3988931 C5.26885657,27.3988931 6.78888876,28.9325461 6.78888876,30.8237547 C6.78888876,31.9443695 6.2552821,32.9389493 5.43111101,33.5636441" id="Stroke-55" stroke="#6D65CB" stroke-width="1.13999992" stroke-linecap="round" stroke-linejoin="round"></path>
                        <path d="M36.6599993,27.3988931 L33.9444438,27.3988931 C33.9444438,22.8664312 32.3266516,19.1792252 27.8344439,19.1792252 L27.8344439,16.4393359 C33.8236016,16.4393359 36.6599993,21.3560672 36.6599993,27.3988931 L36.6599993,27.3988931 Z" id="Fill-56" fill="#FFFFFF"></path>
                        <path d="M36.6599993,27.3988931 L33.9444438,27.3988931 C33.9444438,22.8664312 32.3266516,19.1792252 27.8344439,19.1792252 L27.8344439,16.4393359 C33.8236016,16.4393359 36.6599993,21.3560672 36.6599993,27.3988931 L36.6599993,27.3988931 Z" id="Stroke-57" stroke="#6D65CB" stroke-width="1.13999992" stroke-linejoin="round"></path>
                        <path d="M37.3375304,33.565014 C38.1623804,32.9403192 38.6966659,31.9450544 38.6966659,30.8237547 C38.6966659,28.9325461 37.1766337,27.3988931 35.3022216,27.3988931 C33.4278094,27.3988931 31.9077772,28.9325461 31.9077772,30.8237547 C31.9077772,31.9443695 32.4413838,32.9389493 33.2655549,33.5636441" id="Stroke-58" stroke="#6D65CB" stroke-width="1.13999992" stroke-linecap="round" stroke-linejoin="round"></path>
                        <path d="M16.9722219,39.0434227 L10.7624254,39.0434227 C10.067922,39.0434227 9.50444427,38.4748956 9.50444427,37.7741689 L9.50444427,36.8878148 C9.50444427,36.1870881 10.067922,35.618561 10.7624254,35.618561 L16.9722219,35.618561 L16.9722219,39.0434227 L16.9722219,39.0434227 Z" id="Fill-59" fill="#FFFFFF"></path>
                        <path d="M16.9722219,39.0434227 L10.7624254,39.0434227 C10.067922,39.0434227 9.50444427,38.4748956 9.50444427,37.7741689 L9.50444427,36.8878148 C9.50444427,36.1870881 10.067922,35.618561 10.7624254,35.618561 L16.9722219,35.618561 L16.9722219,39.0434227 L16.9722219,39.0434227 Z" id="Stroke-60" stroke="#6D65CB" stroke-width="1.13999992" stroke-linecap="round" stroke-linejoin="round"></path>
                        <path d="M27.9342406,39.0434227 L21.724444,39.0434227 L21.724444,35.618561 L27.9342406,35.618561 C28.6294228,35.618561 29.1922217,36.1870881 29.1922217,36.8878148 L29.1922217,37.7741689 C29.1922217,38.4748956 28.6294228,39.0434227 27.9342406,39.0434227 L27.9342406,39.0434227 Z" id="Fill-61" fill="#FFFFFF"></path>
                        <path d="M27.9342406,39.0434227 L21.724444,39.0434227 L21.724444,35.618561 L27.9342406,35.618561 C28.6294228,35.618561 29.1922217,36.1870881 29.1922217,36.8878148 L29.1922217,37.7741689 C29.1922217,38.4748956 28.6294228,39.0434227 27.9342406,39.0434227 L27.9342406,39.0434227 Z" id="Stroke-62" stroke="#6D65CB" stroke-width="1.13999992" stroke-linecap="round" stroke-linejoin="round"></path>
                        <path d="M21.724444,5.47977862 C21.724444,6.80383013 20.6606252,7.5346956 19.348333,7.5346956 C18.0360408,7.5346956 16.9722219,6.80383013 16.9722219,5.47977862" id="Stroke-63" stroke="#6D65CB" stroke-width="1.13999992" stroke-linecap="round" stroke-linejoin="round"></path>
                        <polygon id="Fill-121" fill="#FFE2BA" points="10.1833331 28.7688378 14.2566664 28.7688378 14.2566664 32.1936994 10.1833331 32.1936994"></polygon>
                        <polygon id="Stroke-122" stroke="#6D65CB" stroke-width="1.13999992" stroke-linecap="round" stroke-linejoin="round" points="10.1833331 28.7688378 14.2566664 28.7688378 14.2566664 32.1936994 10.1833331 32.1936994"></polygon>
                        <polygon id="Fill-123" fill="#FFE2BA" points="24.4399995 28.7688378 28.5133328 28.7688378 28.5133328 32.1936994 24.4399995 32.1936994"></polygon>
                        <polygon id="Stroke-124" stroke="#6D65CB" stroke-width="1.13999992" stroke-linecap="round" stroke-linejoin="round" points="24.4399995 28.7688378 28.5133328 28.7688378 28.5133328 32.1936994 24.4399995 32.1936994"></polygon>
                        <polygon id="Fill-125" fill="#FFFFFF" points="24.4399995 32.1936994 24.4399995 28.7688378 26.4766662 28.7688378 26.4766662 26.0289484 21.724444 26.0289484 21.724444 35.618561 26.4766662 35.618561 26.4766662 32.1936994"></polygon>
                        <polygon id="Stroke-126" stroke="#6D65CB" stroke-width="1.13999992" stroke-linecap="round" stroke-linejoin="round" points="24.4399995 32.1936994 24.4399995 28.7688378 26.4766662 28.7688378 26.4766662 26.0289484 21.724444 26.0289484 21.724444 35.618561 26.4766662 35.618561 26.4766662 32.1936994"></polygon>
                        <polygon id="Fill-127" fill="#FFFFFF" points="12.2199998 26.0289484 12.2199998 28.7688378 14.2566664 28.7688378 14.2566664 32.1936994 12.2199998 32.1936994 12.2199998 35.618561 16.9722219 35.618561 16.9722219 26.0289484"></polygon>
                        <polygon id="Stroke-128" stroke="#6D65CB" stroke-width="1.13999992" stroke-linecap="round" stroke-linejoin="round" points="12.2199998 26.0289484 12.2199998 28.7688378 14.2566664 28.7688378 14.2566664 32.1936994 12.2199998 32.1936994 12.2199998 35.618561 16.9722219 35.618561 16.9722219 26.0289484"></polygon>
                        <path d="M11.5411109,5.47977862 L8.14666651,5.47977862 M30.5499994,5.47977862 L27.155555,5.47977862" id="Stroke-129" stroke="#6D65CB" stroke-width="1.13999992" stroke-linecap="round" stroke-linejoin="round"></path>
                        <path d="M34.6233327,5.47977862 C34.6233327,6.61477777 33.7115849,7.5346956 32.5866661,7.5346956 C31.4617472,7.5346956 30.5499994,6.61477777 30.5499994,5.47977862 C30.5499994,4.34477947 31.4617472,3.42486164 32.5866661,3.42486164 C33.7115849,3.42486164 34.6233327,4.34477947 34.6233327,5.47977862 L34.6233327,5.47977862 Z" id="Fill-130" fill="#FFE2BA"></path>
                        <path d="M34.6233327,5.47977862 C34.6233327,6.61477777 33.7115849,7.5346956 32.5866661,7.5346956 C31.4617472,7.5346956 30.5499994,6.61477777 30.5499994,5.47977862 C30.5499994,4.34477947 31.4617472,3.42486164 32.5866661,3.42486164 C33.7115849,3.42486164 34.6233327,4.34477947 34.6233327,5.47977862 L34.6233327,5.47977862 Z" id="Stroke-131" stroke="#6D65CB" stroke-width="1.13999992" stroke-linecap="round" stroke-linejoin="round"></path>
                        <path d="M8.14666651,5.47977862 C8.14666651,6.61477777 7.23491875,7.5346956 6.10999988,7.5346956 C4.98508102,7.5346956 4.07333326,6.61477777 4.07333326,5.47977862 C4.07333326,4.34477947 4.98508102,3.42486164 6.10999988,3.42486164 C7.23491875,3.42486164 8.14666651,4.34477947 8.14666651,5.47977862 L8.14666651,5.47977862 Z" id="Fill-132" fill="#FFE2BA"></path>
                        <path d="M8.14666651,5.47977862 C8.14666651,6.61477777 7.23491875,7.5346956 6.10999988,7.5346956 C4.98508102,7.5346956 4.07333326,6.61477777 4.07333326,5.47977862 C4.07333326,4.34477947 4.98508102,3.42486164 6.10999988,3.42486164 C7.23491875,3.42486164 8.14666651,4.34477947 8.14666651,5.47977862 L8.14666651,5.47977862 Z" id="Stroke-133" stroke="#6D65CB" stroke-width="1.13999992" stroke-linecap="round" stroke-linejoin="round"></path>
                    </g>
                </g>
                <g id="Group-12-Copy-4" transform="translate(22.184700, 341.780115)">
                    <text id="USER-TESTING" font-family="Montserrat-Regular, Montserrat" font-size="14.8199989" font-weight="normal" letter-spacing="0.49019987" fill="#000000">
                        <tspan x="62.4026159" y="19.69599">USER TESTING</tspan>
                    </text>
                    <g id="Group-16">
                        <g id="Icicles">
                            <path d="M16.5375079,33.0367423 C7.40424145,33.0367423 0,25.6410688 0,16.5183711 C0,7.39567347 7.40424145,0 16.5375079,0 C25.6707743,0 33.0750157,7.39567347 33.0750157,16.5183711 C33.0750157,25.6410688 25.6707743,33.0367423 16.5375079,33.0367423 Z" id="Path" stroke="#6D65CB" stroke-width="1.13999992" stroke-linecap="round" stroke-linejoin="round"></path>
                            <path d="M3.03149627,6.99239738 L4.56207114,11.9615791 L6.80033729,6.14825165 C6.97654728,5.69029406 7.64317993,5.74953235 7.73556187,6.23084351 L10.2646601,19.3663662 L12.5599521,7.44522859 C12.6643095,6.90353993 13.4467047,6.9240455 13.5231194,7.46972135 L16.3737812,16.7019333 L19.0226961,7.70040894 C19.0871354,7.14675871 19.8820763,7.11713956 19.9870039,7.6650938 L22.6009637,13.136377 L24.769195,6.23084351 C24.8615769,5.74953235 25.5282096,5.69029406 25.7038493,6.14825165 L27.9426857,11.9615791 L29.6414869,6.44672153 C26.6179743,2.52731078 21.8745608,0 16.5375079,0 C10.9569543,0 6.02592571,2.76369437 3.03149627,6.99239738 Z" id="Fill-4206" fill-opacity="0.2" fill="#6D65CB"></path>
                            <path d="M3.03149627,6.99239738 L4.93518975,16.1768342 L6.80033729,6.14825165 C6.97654728,5.69029406 7.64317993,5.74953235 7.73556187,6.23084351 L10.2646601,19.3663662 L12.5599521,9.68318308 C12.6643095,9.14149442 16.5375079,16.1768342 16.5375079,16.1768342 L19.0226961,7.70040894 C19.0871354,7.14675871 19.8820763,7.11713956 19.9870039,7.6650938 L22.5274538,11.9615791 L24.769195,6.23084351 C24.8615769,5.74953235 25.5282096,5.69029406 25.7038493,6.14825165 L27.9426857,11.9615791 L29.6414869,6.44672153 C26.6179743,2.52731078 21.8745608,0 16.5375079,0 C10.9569543,0 6.02592571,2.76369437 3.03149627,6.99239738 Z" id="Stroke-4207" stroke="#6D65CB" stroke-width="1.13999992" stroke-linecap="round" stroke-linejoin="round"></path>
                        </g>
                        <path d="M23.9508735,22.5618166 C23.7539016,22.3868358 23.5351198,22.2337275 23.2938463,22.1127447 L20.1150344,20.049885 C19.6427109,19.8127039 18.7519075,19.8960932 18.7519075,19.3663662 L18.7519075,17.9282426 C18.8548236,17.8106774 19.6536159,17.3233284 19.7790236,17.1456136 C20.2772465,16.4402221 20.7856928,15.6637448 21.0467316,14.8496739 C21.5156473,14.7047679 22.1597247,14.2700499 22.1597247,13.7539932 L22.1597247,12.2194935 C22.1597247,12.0862074 22.0895237,11.9583893 21.990697,11.8394571 C21.6744516,11.4594206 21.4781613,10.9939443 21.4781613,10.4990767 L21.4781613,9.79710288 C21.4781613,9.79710288 21.3704743,5.69599005 16.7072172,5.69599005 C12.0439601,5.69599005 11.936273,9.79710288 11.936273,9.79710288 L11.936273,10.4990767 C11.936273,10.9939443 11.7399828,11.4594206 11.4237373,11.8394571 C11.3249106,11.9583893 11.2547096,12.0862074 11.2547096,12.2194935 L11.2547096,13.7539932 C11.2547096,14.1586364 11.7658822,14.5140662 12.0828092,14.7198053 C12.4651663,16.3896418 14.6625268,17.5912678 14.6625268,17.5912678 L14.6625268,18.9938484 C14.6625268,19.505804 13.4104948,19.9767484 12.962026,20.2214482 L9.75390689,22.0888216 C9.5208122,22.2159561 9.31225378,22.3758995 9.12414227,22.5536143 C9.23523711,22.6342696 9.35314759,22.7067226 9.46696868,22.7839602 L23.6182705,22.7839602 C23.7286838,22.7087731 23.8431864,22.6397377 23.9508735,22.5618166 Z" id="Stroke-3506" stroke="#6D65CB" stroke-width="1.13999992" stroke-linejoin="round" fill="#FFE2BA"></path>
                    </g>
                </g>
                <g id="Group-19" transform="translate(0.000000, 62.469476)">
                    <g id="Group-18" transform="translate(0.000000, 0.540601)">
                        <g id="Group-12-Copy-5" transform="translate(54.978832, 0.180200)" font-size="14.8199989" font-family="Montserrat-Regular, Montserrat" letter-spacing="0.49019987" fill="#000000" font-weight="normal">
                            <text id="LEARN-&amp;-REPEAT">
                                <tspan x="8.39421089" y="116.113567">LEARN &amp; REPEAT</tspan>
                            </text>
                            <text id="DEVELOP-&amp;-LAUNCH">
                                <tspan x="0" y="14">DEVELOP &amp; </tspan>
                                <tspan x="0" y="32">LAUNCH</tspan>
                            </text>
                        </g>
                        <g id="Lockpick" transform="translate(0.000000, 94.304882)">
                            <path d="M33.0629123,16.5484045 C33.0629123,25.6876889 25.6613803,33.0968091 16.5314561,33.0968091 C7.40153195,33.0968091 0,25.6876889 0,16.5484045 C0,7.40912015 7.40153195,0 16.5314561,0 C25.6613803,0 33.0629123,7.40912015 33.0629123,16.5484045 L33.0629123,16.5484045 Z" id="Fill-2766"></path>
                            <g id="Group-17" transform="translate(9.120803, 5.706346)" stroke="#6D65CB">
                                <path d="M1.71015064,3.99444247 L0.570050212,2.8531732" id="Line" stroke-width="1.13999992" stroke-linecap="round"></path>
                                <path d="M7.41065275,1.71190392 L7.41065275,0.570634639" id="Line" stroke-width="1.13999992" stroke-linecap="round"></path>
                                <path d="M13.1111549,3.99444247 L14.2512553,2.8531732" id="Line" stroke-width="1.13999992" stroke-linecap="round"></path>
                                <path d="M11.2512091,8.75803183 C11.2512091,6.42083826 9.16828678,4.5709236 6.75916235,4.96726828 C5.24514395,5.21618927 4.00731922,6.39282317 3.66827085,7.89048248 C3.35078578,9.29307418 3.82976615,10.5996797 4.71982545,11.4800885 C5.05336829,11.8093806 5.25386103,15.4733874 5.33460868,15.935866 L5.81083628,21.2256667 C5.87919651,21.6192558 6.22053884,21.9062957 6.61968914,21.9062957 L8.20160897,21.9062957 C8.60075927,21.9062957 8.9421016,21.6192558 9.01046183,21.2256667 L9.49265375,15.9023398 C9.57018984,15.4568539 9.76563585,11.8089214 10.0886264,11.4924886 C10.7992975,10.7962447 11.2512091,9.82903506 11.2512091,8.75803183 L11.2512091,8.75803183 Z" id="Stroke-2783" stroke-width="0.683999951" stroke-linejoin="round" fill="#FFE2BA"></path>
                                <path d="M7.41064906,8.58764496 L7.41064906,11.8024917 L7.83595059,13.1467569 C7.85430233,13.1651274 7.85430233,13.1954388 7.83595059,13.2138094 L6.98580632,14.0648253 C6.96699579,14.0836551 6.96699579,14.1139665 6.98580632,14.1327963 L7.83595059,14.9838122 C7.85430233,15.0021827 7.85430233,15.0324941 7.83595059,15.0508647 L6.98580632,15.9023398 C6.96699579,15.9207103 6.96699579,15.9510218 6.98580632,15.9693923 L7.83595059,16.8204082 C7.85430233,16.839238 7.85430233,16.8695494 7.83595059,16.8883792 L6.98580632,17.7393951 C6.96699579,17.7577656 6.96699579,17.788077 6.98580632,17.8064476 L7.83595059,18.6579227 C7.85430233,18.6762933 7.85430233,18.7066047 7.83595059,18.7249752 L6.98580632,19.5759911 C6.96699579,19.5948209 6.96699579,19.6251323 6.98580632,19.6439621 L7.86944251,20.5285042" id="Path" stroke-width="0.683999951" stroke-linecap="round" stroke-linejoin="round"></path>
                            </g>
                        </g>
                    </g>
                    <polyline id="Path" stroke="#6D65CB" stroke-width="1.13999992" stroke-linejoin="round" points="1.14010042 121.094677 1.14010042 113.581321 6.84060254 113.581321"></polyline>
                    <path d="M5.29006596,99.7909839 C8.19827973,96.3558109 12.4528153,94.2748491 17.1927144,94.2748491 C25.9570312,94.2748491 33.0629123,101.684397 33.0629123,110.823254 C33.0629123,119.96211 25.9570312,127.371658 17.1927144,127.371658 C9.32903133,127.371658 2.58155219,121.408716 1.32251649,113.581321" id="Stroke-1308" stroke="#6D65CB" stroke-width="1.13999992" stroke-linecap="round" stroke-linejoin="round"></path>
                </g>
                <g id="Group-27" transform="translate(3.597519, 62.469476)">
                    <g id="Group-26" transform="translate(13.885941, 37.251439) rotate(-180.000000) translate(-13.885941, -37.251439) translate(7.385941, 28.251439)" stroke="#6D65CB" stroke-width="0.839999936">
                        <path d="M6.38354594,17.2948884 C3.32963918,17.2948884 0.734435428,14.7146969 -1.58983937e-13,11.0596025 C0.698266824,11.3807988 1.26930526,11.7096426 1.27653898,11.714316 C1.34334452,11.7529786 1.41695827,11.7716725 1.49014651,11.7716725 C1.61822592,11.7716725 1.74417776,11.7134663 1.82757831,11.6055512 C1.95778529,11.4364558 1.94204131,11.1972581 1.79098419,11.0464318 C0.624227563,9.88145809 0.0327645006,8.12422571 0.0327645006,5.82359386 C0.0327645006,2.53600582 2.46712434,0.591833826 5.08445477,3.83693077e-13 C4.53298993,1.59875857 3.49261066,5.44971463 5.44443876,7.39856012 C5.52698828,7.48098349 5.63591961,7.52304491 5.74527645,7.52304491 C5.83761277,7.52304491 5.92994909,7.49287965 6.00739245,7.432974 C6.06526222,7.38793855 7.11670483,6.54968432 7.61498055,4.97216889 C7.9443276,6.04664681 8.29835442,7.58295055 8.29835442,9.22249595 C8.29835442,9.38606811 8.3928183,9.5356198 8.54089682,9.60614702 C8.5991921,9.6337631 8.66174251,9.64735871 8.72386741,9.64735871 C8.82003335,9.64735871 8.91492275,9.61506914 8.9919406,9.55218945 C9.1166159,9.45107211 11.6445886,7.36499596 12.3641311,4.13221521 C12.6692239,5.18205109 12.9789974,6.83561696 12.9789974,9.22249595 C12.9789974,13.8246094 10.1433788,17.2948884 6.38354594,17.2948884" id="Fill-2017" fill="#FFE2BA"></path>
                        <path d="M8.57749094,12.0839466 C8.57749094,13.4919418 7.07330251,14.7516599 7.07330251,14.7516599 C7.07330251,13.6402189 6.50949779,12.5283531 6.50949779,12.5283531 C6.50949779,13.3993217 5.1933861,13.4175908 5.1933861,13.4175908 C4.60575265,12.7879442 5.1933861,11.0464318 5.1933861,11.0464318 C3.7623859,11.1951337 3.04497099,11.9726326 3.04497099,13.2693137 C3.04497099,14.1865924 3.37006292,14.7966954 3.8772744,15.1960664 C3.8772744,15.1960664 3.42708166,14.9904328 2.97859096,14.8549016 C3.21134657,16.3070825 4.49086414,17.4193732 6.03930593,17.4193732 C7.75284676,17.4193732 9.14172117,16.1685772 9.14172117,14.4551057 C9.14172117,12.7416342 8.57749094,12.0839466 8.57749094,12.0839466 L8.57749094,12.0839466 Z" id="Stroke-2020" stroke-linejoin="round"></path>
                    </g>
                    <polygon id="Fill-2637" fill="#FFFFFF" points="7.7946244 25.2280577 19.7863542 25.2280577 19.7863542 30.0334021 7.7946244 30.0334021"></polygon>
                    <polygon id="Stroke-2638" stroke="#6D65CB" stroke-width="1.19999993" stroke-linecap="round" points="7.7946244 25.2280577 19.7863542 25.2280577 19.7863542 30.0334021 7.7946244 30.0334021"></polygon>
                    <path d="M13.7904893,0 L13.7904893,0 C12.2465541,0 10.7571813,0.572436643 9.60957271,1.60738768 C6.92762233,4.02507654 5.39627843,7.46990776 5.39627843,11.0841274 L5.39627843,27.0300619 L7.7946244,27.0300619 L7.7946244,25.2280577 L19.7863542,25.2280577 L19.7863542,27.0300619 L22.1847002,27.0300619 L22.1847002,11.0841274 C22.1847002,7.46990776 20.6533563,4.02507654 17.9714059,1.60738768 C16.8237974,0.572436643 15.3344245,0 13.7904893,0 L13.7904893,0 Z" id="Fill-2640"></path>
                    <path d="M13.7904893,0 L13.7904893,0 C12.2465541,0 10.7571813,0.572436643 9.60957271,1.60738768 C6.92762233,4.02507654 5.39627843,7.46990776 5.39627843,11.0841274 L5.39627843,27.0300619 L7.7946244,27.0300619 L7.7946244,25.2280577 L19.7863542,25.2280577 L19.7863542,27.0300619 L22.1847002,27.0300619 L22.1847002,11.0841274 C22.1847002,7.46990776 20.6533563,4.02507654 17.9714059,1.60738768 C16.8237974,0.572436643 15.3344245,0 13.7904893,0 L13.7904893,0 Z" id="Stroke-2641" stroke="#6D65CB" stroke-width="1.19999993" stroke-linecap="round"></path>
                    <path d="M5.39627843,10.2113567 L22.1847002,10.2113567 M17.3880083,25.2280577 L17.3880083,19.8220454" id="Stroke-2642" stroke="#6D65CB" stroke-width="1.19999993" stroke-linecap="round"></path>
                    <path d="M20.3859407,16.8187052 C20.3859407,18.4771496 19.0434666,19.8220454 17.3880083,19.8220454 C15.73255,19.8220454 14.3900758,18.4771496 14.3900758,16.8187052 C14.3900758,15.15966 15.73255,13.8153649 17.3880083,13.8153649 C19.0434666,13.8153649 20.3859407,15.15966 20.3859407,16.8187052 L20.3859407,16.8187052 Z" id="Fill-2643" fill="#FFE2BA"></path>
                    <path d="M20.3859407,16.8187052 C20.3859407,18.4771496 19.0434666,19.8220454 17.3880083,19.8220454 C15.73255,19.8220454 14.3900758,18.4771496 14.3900758,16.8187052 C14.3900758,15.15966 15.73255,13.8153649 17.3880083,13.8153649 C19.0434666,13.8153649 20.3859407,15.15966 20.3859407,16.8187052 L20.3859407,16.8187052 Z" id="Stroke-2644" stroke="#6D65CB" stroke-width="1.19999993" stroke-linecap="round"></path>
                    <path d="M17.3880083,13.8153649 L17.3880083,10.2113567 L17.3880083,13.8153649 Z M5.39627843,14.416033 L10.1929704,14.416033 L10.1929704,19.8220454 L5.39627843,19.8220454 L5.39627843,14.416033 Z M5.39627843,16.2180371 L10.1929704,16.2180371 L5.39627843,16.2180371 Z M5.39627843,18.0200412 L10.1929704,18.0200412 L5.39627843,18.0200412 Z" id="Stroke-2645" stroke="#6D65CB" stroke-width="1.19999993" stroke-linecap="round"></path>
                    <path d="M8.39421089,22.8253856 C8.39421089,23.1569543 8.12559614,23.4260536 7.7946244,23.4260536 C7.46365265,23.4260536 7.1950379,23.1569543 7.1950379,22.8253856 C7.1950379,22.4938168 7.46365265,22.2247175 7.7946244,22.2247175 C8.12559614,22.2247175 8.39421089,22.4938168 8.39421089,22.8253856" id="Fill-2646" fill="#6D65CB"></path>
                    <path d="M10.7925569,22.8253856 C10.7925569,23.1569543 10.5239421,23.4260536 10.1929704,23.4260536 C9.86199862,23.4260536 9.59338387,23.1569543 9.59338387,22.8253856 C9.59338387,22.4938168 9.86199862,22.2247175 10.1929704,22.2247175 C10.5239421,22.2247175 10.7925569,22.4938168 10.7925569,22.8253856" id="Fill-2647" fill="#6D65CB"></path>
                    <path d="M13.1909028,22.8253856 C13.1909028,23.1569543 12.9222881,23.4260536 12.5913163,23.4260536 C12.2603446,23.4260536 11.9917298,23.1569543 11.9917298,22.8253856 C11.9917298,22.4938168 12.2603446,22.2247175 12.5913163,22.2247175 C12.9222881,22.2247175 13.1909028,22.4938168 13.1909028,22.8253856" id="Fill-2648" fill="#6D65CB"></path>
                    <path d="M15.5892488,22.8253856 C15.5892488,23.1569543 15.320634,23.4260536 14.9896623,23.4260536 C14.6586906,23.4260536 14.3900758,23.1569543 14.3900758,22.8253856 C14.3900758,22.4938168 14.6586906,22.2247175 14.9896623,22.2247175 C15.320634,22.2247175 15.5892488,22.4938168 15.5892488,22.8253856" id="Fill-2649" fill="#6D65CB"></path>
                    <path d="M20.3859407,22.8253856 C20.3859407,23.1569543 20.117326,23.4260536 19.7863542,23.4260536 C19.4553825,23.4260536 19.1867677,23.1569543 19.1867677,22.8253856 C19.1867677,22.4938168 19.4553825,22.2247175 19.7863542,22.2247175 C20.117326,22.2247175 20.3859407,22.4938168 20.3859407,22.8253856" id="Fill-2650" fill="#6D65CB"></path>
                    <polygon id="Fill-2651" fill="#FFFFFF" points="5.39627843 25.2280577 2.39834597 24.6273897 2.39834597 23.4260536 5.39627843 22.8253856"></polygon>
                    <polygon id="Stroke-2652" stroke="#6D65CB" stroke-width="1.19999993" stroke-linecap="round" points="5.23929377 26.1086218 0.0439150263 25.0676717 0.0439150263 22.9857716 5.23929377 21.9448215"></polygon>
                    <polygon id="Fill-2653" fill="#FFFFFF" points="22.1847002 22.8253856 25.1826327 23.4260536 25.1826327 24.6273897 22.1847002 25.2280577"></polygon>
                    <polygon id="Stroke-2654" stroke="#6D65CB" stroke-width="1.19999993" stroke-linecap="round" points="22.3416849 21.9448215 27.5370636 22.9857716 27.5370636 25.0676717 22.3416849 26.1086218"></polygon>
                </g>
            </g>
        </g>
    </g>
</svg>