<?xml version="1.0" encoding="UTF-8"?>
<svg width="376px" height="146px" viewBox="0 0 376 146" version="1.1" xmlns="http://www.w3.org/2000/svg" xmlns:xlink="http://www.w3.org/1999/xlink">
    <!-- Generator: Sketch 42 (36781) - http://www.bohemiancoding.com/sketch -->
    <title>Duplicate-Ionic</title>
    <desc>Created with Sketch.</desc>
    <defs></defs>
    <g id="Case-Study" stroke="none" stroke-width="1" fill="none" fill-rule="evenodd">
        <g id="casestudy_timeinc_large_v2" transform="translate(-122.000000, -13341.000000)" fill="#333333">
            <g id="Group-44" transform="translate(122.000000, 13280.000000)">
                <path d="M20.845,114.115 L26.71,114.115 C37.42,114.115 40.82,108.08 40.82,95.245 L40.82,90.91 C40.82,79.69 37.845,74.165 28.41,74.165 L20.845,74.165 L20.845,114.115 Z M0.53,66.685 L29.26,66.685 C45.24,66.685 55.44,75.525 55.44,93.375 L55.44,93.545 C55.44,113.18 44.22,121 27.645,121 L0.53,121 L0.53,114.455 L2.485,114.455 C5.46,114.455 6.905,113.775 6.905,109.95 L6.905,78.075 C6.905,74.25 5.46,73.57 2.485,73.57 L0.53,73.57 L0.53,66.685 Z M90.46,102.64 C90.46,110.12 87.4,114.115 82.555,114.115 C78.56,114.115 76.605,111.65 76.605,106.55 L76.605,79.35 L58.755,79.35 L58.755,86.745 L58.925,86.745 C61.9,86.745 62.92,87.595 62.92,91.59 L62.92,106.465 C62.92,117.175 68.02,122.02 76.775,122.02 C84.17,122.02 89.1,118.195 91.055,111.905 L91.055,112.33 C91.055,117.09 92.84,121 92.84,121 L109.33,121 L109.33,114.71 L108.225,114.71 C104.655,114.71 104.145,113.775 104.145,111.31 L104.145,79.35 L85.7,79.35 L85.7,86.745 L86.04,86.745 C89.015,86.745 90.46,87.425 90.46,91.59 L90.46,102.64 Z M138.91,114.285 C143.925,114.285 146.985,110.545 146.985,100.515 L146.985,97.88 C146.985,90.4 144.18,86.49 138.91,86.49 C133.895,86.49 130.24,91.165 130.24,98.645 L130.24,100.175 C130.24,109.78 133.98,114.285 138.91,114.285 Z M111.88,79.35 L128.115,79.35 C128.115,79.35 129.985,83.855 129.985,89.295 L129.985,89.72 C131.09,83.855 135.935,78.33 143.925,78.33 C154.89,78.33 160.925,87.085 160.925,99.41 L160.925,99.495 C160.925,113.945 153.615,121.935 143.33,121.935 C136.105,121.935 131.685,118.11 130.24,112.415 L130.24,124.06 C130.24,126.61 130.835,127.12 134.66,127.12 L136.785,127.12 L136.785,133.41 L111.88,133.41 L111.88,127.12 L112.985,127.12 C115.96,127.12 116.555,126.44 116.555,123.465 L116.555,91.59 C116.555,87.425 115.11,86.745 112.135,86.745 L111.88,86.745 L111.88,79.35 Z M187.785,121 L187.785,114.71 L186.68,114.71 C183.195,114.71 182.685,113.86 182.685,111.14 L182.685,63.795 L164.24,63.795 L164.24,70.68 L164.58,70.68 C167.555,70.68 169,71.36 169,75.525 L169,111.055 C169,114.03 168.405,114.71 165.43,114.71 L164.24,114.71 L164.24,121 L187.785,121 Z M201.385,76.12 C205.38,76.12 208.695,72.89 208.695,68.895 C208.695,64.9 205.38,61.585 201.385,61.585 C197.39,61.585 194.075,64.9 194.075,68.895 C194.075,72.89 197.39,76.12 201.385,76.12 Z M208.865,79.35 L190.335,79.35 L190.335,86.745 L190.76,86.745 C193.735,86.745 195.18,87.425 195.18,91.59 L195.18,111.055 C195.18,114.03 194.585,114.71 191.61,114.71 L190.335,114.71 L190.335,121 L213.965,121 L213.965,114.71 L212.69,114.71 C209.46,114.71 208.865,114.115 208.865,111.055 L208.865,79.35 Z M253.915,116.155 L253.915,110.63 C251.025,112.33 246.945,113.86 242.865,113.86 C234.28,113.86 230.625,109.695 230.625,100.005 L230.625,98.22 C230.625,88.19 234.62,84.79 239.465,84.79 C241.08,84.79 241.93,85.045 242.695,85.47 L242.695,87.935 C242.695,92.95 245.245,94.65 249.07,94.65 C252.555,94.65 254.85,92.185 254.85,89.125 C254.85,81.9 248.05,78.33 238.785,78.33 C226.8,78.33 216.855,85.81 216.855,100.005 L216.855,100.09 C216.855,113.945 225.27,121.935 238.615,121.935 C246.605,121.935 251.79,118.96 253.915,116.155 Z M293.185,121.935 C287.83,121.935 283.58,119.555 283.58,114.115 L283.58,113.86 C281.88,119.045 277.63,122.105 271.17,122.105 C264.03,122.105 258.675,117.855 258.675,110.715 L258.675,110.63 C258.675,105.02 261.905,101.705 269.385,99.665 C276.185,97.71 283.495,96.35 283.495,90.825 C283.495,87.255 281.71,84.62 276.78,84.62 C275.08,84.62 273.89,84.875 272.87,85.385 L272.87,87.85 C272.87,92.78 270.15,94.65 266.41,94.65 C263.01,94.65 260.63,92.185 260.63,89.04 C260.63,81.9 269.47,78.33 278.14,78.33 C292.08,78.33 296.925,84.62 296.925,95.5 L296.925,109.61 C296.925,113.265 298.03,114.54 300.41,114.54 C301.09,114.54 301.77,114.455 302.45,114.285 L302.45,118.62 C301.09,120.32 297.945,121.935 293.185,121.935 Z M276.95,115.305 C280.435,115.305 283.155,112.5 283.24,106.975 L283.24,98.22 C281.37,100.515 278.905,101.365 276.95,102.47 C274.4,103.83 272.53,105.19 272.53,109.015 L272.53,109.44 C272.53,113.265 274.315,115.305 276.95,115.305 Z M321.32,122.105 C313.84,122.105 307.55,118.96 307.55,108.76 L307.55,86.065 L302.28,86.065 L302.28,80.455 C309.93,79.69 312.65,76.545 314.605,68.385 L321.235,68.385 L321.235,79.35 L333.135,79.35 L333.135,86.065 L321.235,86.065 L321.235,107.4 C321.235,113.435 323.445,114.71 328.035,114.71 C330.075,114.71 331.69,114.285 333.305,113.775 L333.305,117.77 C331.69,119.895 328.035,122.105 321.32,122.105 Z M374.7,102.3 L349.795,102.3 C350.22,110.885 354.385,113.86 362.8,113.86 C367.305,113.86 371.385,112.67 374.02,111.395 L374.02,116.325 C371.98,118.96 366.37,121.935 358.21,121.935 C344.27,121.935 335.855,114.285 335.855,100.175 L335.855,100.09 C335.855,86.32 345.12,78.33 357.02,78.33 C369.515,78.33 375.975,85.385 375.975,95.755 C375.975,98.9 375.38,100.6 374.7,102.3 Z M357.275,84.535 C352.6,84.535 350.05,87.85 349.795,96.52 L363.65,96.52 L363.65,95.84 C363.65,87.765 361.525,84.535 357.275,84.535 Z M28.155,206 L28.155,199.455 L25.775,199.455 C22.8,199.455 21.355,198.775 21.355,194.95 L21.355,163.075 C21.355,159.25 22.8,158.57 25.775,158.57 L28.155,158.57 L28.155,151.685 L0.53,151.685 L0.53,158.57 L2.995,158.57 C5.97,158.57 7.415,159.25 7.415,163.075 L7.415,194.95 C7.415,198.775 5.97,199.455 2.995,199.455 L0.53,199.455 L0.53,206 L28.155,206 Z M52.89,206.935 C41.67,206.935 31.045,200.56 31.045,184.75 L31.045,184.58 C31.045,170.98 40.48,163.33 52.89,163.33 C65.385,163.33 74.82,170.98 74.82,184.495 L74.82,184.665 C74.82,200.56 64.195,206.935 52.89,206.935 Z M52.89,200.645 C57.395,200.645 60.88,197.84 60.88,186.025 L60.88,182.965 C60.88,173.615 57.735,169.96 52.89,169.96 C48.13,169.96 44.985,173.615 44.985,182.965 L44.985,186.025 C44.985,197.84 48.47,200.645 52.89,200.645 Z M124.63,178.375 C124.63,168.26 119.445,163.33 111.2,163.33 C103.295,163.33 98.45,167.835 96.58,174.55 L96.58,173.87 C96.58,168.515 94.71,164.35 94.71,164.35 L78.475,164.35 L78.475,171.745 L78.73,171.745 C81.705,171.745 83.15,172.425 83.15,176.59 L83.15,196.055 C83.15,199.03 82.555,199.71 79.58,199.71 L78.475,199.71 L78.475,206 L102.105,206 L102.105,199.71 L101.255,199.71 C97.43,199.71 96.835,199.2 96.835,196.65 L96.835,183.135 C96.835,175.995 100.15,171.915 105.08,171.915 C108.99,171.915 110.945,174.125 110.945,178.8 L110.945,196.65 C110.945,199.37 110.01,199.71 106.525,199.71 L105.675,199.71 L105.675,206 L129.305,206 L129.305,199.71 L128.71,199.71 C125.14,199.71 124.63,198.775 124.63,196.31 L124.63,178.375 Z M142.905,161.12 C146.9,161.12 150.215,157.89 150.215,153.895 C150.215,149.9 146.9,146.585 142.905,146.585 C138.91,146.585 135.595,149.9 135.595,153.895 C135.595,157.89 138.91,161.12 142.905,161.12 Z M150.385,164.35 L131.855,164.35 L131.855,171.745 L132.28,171.745 C135.255,171.745 136.7,172.425 136.7,176.59 L136.7,196.055 C136.7,199.03 136.105,199.71 133.13,199.71 L131.855,199.71 L131.855,206 L155.485,206 L155.485,199.71 L154.21,199.71 C150.98,199.71 150.385,199.115 150.385,196.055 L150.385,164.35 Z M195.435,201.155 L195.435,195.63 C192.545,197.33 188.465,198.86 184.385,198.86 C175.8,198.86 172.145,194.695 172.145,185.005 L172.145,183.22 C172.145,173.19 176.14,169.79 180.985,169.79 C182.6,169.79 183.45,170.045 184.215,170.47 L184.215,172.935 C184.215,177.95 186.765,179.65 190.59,179.65 C194.075,179.65 196.37,177.185 196.37,174.125 C196.37,166.9 189.57,163.33 180.305,163.33 C168.32,163.33 158.375,170.81 158.375,185.005 L158.375,185.09 C158.375,198.945 166.79,206.935 180.135,206.935 C188.125,206.935 193.31,203.96 195.435,201.155 Z" id="Duplicate-Ionic"></path>
            </g>
        </g>
    </g>
</svg>