<?xml version="1.0" encoding="UTF-8"?>
<svg width="242px" height="144px" viewBox="0 0 242 144" version="1.1" xmlns="http://www.w3.org/2000/svg" xmlns:xlink="http://www.w3.org/1999/xlink">
    <!-- Generator: Sketch 42 (36781) - http://www.bohemiancoding.com/sketch -->
    <title>Franklin-Gothic</title>
    <desc>Created with Sketch.</desc>
    <defs></defs>
    <g id="Case-Study" stroke="none" stroke-width="1" fill="none" fill-rule="evenodd">
        <g id="casestudy_timeinc_large_v2" transform="translate(-124.000000, -13856.000000)" fill="#333333">
            <g id="Group-45" transform="translate(124.000000, 13816.000000)">
                <path d="M2.44,40.305 L2.44,97 L11.79,97 L11.79,72.265 L29.47,72.265 L29.47,64.785 L11.79,64.785 L11.79,47.785 L33.89,47.785 L33.89,40.305 L2.44,40.305 Z M36.61,55.095 L36.61,97 L45.28,97 L45.28,75.665 C45.28,69.205 47.32,62.405 56.245,63.34 L56.245,54.33 C55.82,54.245 55.31,54.16 54.715,54.16 C47.745,54.16 45.11,61.895 44.26,64.445 L44.26,55.095 L36.61,55.095 Z M67.55,66.995 L59.22,65.89 C61.175,55.095 71.12,54.075 75.03,54.075 C81.065,54.075 84.635,56.285 86.59,58.58 C89.225,61.47 89.225,66.655 89.225,71.16 L89.225,85.355 C89.225,88.925 89.225,94.11 89.905,97 L81.83,97 C81.405,94.96 81.235,93.94 81.235,90.03 C79.62,93.005 76.9,98.02 69.42,98.02 C62.62,98.02 57.69,93.685 57.69,85.95 C57.69,79.235 61.345,74.56 66.36,72.86 C69.93,71.67 74.52,70.99 80.555,71.16 L80.555,69.46 C80.555,66.4 80.555,60.45 74.35,60.45 C68.825,60.45 67.89,65.21 67.55,66.995 Z M80.555,78.64 L80.555,76.515 C79.195,76.43 78.6,76.43 78.005,76.43 C67.975,76.43 66.7,81.445 66.7,85.355 C66.7,90.37 69.42,91.645 72.31,91.645 C75.965,91.645 80.555,87.905 80.555,78.64 Z M98.915,97 L107.585,97 L107.585,73.54 C107.585,69.205 107.585,61.045 114.385,61.045 C119.4,61.045 119.4,65.04 119.4,70.48 L119.4,97 L128.07,97 L128.07,69.97 C128.07,65.805 127.985,61.895 126.625,59.26 C124.33,54.755 119.995,54.075 117.275,54.075 C110.05,54.075 107.925,59.26 106.905,61.555 L106.905,55.095 L98.915,55.095 L98.915,97 Z M138.015,40.305 L138.015,97 L146.685,97 L146.685,83.655 L152.295,76.005 L160.625,97 L169.975,97 L157.905,69.545 L168.785,55.095 L160.2,55.095 L146.685,73.795 L146.685,40.305 L138.015,40.305 Z M174.225,40.305 L174.225,97 L182.895,97 L182.895,40.305 L174.225,40.305 Z M193.095,55.095 L193.095,97 L201.765,97 L201.765,55.095 L193.095,55.095 Z M201.935,49.4 L201.935,40.22 L192.84,40.22 L192.84,49.4 L201.935,49.4 Z M211.965,97 L220.635,97 L220.635,73.54 C220.635,69.205 220.635,61.045 227.435,61.045 C232.45,61.045 232.45,65.04 232.45,70.48 L232.45,97 L241.12,97 L241.12,69.97 C241.12,65.805 241.035,61.895 239.675,59.26 C237.38,54.755 233.045,54.075 230.325,54.075 C223.1,54.075 220.975,59.26 219.955,61.555 L219.955,55.095 L211.965,55.095 L211.965,97 Z M21.735,152.93 L21.735,160.41 L31.85,160.41 C31.85,164.15 31.85,175.285 22.075,175.285 C12.045,175.285 10.515,163.215 10.515,153.61 C10.515,141.2 13.15,132.02 21.905,132.02 C29.215,132.02 30.66,138.395 31.85,143.665 L40.35,141.54 C38.65,132.785 34.91,124.285 21.82,124.285 C2.95,124.285 0.57,144.09 0.57,154.46 C0.57,166.445 4.735,183.02 20.8,183.02 C29.725,183.02 32.87,177.835 34.4,175.2 L35.59,182.425 L40.605,182.425 L40.605,152.93 L21.735,152.93 Z M64.405,139.075 C77.495,139.075 80.81,150.38 80.81,160.58 C80.81,170.355 78.515,183.02 64.235,183.02 C51.23,183.02 47.83,171.885 47.83,161.005 C47.83,150.89 50.635,139.075 64.405,139.075 Z M64.32,145.62 C59.05,145.62 57.01,150.89 57.01,161.09 C57.01,172.055 59.475,176.475 64.32,176.475 C69.165,176.475 71.63,172.225 71.63,161.005 C71.63,150.21 69.25,145.62 64.32,145.62 Z M105.715,140.095 L97.725,140.095 L97.725,128.45 L89.905,129.13 L89.48,140.095 L83.785,140.095 L83.785,147.065 L89.225,147.065 L89.225,166.19 C89.225,175.37 89.225,183.02 100.615,183.02 C103.42,183.02 105.375,182.595 107.075,182.255 L107.075,175.455 C106.055,175.54 105.035,175.71 103.505,175.71 C97.725,175.71 97.725,172.905 97.725,165.595 L97.725,147.065 L105.715,147.065 L105.715,140.095 Z M112.175,125.305 L112.175,182 L120.845,182 L120.845,158.03 C120.845,153.1 121.525,146.045 127.475,146.045 C132.66,146.045 132.66,150.805 132.66,155.565 L132.66,182 L141.33,182 L141.33,155.565 C141.33,151.315 141.33,146.895 139.885,144.09 C137.59,139.67 133.17,139.075 130.79,139.075 C124.075,139.075 122.12,143.07 120.845,145.705 L120.845,125.305 L112.175,125.305 Z M151.275,140.095 L151.275,182 L159.945,182 L159.945,140.095 L151.275,140.095 Z M160.115,134.4 L160.115,125.22 L151.02,125.22 L151.02,134.4 L160.115,134.4 Z M199.13,154.205 C198.535,149.7 196.92,139.075 184.425,139.075 C170.74,139.075 168.02,151.4 168.02,161.175 C168.02,170.015 170.23,183.02 183.83,183.02 C197.005,183.02 198.45,172.735 199.13,167.55 L190.8,166.785 C190.46,170.355 189.865,175.88 184.51,175.88 C177.115,175.88 177.115,165.68 177.115,161.94 C177.115,151.825 178.56,145.96 184.51,145.96 C189.355,145.96 190.205,150.125 190.8,155.055 L199.13,154.205 Z" id="Franklin-Gothic"></path>
            </g>
        </g>
    </g>
</svg>