<?xml version="1.0" encoding="UTF-8"?>
<svg width="368px" height="148px" viewBox="0 0 368 148" version="1.1" xmlns="http://www.w3.org/2000/svg" xmlns:xlink="http://www.w3.org/1999/xlink">
    <!-- Generator: Sketch 42 (36781) - http://www.bohemiancoding.com/sketch -->
    <title>Helvetica-Neue</title>
    <desc>Created with Sketch.</desc>
    <defs></defs>
    <g id="Case-Study" stroke="none" stroke-width="1" fill="none" fill-rule="evenodd">
        <g id="casestudy_timeinc_large_v2" transform="translate(-126.000000, -14297.000000)" fill="#333333">
            <g id="Group-46" transform="translate(126.000000, 14194.000000)">
                <path d="M0.865,103.31 L0.865,164 L14.21,164 L14.21,137.82 L38.775,137.82 L38.775,164 L52.12,164 L52.12,103.31 L38.775,103.31 L38.775,126.6 L14.21,126.6 L14.21,103.31 L0.865,103.31 Z M92.155,137.31 C91.5883305,134.249985 90.5825072,131.926675 89.1375,130.34 C87.6924928,128.753325 85.4966814,127.96 82.55,127.96 C80.6233237,127.96 79.0225064,128.28583 77.7475,128.9375 C76.4724936,129.58917 75.4525038,130.396662 74.6875,131.36 C73.9224962,132.323338 73.3841682,133.343328 73.0725,134.42 C72.7608318,135.496672 72.5766669,136.459996 72.52,137.31 L92.155,137.31 Z M72.52,144.96 C72.6900008,148.87002 73.6816576,151.703325 75.495,153.46 C77.3083424,155.216675 79.914983,156.095 83.315,156.095 C85.7516788,156.095 87.8483245,155.485839 89.605,154.2675 C91.3616754,153.049161 92.4383313,151.760007 92.835,150.4 L103.46,150.4 C101.759991,155.670026 99.1533509,159.438322 95.64,161.705 C92.1266491,163.971678 87.8766916,165.105 82.89,165.105 C79.433316,165.105 76.3166805,164.552506 73.54,163.4475 C70.7633194,162.342494 68.4116763,160.77001 66.485,158.73 C64.5583237,156.68999 63.0708386,154.253347 62.0225,151.42 C60.9741614,148.586652 60.45,145.470017 60.45,142.07 C60.45,138.783317 60.9883279,135.723347 62.065,132.89 C63.141672,130.056652 64.6716567,127.605844 66.655,125.5375 C68.6383432,123.469156 71.0041529,121.840006 73.7525,120.65 C76.5008471,119.459994 79.5466499,118.865 82.89,118.865 C86.6300187,118.865 89.8883194,119.587493 92.665,121.0325 C95.4416805,122.477507 97.7224911,124.418321 99.5075,126.855 C101.292509,129.291679 102.581663,132.068318 103.375,135.185 C104.168337,138.301682 104.451668,141.559983 104.225,144.96 L72.52,144.96 Z M111.705,103.31 L111.705,164 L123.775,164 L123.775,103.31 L111.705,103.31 Z M157.605,164 L172.48,120.055 L160.495,120.055 L151.23,150.06 L151.06,150.06 L141.795,120.055 L129.13,120.055 L144.175,164 L157.605,164 Z M207.075,137.31 C206.50833,134.249985 205.502507,131.926675 204.0575,130.34 C202.612493,128.753325 200.416681,127.96 197.47,127.96 C195.543324,127.96 193.942506,128.28583 192.6675,128.9375 C191.392494,129.58917 190.372504,130.396662 189.6075,131.36 C188.842496,132.323338 188.304168,133.343328 187.9925,134.42 C187.680832,135.496672 187.496667,136.459996 187.44,137.31 L207.075,137.31 Z M187.44,144.96 C187.610001,148.87002 188.601658,151.703325 190.415,153.46 C192.228342,155.216675 194.834983,156.095 198.235,156.095 C200.671679,156.095 202.768325,155.485839 204.525,154.2675 C206.281675,153.049161 207.358331,151.760007 207.755,150.4 L218.38,150.4 C216.679991,155.670026 214.073351,159.438322 210.56,161.705 C207.046649,163.971678 202.796692,165.105 197.81,165.105 C194.353316,165.105 191.236681,164.552506 188.46,163.4475 C185.683319,162.342494 183.331676,160.77001 181.405,158.73 C179.478324,156.68999 177.990839,154.253347 176.9425,151.42 C175.894161,148.586652 175.37,145.470017 175.37,142.07 C175.37,138.783317 175.908328,135.723347 176.985,132.89 C178.061672,130.056652 179.591657,127.605844 181.575,125.5375 C183.558343,123.469156 185.924153,121.840006 188.6725,120.65 C191.420847,119.459994 194.46665,118.865 197.81,118.865 C201.550019,118.865 204.808319,119.587493 207.585,121.0325 C210.361681,122.477507 212.642491,124.418321 214.4275,126.855 C216.212509,129.291679 217.501663,132.068318 218.295,135.185 C219.088337,138.301682 219.371668,141.559983 219.145,144.96 L187.44,144.96 Z M241.585,120.055 L241.585,106.88 L229.515,106.88 L229.515,120.055 L222.205,120.055 L222.205,128.13 L229.515,128.13 L229.515,154.055 C229.515,156.265011 229.88333,158.049993 230.62,159.41 C231.35667,160.770007 232.362494,161.81833 233.6375,162.555 C234.912506,163.29167 236.385825,163.787499 238.0575,164.0425 C239.729175,164.297501 241.499991,164.425 243.37,164.425 C244.560006,164.425 245.778327,164.396667 247.025,164.34 C248.271673,164.283333 249.404995,164.170001 250.425,164 L250.425,154.65 C249.85833,154.763334 249.263336,154.848333 248.64,154.905 C248.016664,154.961667 247.365003,154.99 246.685,154.99 C244.64499,154.99 243.285003,154.650003 242.605,153.97 C241.924997,153.289997 241.585,151.93001 241.585,149.89 L241.585,128.13 L250.425,128.13 L250.425,120.055 L241.585,120.055 Z M268.615,113.255 L268.615,103.31 L256.545,103.31 L256.545,113.255 L268.615,113.255 Z M256.545,120.055 L256.545,164 L268.615,164 L268.615,120.055 L256.545,120.055 Z M308.055,135.525 L319.87,135.525 C319.699999,132.691652 319.020006,130.240844 317.83,128.1725 C316.639994,126.104156 315.095843,124.37584 313.1975,122.9875 C311.299157,121.59916 309.145845,120.565003 306.7375,119.885 C304.329155,119.204997 301.82168,118.865 299.215,118.865 C295.644982,118.865 292.471681,119.459994 289.695,120.65 C286.918319,121.840006 284.566676,123.497489 282.64,125.6225 C280.713324,127.747511 279.254172,130.269152 278.2625,133.1875 C277.270828,136.105848 276.775,139.264983 276.775,142.665 C276.775,145.951683 277.313328,148.969153 278.39,151.7175 C279.466672,154.465847 280.968324,156.831657 282.895,158.815 C284.821676,160.798343 287.159153,162.342494 289.9075,163.4475 C292.655847,164.552506 295.673317,165.105 298.96,165.105 C304.796696,165.105 309.584981,163.575015 313.325,160.515 C317.065019,157.454985 319.331663,153.006696 320.125,147.17 L308.48,147.17 C308.083331,149.890014 307.105841,152.057492 305.5475,153.6725 C303.989159,155.287508 301.765014,156.095 298.875,156.095 C297.004991,156.095 295.41834,155.670004 294.115,154.82 C292.81166,153.969996 291.777504,152.879173 291.0125,151.5475 C290.247496,150.215827 289.695002,148.728342 289.355,147.085 C289.014998,145.441658 288.845,143.826675 288.845,142.24 C288.845,140.596658 289.014998,138.939175 289.355,137.2675 C289.695002,135.595825 290.275829,134.06584 291.0975,132.6775 C291.919171,131.28916 292.98166,130.155838 294.285,129.2775 C295.58834,128.399162 297.203324,127.96 299.13,127.96 C304.286692,127.96 307.261663,130.481641 308.055,135.525 Z M326.415,133.57 C326.585001,130.736652 327.293327,128.385009 328.54,126.515 C329.786673,124.644991 331.373324,123.143339 333.3,122.01 C335.226676,120.876661 337.394155,120.069169 339.8025,119.5875 C342.210845,119.105831 344.633321,118.865 347.07,118.865 C349.280011,118.865 351.518322,119.020832 353.785,119.3325 C356.051678,119.644168 358.119991,120.253329 359.99,121.16 C361.860009,122.066671 363.389994,123.327492 364.58,124.9425 C365.770006,126.557508 366.365,128.696653 366.365,131.36 L366.365,154.225 C366.365,156.208343 366.478332,158.106658 366.705,159.92 C366.931668,161.733342 367.32833,163.093329 367.895,164 L355.655,164 C355.428332,163.319997 355.244167,162.625837 355.1025,161.9175 C354.960833,161.209163 354.861667,160.48667 354.805,159.75 C352.878324,161.733343 350.61168,163.121663 348.005,163.915 C345.39832,164.708337 342.735014,165.105 340.015,165.105 C337.918323,165.105 335.963342,164.850003 334.15,164.34 C332.336658,163.829997 330.750007,163.036672 329.39,161.96 C328.029993,160.883328 326.967504,159.523342 326.2025,157.88 C325.437496,156.236658 325.055,154.281678 325.055,152.015 C325.055,149.521654 325.494162,147.467508 326.3725,145.8525 C327.250838,144.237492 328.38416,142.948338 329.7725,141.985 C331.16084,141.021662 332.747491,140.299169 334.5325,139.8175 C336.317509,139.335831 338.116658,138.953335 339.93,138.67 C341.743342,138.386665 343.528325,138.160001 345.285,137.99 C347.041675,137.819999 348.599993,137.565002 349.96,137.225 C351.320007,136.884998 352.396663,136.38917 353.19,135.7375 C353.983337,135.08583 354.351667,134.136673 354.295,132.89 C354.295,131.58666 354.082502,130.552504 353.6575,129.7875 C353.232498,129.022496 352.665837,128.427502 351.9575,128.0025 C351.249163,127.577498 350.427505,127.294167 349.4925,127.1525 C348.557495,127.010833 347.551672,126.94 346.475,126.94 C344.094988,126.94 342.225007,127.449995 340.865,128.47 C339.504993,129.490005 338.711668,131.189988 338.485,133.57 L326.415,133.57 Z M354.295,142.495 C353.784997,142.948336 353.147504,143.302499 352.3825,143.5575 C351.617496,143.812501 350.795838,144.024999 349.9175,144.195 C349.039162,144.365001 348.118338,144.506666 347.155,144.62 C346.191662,144.733334 345.228338,144.874999 344.265,145.045 C343.358329,145.215001 342.465838,145.441665 341.5875,145.725 C340.709162,146.008335 339.94417,146.390831 339.2925,146.8725 C338.64083,147.354169 338.116669,147.96333 337.72,148.7 C337.323331,149.43667 337.125,150.371661 337.125,151.505 C337.125,152.581672 337.323331,153.48833 337.72,154.225 C338.116669,154.96167 338.654997,155.542498 339.335,155.9675 C340.015003,156.392502 340.808329,156.689999 341.715,156.86 C342.621671,157.030001 343.556662,157.115 344.52,157.115 C346.900012,157.115 348.74166,156.718337 350.045,155.925 C351.34834,155.131663 352.311664,154.182506 352.935,153.0775 C353.558336,151.972494 353.940833,150.853339 354.0825,149.72 C354.224167,148.586661 354.295,147.680003 354.295,147 L354.295,142.495 Z M0.865,188.31 L0.865,249 L13.36,249 L13.36,208.37 L13.53,208.37 L38.775,249 L52.12,249 L52.12,188.31 L39.625,188.31 L39.625,229.025 L39.455,229.025 L14.125,188.31 L0.865,188.31 Z M92.155,222.31 C91.5883305,219.249985 90.5825072,216.926675 89.1375,215.34 C87.6924928,213.753325 85.4966814,212.96 82.55,212.96 C80.6233237,212.96 79.0225064,213.28583 77.7475,213.9375 C76.4724936,214.58917 75.4525038,215.396662 74.6875,216.36 C73.9224962,217.323338 73.3841682,218.343328 73.0725,219.42 C72.7608318,220.496672 72.5766669,221.459996 72.52,222.31 L92.155,222.31 Z M72.52,229.96 C72.6900008,233.87002 73.6816576,236.703325 75.495,238.46 C77.3083424,240.216675 79.914983,241.095 83.315,241.095 C85.7516788,241.095 87.8483245,240.485839 89.605,239.2675 C91.3616754,238.049161 92.4383313,236.760007 92.835,235.4 L103.46,235.4 C101.759991,240.670026 99.1533509,244.438322 95.64,246.705 C92.1266491,248.971678 87.8766916,250.105 82.89,250.105 C79.433316,250.105 76.3166805,249.552506 73.54,248.4475 C70.7633194,247.342494 68.4116763,245.77001 66.485,243.73 C64.5583237,241.68999 63.0708386,239.253347 62.0225,236.42 C60.9741614,233.586652 60.45,230.470017 60.45,227.07 C60.45,223.783317 60.9883279,220.723347 62.065,217.89 C63.141672,215.056652 64.6716567,212.605844 66.655,210.5375 C68.6383432,208.469156 71.0041529,206.840006 73.7525,205.65 C76.5008471,204.459994 79.5466499,203.865 82.89,203.865 C86.6300187,203.865 89.8883194,204.587493 92.665,206.0325 C95.4416805,207.477507 97.7224911,209.418321 99.5075,211.855 C101.292509,214.291679 102.581663,217.068318 103.375,220.185 C104.168337,223.301682 104.451668,226.559983 104.225,229.96 L72.52,229.96 Z M152.59,249 L152.59,205.055 L140.52,205.055 L140.52,228.09 C140.52,232.566689 139.783341,235.78249 138.31,237.7375 C136.836659,239.69251 134.456683,240.67 131.17,240.67 C128.279986,240.67 126.268339,239.777509 125.135,237.9925 C124.001661,236.207491 123.435,233.501685 123.435,229.875 L123.435,205.055 L111.365,205.055 L111.365,232.085 C111.365,234.805014 111.605831,237.284155 112.0875,239.5225 C112.569169,241.760845 113.404994,243.659159 114.595,245.2175 C115.785006,246.775841 117.414156,247.979996 119.4825,248.83 C121.550844,249.680004 124.199984,250.105 127.43,250.105 C129.980013,250.105 132.473321,249.538339 134.91,248.405 C137.346679,247.271661 139.329992,245.430013 140.86,242.88 L141.115,242.88 L141.115,249 L152.59,249 Z M191.35,222.31 C190.78333,219.249985 189.777507,216.926675 188.3325,215.34 C186.887493,213.753325 184.691681,212.96 181.745,212.96 C179.818324,212.96 178.217506,213.28583 176.9425,213.9375 C175.667494,214.58917 174.647504,215.396662 173.8825,216.36 C173.117496,217.323338 172.579168,218.343328 172.2675,219.42 C171.955832,220.496672 171.771667,221.459996 171.715,222.31 L191.35,222.31 Z M171.715,229.96 C171.885001,233.87002 172.876658,236.703325 174.69,238.46 C176.503342,240.216675 179.109983,241.095 182.51,241.095 C184.946679,241.095 187.043325,240.485839 188.8,239.2675 C190.556675,238.049161 191.633331,236.760007 192.03,235.4 L202.655,235.4 C200.954991,240.670026 198.348351,244.438322 194.835,246.705 C191.321649,248.971678 187.071692,250.105 182.085,250.105 C178.628316,250.105 175.511681,249.552506 172.735,248.4475 C169.958319,247.342494 167.606676,245.77001 165.68,243.73 C163.753324,241.68999 162.265839,239.253347 161.2175,236.42 C160.169161,233.586652 159.645,230.470017 159.645,227.07 C159.645,223.783317 160.183328,220.723347 161.26,217.89 C162.336672,215.056652 163.866657,212.605844 165.85,210.5375 C167.833343,208.469156 170.199153,206.840006 172.9475,205.65 C175.695847,204.459994 178.74165,203.865 182.085,203.865 C185.825019,203.865 189.083319,204.587493 191.86,206.0325 C194.636681,207.477507 196.917491,209.418321 198.7025,211.855 C200.487509,214.291679 201.776663,217.068318 202.57,220.185 C203.363337,223.301682 203.646668,226.559983 203.42,229.96 L171.715,229.96 Z" id="Helvetica-Neue"></path>
            </g>
        </g>
    </g>
</svg>