<?xml version="1.0" encoding="utf-8"?>
<!-- Generator: Adobe Illustrator 18.0.0, SVG Export Plug-In . SVG Version: 6.00 Build 0)  -->
<!DOCTYPE svg PUBLIC "-//W3C//DTD SVG 1.1//EN" "http://www.w3.org/Graphics/SVG/1.1/DTD/svg11.dtd">
<svg version="1.1" id="Layer_1" xmlns="http://www.w3.org/2000/svg" xmlns:xlink="http://www.w3.org/1999/xlink" x="0px" y="0px"
	 viewBox="0 0 307 275" enable-background="new 0 0 307 275" xml:space="preserve">
<title>human-centered-icon</title>
<desc>Created with Sketch.</desc>
<g id="Home">
	<g id="human-centered-icon" transform="translate(0.000000, 1.000000)">
		<circle id="Oval-5" fill="none" stroke="#6D65CB" cx="159.5" cy="141.5" r="90.6"/>
		
			<g id="Group-17" transform="translate(159.500000, 141.500000) rotate(90.000000) translate(-159.500000, -141.500000) translate(46.000000, 28.000000)">
			<path id="chevron-right" fill="#6D65CB" d="M193.9,33.7c-0.3,0.3-0.8,0.5-1.3,0.5l-15.9-0.3c-0.5,0-0.9-0.2-1.2-0.5
				c-0.3-0.3-0.5-0.8-0.5-1.3c0-1,0.8-1.8,1.8-1.7l14.1,0.3l-0.3-14.1c0-1,0.8-1.8,1.7-1.8c1,0,1.8,0.8,1.8,1.7l0.3,15.9
				C194.4,32.9,194.3,33.3,193.9,33.7"/>
			<path id="chevron-right_1_" fill="#6D65CB" d="M25.7,184.1c0.4-0.3,0.9-0.4,1.4-0.3l15.6,3.1c0.5,0.1,0.9,0.4,1.1,0.7
				c0.3,0.4,0.4,0.9,0.3,1.4c-0.2,1-1.1,1.6-2.1,1.4l-13.8-2.7L26,201.6c-0.2,1-1.1,1.6-2,1.5c-1-0.2-1.6-1.1-1.5-2l2.5-15.7
				C25.1,184.8,25.3,184.4,25.7,184.1"/>
			<circle id="Oval-4" fill="none" stroke="#6D65CB" stroke-dasharray="7" cx="113.5" cy="113.5" r="113.5"/>
		</g>
		<g id="Group-16" opacity="0.4951">
			<circle id="Oval-6" fill="#6D65CB" cx="234.5" cy="246.5" r="2.5"/>
			
				<circle id="Oval-6-Copy" fill="#6D65CB" stroke="#6D65CB" stroke-width="0.8" stroke-dasharray="0.8" cx="77.5" cy="254.5" r="2.5"/>
			
				<circle id="Oval-6-Copy-15" fill="none" stroke="#6D65CB" stroke-width="0.8" stroke-dasharray="0.8" cx="287.5" cy="193.5" r="2.5"/>
			<circle id="Oval-6-Copy-14" fill="#6D65CB" cx="130.5" cy="271.5" r="2.5"/>
			
				<circle id="Oval-6-Copy-13" fill="none" stroke="#6D65CB" stroke-width="0.8" stroke-dasharray="0.8" cx="207.5" cy="269.5" r="2.5"/>
			<circle id="Oval-6-Copy-12" fill="#6D65CB" cx="285.5" cy="130.5" r="2.5"/>
			
				<circle id="Oval-6-Copy-11" fill="#6D65CB" stroke="#6D65CB" stroke-width="0.8" stroke-dasharray="0.8" cx="292.5" cy="83.5" r="2.5"/>
			<circle id="Oval-6-Copy-10" fill="#6D65CB" cx="137.5" cy="19.5" r="2.5"/>
			
				<circle id="Oval-6-Copy-9" fill="none" stroke="#6D65CB" stroke-width="0.8" stroke-dasharray="0.8" cx="99.5" cy="22.5" r="2.5"/>
			
				<circle id="Oval-6-Copy-8" fill="#6D65CB" stroke="#6D65CB" stroke-width="0.8" stroke-dasharray="0.8" cx="303.5" cy="167.5" r="2.5"/>
			
				<circle id="Oval-6-Copy-7" fill="#6D65CB" stroke="#6D65CB" stroke-width="0.8" stroke-dasharray="0.8" cx="284.5" cy="230.5" r="2.5"/>
			
				<circle id="Oval-6-Copy-6" fill="#6D65CB" stroke="#6D65CB" stroke-width="0.8" stroke-dasharray="0.8" cx="163.5" cy="264.5" r="2.5"/>
			
				<circle id="Oval-6-Copy-5" fill="none" stroke="#6D65CB" stroke-width="0.8" stroke-dasharray="0.8" cx="109.5" cy="254.5" r="2.5"/>
			
				<circle id="Oval-6-Copy-4" fill="none" stroke="#6D65CB" stroke-width="0.8" stroke-dasharray="0.8" cx="257.5" cy="58.5" r="2.5"/>
			
				<circle id="Oval-6-Copy-3" fill="none" stroke="#6D65CB" stroke-width="0.8" stroke-dasharray="0.8" cx="173.5" cy="2.5" r="2.5"/>
			
				<circle id="Oval-6-Copy-11_1_" fill="#6D65CB" stroke="#6D65CB" stroke-width="0.8" stroke-dasharray="0.8" cx="42.5" cy="216.5" r="2.5"/>
			
				<circle id="Oval-6-Copy-16" fill="#6D65CB" stroke="#6D65CB" stroke-width="0.8" stroke-dasharray="0.8" cx="32.5" cy="88.5" r="2.5"/>
			<circle id="Oval-6-Copy-10_1_" fill="#6D65CB" cx="7.5" cy="132.5" r="2.5"/>
			<circle id="Oval-6-Copy-19" fill="#6D65CB" cx="57.5" cy="30.5" r="2.5"/>
			<circle id="Oval-6-Copy-18" fill="#6D65CB" cx="2.5" cy="188.5" r="2.5"/>
			
				<circle id="Oval-6-Copy-3_1_" fill="none" stroke="#6D65CB" stroke-width="0.8" stroke-dasharray="0.8" cx="29.5" cy="172.5" r="2.5"/>
			
				<circle id="Oval-6-Copy-17" fill="none" stroke="#6D65CB" stroke-width="0.8" stroke-dasharray="0.8" cx="29.5" cy="56.5" r="2.5"/>
			<circle id="Oval-6-Copy-2" fill="#6D65CB" cx="219.5" cy="32.5" r="2.5"/>
		</g>
	</g>
</g>
<g id="Group-11_2_" transform="translate(124.383960, 101.535591)">
	<path id="Stroke-3506_3_" fill="#FFE2BA" stroke="#6D65CB" stroke-linejoin="round" d="M39.3,81.4h30.8c0.5-0.4,1.1-0.7,1.6-1.1
		c-0.9-0.8-1.9-1.6-3-2.2l-15.1-8.8c-2.1-1.1-8-3.4-8-5.8V57c0,0,10.3-5.6,12.1-13.5c1.5-1,3.9-2.6,3.9-4.5v-7.2
		c0-0.6-0.3-1.2-0.8-1.8c-1.5-1.8-2.4-4-2.4-6.3v-3.3c0,0-0.5-19.2-22.5-19.2h-0.3c-21.9,0-22.5,19.2-22.5,19.2v3.3
		c0,2.3-0.9,4.5-2.4,6.3c-0.5,0.6-0.8,1.2-0.8,1.8V39c0,1.9,2.4,3.6,3.9,4.5C15.7,51.4,26.1,57,26.1,57v6.6c0,2.4-5.9,4.6-8,5.8
		L3,78.1c-1.1,0.6-2.1,1.3-3,2.2c0.5,0.4,1.1,0.7,1.6,1.1h30.8H39.3z"/>
</g>
</svg>
