<?xml version="1.0" encoding="UTF-8"?>
<svg width="749px" height="624px" viewBox="0 0 749 624" version="1.1" xmlns="http://www.w3.org/2000/svg" xmlns:xlink="http://www.w3.org/1999/xlink">
    <!-- Generator: Sketch 41.2 (35397) - http://www.bohemiancoding.com/sketch -->
    <title>Group</title>
    <desc>Created with Sketch.</desc>
    <defs>
        <polygon id="path-1" points="0.382363286 0.752321981 323.276532 0.752321981 323.276532 0.376160991 0.382363286 0.376160991 0.382363286 0.752321981"></polygon>
        <polygon id="path-3" points="0.808975659 204.248722 0.808975659 0.201697523 0.432331643 0.201697523 0.432331643 204.248722 0.808975659 204.248722"></polygon>
    </defs>
    <g id="Design-Sprint-Academy" stroke="none" stroke-width="1" fill="none" fill-rule="evenodd">
        <g id="homepage_large_v2" transform="translate(-48.000000, -1293.000000)">
            <g id="Group" transform="translate(48.000000, 1224.000000)">
                <rect id="Rectangle-Copy-2" fill="#293890" x="20" y="149" width="652" height="538"></rect>
                <rect id="Rectangle-Copy-2" fill="#FFE2BA" x="268" y="69" width="429.341865" height="550"></rect>
                <polygon id="Rectangle-Copy-4" fill="#E1E2E4" points="0 103 406 103 0 693"></polygon>
                <g id="Page-1" style="mix-blend-mode: multiply;" transform="translate(315.868856, 314.868856) scale(-1, 1) rotate(-60.000000) translate(-315.868856, -314.868856) translate(85.368856, 84.368856)">
                    <path d="M460.5,230.5 C460.5,357.525 357.525,460.5 230.5,460.5 C103.475,460.5 0.5,357.525 0.5,230.5 C0.5,103.475 103.475,0.5 230.5,0.5 C357.525,0.5 460.5,103.475 460.5,230.5 Z" id="Stroke-1" stroke="#000000" stroke-dasharray="4"></path>
                    <path d="M441.407,337.1185 C441.407,341.0185 438.245,344.1805 434.345,344.1805 C430.445,344.1805 427.283,341.0185 427.283,337.1185 C427.283,333.2185 430.445,330.0565 434.345,330.0565 C438.245,330.0565 441.407,333.2185 441.407,337.1185" id="Fill-3" fill="#FFFFFF"></path>
                    <path d="M441.407,337.1185 C441.407,341.0185 438.245,344.1805 434.345,344.1805 C430.445,344.1805 427.283,341.0185 427.283,337.1185 C427.283,333.2185 430.445,330.0565 434.345,330.0565 C438.245,330.0565 441.407,333.2185 441.407,337.1185 Z" id="Stroke-5" stroke="#000000" stroke-width="0.633"></path>
                    <path d="M232.9725,230.1185 C232.9725,231.5695 231.7965,232.7465 230.3445,232.7465 C228.8935,232.7465 227.7175,231.5695 227.7175,230.1185 C227.7175,228.6675 228.8935,227.4905 230.3445,227.4905 C231.7965,227.4905 232.9725,228.6675 232.9725,230.1185" id="Fill-7" fill="#000000"></path>
                    <path d="M232.9725,230.1185 C232.9725,231.5695 231.7965,232.7465 230.3445,232.7465 C228.8935,232.7465 227.7175,231.5695 227.7175,230.1185 C227.7175,228.6675 228.8935,227.4905 230.3445,227.4905 C231.7965,227.4905 232.9725,228.6675 232.9725,230.1185 Z" id="Stroke-9" stroke="#FFFFFF" stroke-width="0.236"></path>
                    <path d="M232.5078,231.6063 L428.2828,333.0563" id="Stroke-11" stroke="#000000" stroke-width="0.633"></path>
                </g>
                <g id="Page-1" style="mix-blend-mode: multiply;" transform="translate(378.000000, 210.000000)">
                    <polygon id="Fill-1" fill="#FFFFFF" points="2.31404665 213.903947 332.723787 213.903947 332.723787 2.31339009 2.31404665 2.31339009"></polygon>
                    <polygon id="Stroke-2" stroke="#000000" points="2.31404665 213.903947 332.723787 213.903947 332.723787 2.31339009 2.31404665 2.31339009"></polygon>
                    <polygon id="Fill-3" fill="#FFFFFF" points="330.512838 4.52371207 334.933984 4.52371207 334.933984 0.103820433 330.512838 0.103820433"></polygon>
                    <polygon id="Stroke-4" stroke="#000000" stroke-width="0.274" points="330.51359 4.52295975 334.934736 4.52295975 334.934736 0.103068111 330.51359 0.103068111"></polygon>
                    <polygon id="Fill-6" fill="#000000" points="331.346647 3.689387 334.100174 3.689387 334.100174 0.936640867 331.346647 0.936640867"></polygon>
                    <polygon id="Stroke-7" stroke="#FFFFFF" stroke-width="0.171" points="331.346647 3.689387 334.100174 3.689387 334.100174 0.936640867 331.346647 0.936640867"></polygon>
                    <polygon id="Fill-8" fill="#FFFFFF" points="0.103097363 4.52371207 4.52424341 4.52371207 4.52424341 0.103820433 0.103097363 0.103820433"></polygon>
                    <polygon id="Stroke-9" stroke="#000000" stroke-width="0.274" points="0.103097363 4.52295975 4.52424341 4.52295975 4.52424341 0.103068111 0.103097363 0.103068111"></polygon>
                    <polygon id="Fill-11" fill="#000000" points="0.936906694 3.689387 3.69043408 3.689387 3.69043408 0.936640867 0.936906694 0.936640867"></polygon>
                    <polygon id="Stroke-12" stroke="#FFFFFF" stroke-width="0.171" points="0.936906694 3.689387 3.69043408 3.689387 3.69043408 0.936640867 0.936906694 0.936640867"></polygon>
                    <polygon id="Fill-13" fill="#FFFFFF" points="165.439661 4.6034582 169.860807 4.6034582 169.860807 0.183566563 165.439661 0.183566563"></polygon>
                    <polygon id="Stroke-14" stroke="#000000" stroke-width="0.274" points="165.439661 4.6034582 169.860807 4.6034582 169.860807 0.183566563 165.439661 0.183566563"></polygon>
                    <polygon id="Fill-16" fill="#000000" points="166.273471 3.76913313 169.026998 3.76913313 169.026998 1.016387 166.273471 1.016387"></polygon>
                    <polygon id="Stroke-17" stroke="#FFFFFF" stroke-width="0.171" points="166.273471 3.76913313 169.026998 3.76913313 169.026998 1.016387 166.273471 1.016387"></polygon>
                    <polygon id="Fill-18" fill="#FFFFFF" points="165.439661 216.194015 169.860807 216.194015 169.860807 211.774124 165.439661 211.774124"></polygon>
                    <polygon id="Stroke-19" stroke="#000000" stroke-width="0.274" points="165.439661 216.194015 169.860807 216.194015 169.860807 211.774124 165.439661 211.774124"></polygon>
                    <polygon id="Fill-20" fill="#000000" points="166.273471 215.35969 169.026998 215.35969 169.026998 212.606944 166.273471 212.606944"></polygon>
                    <polygon id="Stroke-21" stroke="#FFFFFF" stroke-width="0.171" points="166.273471 215.35969 169.026998 215.35969 169.026998 212.606944 166.273471 212.606944"></polygon>
                    <polygon id="Fill-22" fill="#FFFFFF" points="0.103097363 216.114269 4.52424341 216.114269 4.52424341 211.694378 0.103097363 211.694378"></polygon>
                    <polygon id="Stroke-23" stroke="#000000" stroke-width="0.274" points="0.103097363 216.113517 4.52424341 216.113517 4.52424341 211.693625 0.103097363 211.693625"></polygon>
                    <polygon id="Fill-25" fill="#000000" points="0.936906694 215.279944 3.69043408 215.279944 3.69043408 212.527198 0.936906694 212.527198"></polygon>
                    <polygon id="Stroke-26" stroke="#FFFFFF" stroke-width="0.171" points="0.936906694 215.279944 3.69043408 215.279944 3.69043408 212.527198 0.936906694 212.527198"></polygon>
                    <polygon id="Fill-27" fill="#FFFFFF" points="330.51359 216.113517 334.934736 216.113517 334.934736 211.693625 330.51359 211.693625"></polygon>
                    <polygon id="Stroke-28" stroke="#000000" stroke-width="0.274" points="330.51359 216.113517 334.934736 216.113517 334.934736 211.693625 330.51359 211.693625"></polygon>
                    <polygon id="Fill-29" fill="#000000" points="331.346647 215.279944 334.100174 215.279944 334.100174 212.527198 331.346647 212.527198"></polygon>
                    <polygon id="Stroke-30" stroke="#FFFFFF" stroke-width="0.171" points="331.346647 215.279944 334.100174 215.279944 334.100174 212.527198 331.346647 212.527198"></polygon>
                    <polygon id="Fill-31" fill="#FFFFFF" points="330.51359 110.318238 334.934736 110.318238 334.934736 105.898347 330.51359 105.898347"></polygon>
                    <polygon id="Stroke-32" stroke="#000000" stroke-width="0.274" points="330.51359 110.318238 334.934736 110.318238 334.934736 105.898347 330.51359 105.898347"></polygon>
                    <polygon id="Fill-33" fill="#000000" points="331.346647 109.484666 334.100174 109.484666 334.100174 106.73192 331.346647 106.73192"></polygon>
                    <polygon id="Stroke-34" stroke="#FFFFFF" stroke-width="0.171" points="331.346647 109.484666 334.100174 109.484666 334.100174 106.73192 331.346647 106.73192"></polygon>
                    <polygon id="Fill-35" fill="#FFFFFF" points="0.103097363 110.318991 4.52424341 110.318991 4.52424341 105.899099 0.103097363 105.899099"></polygon>
                    <polygon id="Stroke-36" stroke="#000000" stroke-width="0.274" points="0.103097363 110.318238 4.52424341 110.318238 4.52424341 105.898347 0.103097363 105.898347"></polygon>
                    <polygon id="Fill-38" fill="#000000" points="0.936906694 109.484666 3.69043408 109.484666 3.69043408 106.73192 0.936906694 106.73192"></polygon>
                    <polygon id="Stroke-39" stroke="#FFFFFF" stroke-width="0.171" points="0.936906694 109.484666 3.69043408 109.484666 3.69043408 106.73192 0.936906694 106.73192"></polygon>
                    <path d="M164.986785,113.155395 L169.955025,108.188565" id="Stroke-40" stroke="#000000"></path>
                    <path d="M169.955175,113.155395 L164.986936,108.188565" id="Stroke-41" stroke="#000000"></path>
                    <g id="Group-100" transform="translate(9.782961, 11.189285)">
                        <path d="M4.23128134,2.65960867 C4.23128134,3.78733932 3.31695071,4.70216285 2.18814746,4.70216285 C1.06009675,4.70216285 0.14501359,3.78733932 0.14501359,2.65960867 C0.14501359,1.53187802 1.06009675,0.617054489 2.18814746,0.617054489 C3.31695071,0.617054489 4.23128134,1.53187802 4.23128134,2.65960867" id="Fill-42" fill="#FFFFFF"></path>
                        <path d="M4.23128134,2.65960867 C4.23128134,3.78733932 3.31695071,4.70216285 2.18814746,4.70216285 C1.06009675,4.70216285 0.14501359,3.78733932 0.14501359,2.65960867 C0.14501359,1.53187802 1.06009675,0.617054489 2.18814746,0.617054489 C3.31695071,0.617054489 4.23128134,1.53187802 4.23128134,2.65960867 Z" id="Stroke-44" stroke="#000000" stroke-width="0.509"></path>
                        <path d="M3.39476288,2.65960867 C3.39476288,3.32541362 2.85444239,3.8655808 2.18844848,3.8655808 C1.52170203,3.8655808 0.982134077,3.32541362 0.982134077,2.65960867 C0.982134077,1.99380372 1.52170203,1.45363653 2.18844848,1.45363653 C2.85444239,1.45363653 3.39476288,1.99380372 3.39476288,2.65960867" id="Fill-46" fill="#000000"></path>
                        <path d="M315.028442,2.65960867 C315.028442,3.78733932 314.114111,4.70216285 312.985308,4.70216285 C311.857257,4.70216285 310.942174,3.78733932 310.942174,2.65960867 C310.942174,1.53187802 311.857257,0.617054489 312.985308,0.617054489 C314.114111,0.617054489 315.028442,1.53187802 315.028442,2.65960867" id="Fill-48" fill="#FFFFFF"></path>
                        <path d="M315.028442,2.65960867 C315.028442,3.78733932 314.114111,4.70216285 312.985308,4.70216285 C311.857257,4.70216285 310.942174,3.78733932 310.942174,2.65960867 C310.942174,1.53187802 311.857257,0.617054489 312.985308,0.617054489 C314.114111,0.617054489 315.028442,1.53187802 315.028442,2.65960867 Z" id="Stroke-50" stroke="#000000" stroke-width="0.509"></path>
                        <path d="M314.191923,2.65960867 C314.191923,3.32541362 313.651603,3.8655808 312.985609,3.8655808 C312.318862,3.8655808 311.779294,3.32541362 311.779294,2.65960867 C311.779294,1.99380372 312.318862,1.45363653 312.985609,1.45363653 C313.651603,1.45363653 314.191923,1.99380372 314.191923,2.65960867" id="Fill-52" fill="#000000"></path>
                        <path d="M315.028442,192.99707 C315.028442,194.124801 314.114111,195.039624 312.985308,195.039624 C311.857257,195.039624 310.942174,194.124801 310.942174,192.99707 C310.942174,191.869339 311.857257,190.954516 312.985308,190.954516 C314.114111,190.954516 315.028442,191.869339 315.028442,192.99707" id="Fill-54" fill="#FFFFFF"></path>
                        <path d="M315.028442,192.99707 C315.028442,194.124801 314.114111,195.039624 312.985308,195.039624 C311.857257,195.039624 310.942174,194.124801 310.942174,192.99707 C310.942174,191.869339 311.857257,190.954516 312.985308,190.954516 C314.114111,190.954516 315.028442,191.869339 315.028442,192.99707 Z" id="Stroke-56" stroke="#000000" stroke-width="0.509"></path>
                        <path d="M314.191923,192.99707 C314.191923,193.662875 313.651603,194.203042 312.985609,194.203042 C312.318862,194.203042 311.779294,193.662875 311.779294,192.99707 C311.779294,192.331265 312.318862,191.791098 312.985609,191.791098 C313.651603,191.791098 314.191923,192.331265 314.191923,192.99707" id="Fill-58" fill="#000000"></path>
                        <path d="M4.23128134,192.99707 C4.23128134,194.124801 3.31695071,195.039624 2.18814746,195.039624 C1.06009675,195.039624 0.14501359,194.124801 0.14501359,192.99707 C0.14501359,191.869339 1.06009675,190.954516 2.18814746,190.954516 C3.31695071,190.954516 4.23128134,191.869339 4.23128134,192.99707" id="Fill-60" fill="#FFFFFF"></path>
                        <path d="M4.23128134,192.99707 C4.23128134,194.124801 3.31695071,195.039624 2.18814746,195.039624 C1.06009675,195.039624 0.14501359,194.124801 0.14501359,192.99707 C0.14501359,191.869339 1.06009675,190.954516 2.18814746,190.954516 C3.31695071,190.954516 4.23128134,191.869339 4.23128134,192.99707 Z" id="Stroke-62" stroke="#000000" stroke-width="0.509"></path>
                        <path d="M3.39476288,192.99707 C3.39476288,193.662875 2.85444239,194.203042 2.18844848,194.203042 C1.52170203,194.203042 0.982134077,193.662875 0.982134077,192.99707 C0.982134077,192.331265 1.52170203,191.791098 2.18844848,191.791098 C2.85444239,191.791098 3.39476288,192.331265 3.39476288,192.99707" id="Fill-64" fill="#000000"></path>
                        <polyline id="Stroke-66" stroke="#000000" points="342.08277 214.787926 342.08277 216.29257 340.577699 216.29257"></polyline>
                        <path d="M337.574029,216.29257 L14.6798604,216.29257" id="Stroke-68" stroke="#000000" stroke-dasharray="3.991,3.991"></path>
                        <polyline id="Stroke-70" stroke="#000000" points="13.1777243 216.29257 11.6726533 216.29257 11.6726533 214.787926"></polyline>
                        <path d="M11.6726533,211.765021 L11.6726533,7.71799598" id="Stroke-72" stroke="#000000" stroke-dasharray="4.018,4.018"></path>
                        <polyline id="Stroke-74" stroke="#000000" points="11.6726533 6.20665635 11.6726533 4.70201238 13.1777243 4.70201238"></polyline>
                        <path d="M16.1813945,4.70201238 L339.075563,4.70201238" id="Stroke-76" stroke="#000000" stroke-dasharray="3.991,3.991"></path>
                        <polyline id="Stroke-78" stroke="#000000" points="340.577699 4.70201238 342.08277 4.70201238 342.08277 6.20665635"></polyline>
                        <path d="M342.08277,9.2295613 L342.08277,213.276586" id="Stroke-80" stroke="#000000" stroke-dasharray="4.018,4.018"></path>
                        <polyline id="Stroke-82" stroke="#000000" points="360.144299 229.082043 360.144299 230.586687 358.639228 230.586687"></polyline>
                        <g id="Group-86" transform="translate(32.359026, 230.210526)">
                            <mask id="mask-2" fill="white">
                                <use xlink:href="#path-1"></use>
                            </mask>
                            <g id="Clip-85"></g>
                            <path d="M323.276532,0.376160991 L0.382363286,0.376160991" id="Stroke-84" stroke="#000000" stroke-dasharray="3.991,3.991" mask="url(#mask-2)"></path>
                        </g>
                        <polyline id="Stroke-87" stroke="#000000" points="31.2392535 230.586687 29.7341826 230.586687 29.7341826 229.082043"></polyline>
                        <path d="M29.7341826,226.059138 L29.7341826,22.0121136" id="Stroke-89" stroke="#000000" stroke-dasharray="4.018,4.018"></path>
                        <polyline id="Stroke-91" stroke="#000000" points="29.7341826 20.500774 29.7341826 18.99613 31.2392535 18.99613"></polyline>
                        <path d="M34.2429237,18.99613 L357.137092,18.99613" id="Stroke-93" stroke="#000000" stroke-dasharray="3.991,3.991"></path>
                        <polyline id="Stroke-95" stroke="#000000" points="358.639228 18.99613 360.144299 18.99613 360.144299 20.500774"></polyline>
                        <g id="Group-99" transform="translate(359.711968, 23.321981)">
                            <mask id="mask-4" fill="white">
                                <use xlink:href="#path-3"></use>
                            </mask>
                            <g id="Clip-98"></g>
                            <path d="M0.432331643,0.201697523 L0.432331643,204.248722" id="Stroke-97" stroke="#000000" stroke-dasharray="4.018,4.018" mask="url(#mask-4)"></path>
                        </g>
                    </g>
                </g>
            </g>
        </g>
    </g>
</svg>