<?xml version="1.0" encoding="UTF-8"?>
<svg width="531px" height="514px" viewBox="0 0 531 514" version="1.1" xmlns="http://www.w3.org/2000/svg" xmlns:xlink="http://www.w3.org/1999/xlink">
    <!-- Generator: Sketch 41.2 (35397) - http://www.bohemiancoding.com/sketch -->
    <title>InnovationServicesGraphic</title>
    <desc>Created with Sketch.</desc>
    <defs>
        <polygon id="path-1" points="0.306301772 0.601857585 258.968834 0.601857585 258.968834 0.300928793 0.306301772 0.300928793 0.306301772 0.601857585"></polygon>
        <polygon id="path-3" points="0.648050394 163.398978 0.648050394 0.161358019 0.346330187 0.161358019 0.346330187 163.398978 0.648050394 163.398978"></polygon>
    </defs>
    <g id="Home" stroke="none" stroke-width="1" fill="none" fill-rule="evenodd">
        <g id="InnovationServicesGraphic" transform="translate(-67.000000, 0.000000)">
            <g id="Page-1" transform="translate(252.031687, 329.031687) scale(-1, 1) rotate(-60.000000) translate(-252.031687, -329.031687) translate(67.531687, 144.531687)">
                <path d="M368.599783,184.5 C368.599783,286.175108 286.175108,368.599783 184.5,368.599783 C82.8248915,368.599783 0.40021692,286.175108 0.40021692,184.5 C0.40021692,82.8248915 82.8248915,0.40021692 184.5,0.40021692 C286.175108,0.40021692 368.599783,82.8248915 368.599783,184.5 Z" id="Stroke-1" stroke="#000000" stroke-width="0.800000012" stroke-dasharray="3.200000047683716"></path>
                <path d="M353.3171,269.841055 C353.3171,272.962747 350.786128,275.493719 347.664436,275.493719 C344.542744,275.493719 342.011772,272.962747 342.011772,269.841055 C342.011772,266.719363 344.542744,264.188392 347.664436,264.188392 C350.786128,264.188392 353.3171,266.719363 353.3171,269.841055" id="Fill-3"></path>
                <path d="M353.3171,269.841055 C353.3171,272.962747 350.786128,275.493719 347.664436,275.493719 C344.542744,275.493719 342.011772,272.962747 342.011772,269.841055 C342.011772,266.719363 344.542744,264.188392 347.664436,264.188392 C350.786128,264.188392 353.3171,266.719363 353.3171,269.841055 Z" id="Stroke-5" stroke="#000000" stroke-width="0.506400008"></path>
                <path d="M186.479073,184.194634 C186.479073,185.356064 185.537762,186.298175 184.375533,186.298175 C183.214103,186.298175 182.272793,185.356064 182.272793,184.194634 C182.272793,183.033205 183.214103,182.091094 184.375533,182.091094 C185.537762,182.091094 186.479073,183.033205 186.479073,184.194634" id="Fill-7" fill="#000000"></path>
                <path d="M186.479073,184.194634 C186.479073,185.356064 185.537762,186.298175 184.375533,186.298175 C183.214103,186.298175 182.272793,185.356064 182.272793,184.194634 C182.272793,183.033205 183.214103,182.091094 184.375533,182.091094 C185.537762,182.091094 186.479073,183.033205 186.479073,184.194634 Z" id="Stroke-9"></path>
                <path d="M186.107111,185.38552 L342.812046,266.589533" id="Stroke-11" stroke="#000000" stroke-width="0.506400008"></path>
            </g>
            <g id="Page-1" transform="translate(301.000000, 245.000000)">
                <polygon id="Fill-1" points="1.85372554 171.123158 266.536797 171.123158 266.536797 1.85071207 1.85372554 1.85071207"></polygon>
                <polygon id="Stroke-2" stroke="#000000" stroke-width="0.800000012" points="1.85372554 171.123158 266.536797 171.123158 266.536797 1.85071207 1.85372554 1.85071207"></polygon>
                <polygon id="Fill-3" fill="#FFFFFF" points="264.76566 3.61896966 268.307331 3.61896966 268.307331 0.0830563467 264.76566 0.0830563467"></polygon>
                <polygon id="Stroke-4" stroke="#000000" stroke-width="0.5" points="264.766263 3.6183678 268.307934 3.6183678 268.307934 0.0824544892 264.766263 0.0824544892"></polygon>
                <polygon id="Fill-6" fill="#000000" points="265.433604 2.9515096 267.639387 2.9515096 267.639387 0.749312693 265.433604 0.749312693"></polygon>
                <polygon id="Stroke-7" stroke="#FFFFFF" stroke-width="0.5" points="265.433604 2.9515096 267.639387 2.9515096 267.639387 0.749312693 265.433604 0.749312693"></polygon>
                <polygon id="Fill-8" points="0.0825887478 3.61896966 3.6242595 3.61896966 3.6242595 0.0830563467 0.0825887478 0.0830563467"></polygon>
                <polygon id="Stroke-9" stroke="#000000" stroke-width="0.5" points="0.0825887478 3.6183678 3.6242595 3.6183678 3.6242595 0.0824544892 0.0825887478 0.0824544892"></polygon>
                <polygon id="Fill-11" fill="#000000" points="0.750532782 2.9515096 2.95631547 2.9515096 2.95631547 0.749312693 0.750532782 0.749312693"></polygon>
                <polygon id="Stroke-12" points="0.750532782 2.9515096 2.95631547 2.9515096 2.95631547 0.749312693 0.750532782 0.749312693"></polygon>
                <polygon id="Fill-13" points="132.529621 3.68276656 136.071292 3.68276656 136.071292 0.146853251 132.529621 0.146853251"></polygon>
                <polygon id="Stroke-14" stroke="#000000" stroke-width="0.5" points="132.529621 3.68276656 136.071292 3.68276656 136.071292 0.146853251 132.529621 0.146853251"></polygon>
                <polygon id="Fill-16" fill="#000000" points="133.197565 3.0153065 135.403348 3.0153065 135.403348 0.813109598 133.197565 0.813109598"></polygon>
                <polygon id="Stroke-17" points="133.197565 3.0153065 135.403348 3.0153065 135.403348 0.813109598 133.197565 0.813109598"></polygon>
                <polygon id="Fill-18" fill="#FFFFFF" points="132.529621 172.955212 136.071292 172.955212 136.071292 169.419299 132.529621 169.419299"></polygon>
                <polygon id="Stroke-19" stroke="#000000" stroke-width="0.5" points="132.529621 172.955212 136.071292 172.955212 136.071292 169.419299 132.529621 169.419299"></polygon>
                <polygon id="Fill-20" fill="#000000" points="133.197565 172.287752 135.403348 172.287752 135.403348 170.085555 133.197565 170.085555"></polygon>
                <polygon id="Stroke-21" stroke="#FFFFFF" stroke-width="0.5" points="133.197565 172.287752 135.403348 172.287752 135.403348 170.085555 133.197565 170.085555"></polygon>
                <polygon id="Fill-22" fill="#FFFFFF" points="0.0825887478 172.891415 3.6242595 172.891415 3.6242595 169.355502 0.0825887478 169.355502"></polygon>
                <polygon id="Stroke-23" stroke="#000000" stroke-width="0.5" points="0.0825887478 172.890814 3.6242595 172.890814 3.6242595 169.3549 0.0825887478 169.3549"></polygon>
                <polygon id="Fill-25" fill="#000000" points="0.750532782 172.223955 2.95631547 172.223955 2.95631547 170.021759 0.750532782 170.021759"></polygon>
                <polygon id="Stroke-26" stroke="#FFFFFF" stroke-width="0.5" points="0.750532782 172.223955 2.95631547 172.223955 2.95631547 170.021759 0.750532782 170.021759"></polygon>
                <polygon id="Fill-27" fill="#FFFFFF" points="264.766263 172.890814 268.307934 172.890814 268.307934 169.3549 264.766263 169.3549"></polygon>
                <polygon id="Stroke-28" stroke="#000000" stroke-width="0.5" points="264.766263 172.890814 268.307934 172.890814 268.307934 169.3549 264.766263 169.3549"></polygon>
                <polygon id="Fill-29" fill="#000000" points="265.433604 172.223955 267.639387 172.223955 267.639387 170.021759 265.433604 170.021759"></polygon>
                <polygon id="Stroke-30" stroke="#FFFFFF" stroke-width="0.5" points="265.433604 172.223955 267.639387 172.223955 267.639387 170.021759 265.433604 170.021759"></polygon>
                <polygon id="Fill-31" fill="#FFFFFF" points="264.766263 88.2545907 268.307934 88.2545907 268.307934 84.7186774 264.766263 84.7186774"></polygon>
                <polygon id="Stroke-32" stroke="#000000" stroke-width="0.5" points="264.766263 88.2545907 268.307934 88.2545907 268.307934 84.7186774 264.766263 84.7186774"></polygon>
                <polygon id="Fill-33" fill="#000000" points="265.433604 87.5877325 267.639387 87.5877325 267.639387 85.3855356 265.433604 85.3855356"></polygon>
                <polygon id="Stroke-34" stroke="#FFFFFF" stroke-width="0.5" points="265.433604 87.5877325 267.639387 87.5877325 267.639387 85.3855356 265.433604 85.3855356"></polygon>
                <polygon id="Fill-35" points="0.0825887478 88.2551926 3.6242595 88.2551926 3.6242595 84.7192793 0.0825887478 84.7192793"></polygon>
                <polygon id="Stroke-36" stroke="#000000" stroke-width="0.5" points="0.0825887478 88.2545907 3.6242595 88.2545907 3.6242595 84.7186774 0.0825887478 84.7186774"></polygon>
                <polygon id="Fill-38" fill="#000000" points="0.750532782 87.5877325 2.95631547 87.5877325 2.95631547 85.3855356 0.750532782 85.3855356"></polygon>
                <polygon id="Stroke-39" points="0.750532782 87.5877325 2.95631547 87.5877325 2.95631547 85.3855356 0.750532782 85.3855356"></polygon>
                <path d="M132.166833,90.524316 L136.146767,86.5508523" id="Stroke-40" stroke="#000000" stroke-width="0.800000012"></path>
                <path d="M136.146888,90.524316 L132.166954,86.5508523" id="Stroke-41" stroke="#000000" stroke-width="0.800000012"></path>
                <g id="Group-100" transform="translate(7.836888, 8.951428)">
                    <path d="M3.38957484,2.12768693 C3.38957484,3.02987146 2.65712718,3.76173028 1.75287082,3.76173028 C0.849217293,3.76173028 0.116166801,3.02987146 0.116166801,2.12768693 C0.116166801,1.22550241 0.849217293,0.493643591 1.75287082,0.493643591 C2.65712718,0.493643591 3.38957484,1.22550241 3.38957484,2.12768693" id="Fill-42" fill="#FFFFFF"></path>
                    <path d="M3.38957484,2.12768693 C3.38957484,3.02987146 2.65712718,3.76173028 1.75287082,3.76173028 C0.849217293,3.76173028 0.116166801,3.02987146 0.116166801,2.12768693 C0.116166801,1.22550241 0.849217293,0.493643591 1.75287082,0.493643591 C2.65712718,0.493643591 3.38957484,1.22550241 3.38957484,2.12768693 Z" id="Stroke-44" stroke="#000000" stroke-width="0.5"></path>
                    <path d="M2.71946059,2.12768693 C2.71946059,2.6603309 2.28662321,3.09246464 1.75311195,3.09246464 C1.21899786,3.09246464 0.78676332,2.6603309 0.78676332,2.12768693 C0.78676332,1.59504297 1.21899786,1.16290923 1.75311195,1.16290923 C2.28662321,1.16290923 2.71946059,1.59504297 2.71946059,2.12768693" id="Fill-46" fill="#000000"></path>
                    <path d="M252.361494,2.12768693 C252.361494,3.02987146 251.629046,3.76173028 250.72479,3.76173028 C249.821136,3.76173028 249.088085,3.02987146 249.088085,2.12768693 C249.088085,1.22550241 249.821136,0.493643591 250.72479,0.493643591 C251.629046,0.493643591 252.361494,1.22550241 252.361494,2.12768693" id="Fill-48" fill="#FFFFFF"></path>
                    <path d="M252.361494,2.12768693 C252.361494,3.02987146 251.629046,3.76173028 250.72479,3.76173028 C249.821136,3.76173028 249.088085,3.02987146 249.088085,2.12768693 C249.088085,1.22550241 249.821136,0.493643591 250.72479,0.493643591 C251.629046,0.493643591 252.361494,1.22550241 252.361494,2.12768693 Z" id="Stroke-50" stroke="#000000" stroke-width="0.5"></path>
                    <path d="M251.691379,2.12768693 C251.691379,2.6603309 251.258542,3.09246464 250.725031,3.09246464 C250.190917,3.09246464 249.758682,2.6603309 249.758682,2.12768693 C249.758682,1.59504297 250.190917,1.16290923 250.725031,1.16290923 C251.258542,1.16290923 251.691379,1.59504297 251.691379,2.12768693" id="Fill-52" fill="#000000"></path>
                    <path d="M252.361494,154.397656 C252.361494,155.29984 251.629046,156.031699 250.72479,156.031699 C249.821136,156.031699 249.088085,155.29984 249.088085,154.397656 C249.088085,153.495471 249.821136,152.763613 250.72479,152.763613 C251.629046,152.763613 252.361494,153.495471 252.361494,154.397656" id="Fill-54" fill="#FFFFFF"></path>
                    <path d="M252.361494,154.397656 C252.361494,155.29984 251.629046,156.031699 250.72479,156.031699 C249.821136,156.031699 249.088085,155.29984 249.088085,154.397656 C249.088085,153.495471 249.821136,152.763613 250.72479,152.763613 C251.629046,152.763613 252.361494,153.495471 252.361494,154.397656 Z" id="Stroke-56" stroke="#000000" stroke-width="0.5"></path>
                    <path d="M251.691379,154.397656 C251.691379,154.9303 251.258542,155.362434 250.725031,155.362434 C250.190917,155.362434 249.758682,154.9303 249.758682,154.397656 C249.758682,153.865012 250.190917,153.432878 250.725031,153.432878 C251.258542,153.432878 251.691379,153.865012 251.691379,154.397656" id="Fill-58" fill="#000000"></path>
                    <path d="M3.38957484,154.397656 C3.38957484,155.29984 2.65712718,156.031699 1.75287082,156.031699 C0.849217293,156.031699 0.116166801,155.29984 0.116166801,154.397656 C0.116166801,153.495471 0.849217293,152.763613 1.75287082,152.763613 C2.65712718,152.763613 3.38957484,153.495471 3.38957484,154.397656" id="Fill-60" fill="#FFFFFF"></path>
                    <path d="M3.38957484,154.397656 C3.38957484,155.29984 2.65712718,156.031699 1.75287082,156.031699 C0.849217293,156.031699 0.116166801,155.29984 0.116166801,154.397656 C0.116166801,153.495471 0.849217293,152.763613 1.75287082,152.763613 C2.65712718,152.763613 3.38957484,153.495471 3.38957484,154.397656 Z" id="Stroke-62" stroke="#000000" stroke-width="0.5"></path>
                    <path d="M2.71946059,154.397656 C2.71946059,154.9303 2.28662321,155.362434 1.75311195,155.362434 C1.21899786,155.362434 0.78676332,154.9303 0.78676332,154.397656 C0.78676332,153.865012 1.21899786,153.432878 1.75311195,153.432878 C2.28662321,153.432878 2.71946059,153.865012 2.71946059,154.397656" id="Fill-64" fill="#000000"></path>
                    <polyline id="Stroke-66" stroke="#000000" stroke-width="0.800000012" points="274.034047 171.830341 274.034047 173.034056 272.828372 173.034056"></polyline>
                    <path d="M270.422206,173.034056 L11.7596732,173.034056" id="Stroke-68" stroke="#000000" stroke-width="0.800000012" stroke-dasharray="3.192799997222423,3.192799997222423"></path>
                    <polyline id="Stroke-70" stroke="#000000" stroke-width="0.800000012" points="10.5563491 173.034056 9.35067392 173.034056 9.35067392 171.830341"></polyline>
                    <path d="M9.35067392,169.412017 L9.35067392,6.17439678" id="Stroke-72" stroke="#000000" stroke-width="0.800000012" stroke-dasharray="3.214400148606302,3.214400148606302"></path>
                    <polyline id="Stroke-74" stroke="#000000" stroke-width="0.800000012" points="9.35067392 4.96532508 9.35067392 3.76160991 10.5563491 3.76160991"></polyline>
                    <path d="M12.962515,3.76160991 L271.625048,3.76160991" id="Stroke-76" stroke="#000000" stroke-width="0.800000012" stroke-dasharray="3.192799997222423,3.192799997222423"></path>
                    <polyline id="Stroke-78" stroke="#000000" stroke-width="0.800000012" points="272.828372 3.76160991 274.034047 3.76160991 274.034047 4.96532508"></polyline>
                    <path d="M274.034047,7.38364904 L274.034047,170.621269" id="Stroke-80" stroke="#000000" stroke-width="0.800000012" stroke-dasharray="3.214400148606302,3.214400148606302"></path>
                    <polyline id="Stroke-82" stroke="#000000" stroke-width="0.800000012" points="288.502691 183.265635 288.502691 184.46935 287.297016 184.46935"></polyline>
                    <g id="Group-86" transform="translate(25.922016, 184.168421)">
                        <mask id="mask-2" fill="white">
                            <use xlink:href="#path-1"></use>
                        </mask>
                        <g id="Clip-85"></g>
                        <path d="M258.968834,0.300928793 L0.306301772,0.300928793" id="Stroke-84" stroke="#000000" stroke-width="0.800000012" stroke-dasharray="3.192799997222423,3.192799997222423" mask="url(#mask-2)"></path>
                    </g>
                    <polyline id="Stroke-87" stroke="#000000" stroke-width="0.800000012" points="25.0249934 184.46935 23.8193183 184.46935 23.8193183 183.265635"></polyline>
                    <path d="M23.8193183,180.847311 L23.8193183,17.6096909" id="Stroke-89" stroke="#000000" stroke-width="0.800000012" stroke-dasharray="3.214400148606302,3.214400148606302"></path>
                    <polyline id="Stroke-91" stroke="#000000" stroke-width="0.800000012" points="23.8193183 16.4006192 23.8193183 15.196904 25.0249934 15.196904"></polyline>
                    <path d="M27.4311593,15.196904 L286.093692,15.196904" id="Stroke-93" stroke="#000000" stroke-width="0.800000012" stroke-dasharray="3.192799997222423,3.192799997222423"></path>
                    <polyline id="Stroke-95" stroke="#000000" stroke-width="0.800000012" points="287.297016 15.196904 288.502691 15.196904 288.502691 16.4006192"></polyline>
                    <g id="Group-99" transform="translate(288.156361, 18.657585)">
                        <mask id="mask-4" fill="white">
                            <use xlink:href="#path-3"></use>
                        </mask>
                        <g id="Clip-98"></g>
                        <path d="M0.346330187,0.161358019 L0.346330187,163.398978" id="Stroke-97" stroke="#000000" stroke-width="0.800000012" stroke-dasharray="3.214400148606302,3.214400148606302" mask="url(#mask-4)"></path>
                    </g>
                </g>
            </g>
            <g id="Page-1" transform="translate(296.500000, 75.500000) scale(1, -1) rotate(-270.000000) translate(-296.500000, -75.500000) translate(221.000000, 21.000000)">
                <path d="M7.1796875,98.546875 C7.1796875,98.546875 10.7003888,58.6052385 75.6791425,58.6052385 C140.657896,58.6052385 145.667092,12.8905666 145.667092,12.8905666" id="Stroke-1" stroke="#000000"></path>
                <path d="M11.6842656,103.010367 C11.6842656,99.8548411 9.12586218,97.2964377 5.97033615,97.2964377 C2.81481013,97.2964377 0.256406717,99.8548411 0.256406717,103.010367 C0.256406717,106.165893 2.81481013,108.724297 5.97033615,108.724297 C9.12586218,108.724297 11.6842656,106.165893 11.6842656,103.010367" id="Fill-3"></path>
                <path d="M11.6842656,103.010367 C11.6842656,99.8548411 9.12586218,97.2964377 5.97033615,97.2964377 C2.81481013,97.2964377 0.256406717,99.8548411 0.256406717,103.010367 C0.256406717,106.165893 2.81481013,108.724297 5.97033615,108.724297 C9.12586218,108.724297 11.6842656,106.165893 11.6842656,103.010367 Z" id="Stroke-5" stroke="#000000" stroke-width="0.633"></path>
                <polygon id="Fill-7" points="150.003998 12.8905666 145.331392 0.349373369 140.657977 12.8905666 145.331392 10.731054"></polygon>
                <polygon id="Stroke-9" stroke="#000000" points="150.003998 12.8905666 145.331392 0.349373369 140.657977 12.8905666 145.331392 10.731054"></polygon>
            </g>
        </g>
    </g>
</svg>