<?xml version="1.0" encoding="UTF-8"?>
<svg width="296px" height="61px" viewBox="0 0 296 61" version="1.1" xmlns="http://www.w3.org/2000/svg" xmlns:xlink="http://www.w3.org/1999/xlink">
    <!-- Generator: Sketch 42 (36781) - http://www.bohemiancoding.com/sketch -->
    <title>Karmina</title>
    <desc>Created with Sketch.</desc>
    <defs></defs>
    <g id="Case-Study" stroke="none" stroke-width="1" fill="none" fill-rule="evenodd">
        <g id="casestudy_timeinc_large_v2" transform="translate(-122.000000, -15617.000000)" fill="#333333">
            <g id="Group-35-Copy" transform="translate(122.000000, 15617.000000)">
                <path d="M22.905,28.655 L41.945,8.765 C42.88,8.085 45.09,7.065 46.195,6.81 L46.195,3.835 C43.985,4.005 41.86,4.005 39.565,4.005 C36.42,4.005 33.275,3.92 30.045,3.835 L30.045,6.895 C31.32,6.98 33.87,7.66 34.635,8.085 L34.805,9.02 L15.425,30.525 L15.085,30.525 L15.085,18.285 C15.34,13.865 15.595,11.57 16.275,8.85 C17.89,7.83 19.165,7.405 21.12,6.895 L21.12,3.835 C17.465,4.005 14.32,4.09 10.58,4.09 C7.095,4.09 3.525,4.005 0.04,3.835 L0.04,6.895 C2.42,7.405 4.46,8.17 6.33,9.36 C7.01,11.4 7.435,13.27 7.435,15.48 L7.435,44.805 C7.18,49.14 7.01,51.52 6.33,54.24 C4.715,55.26 3.355,55.685 1.4,56.11 L1.4,59.17 C5.14,59.085 8.2,59 11.94,59 C15.425,59 19.08,59.085 22.48,59.17 L22.48,56.195 C20.1,55.685 18.145,54.92 16.275,53.73 C15.595,51.605 15.255,49.735 15.085,47.525 L15.085,31.375 L15.51,31.375 L31.66,52.965 C33.19,55.005 34.55,57.045 35.74,59 L46.96,59 L46.96,56.195 L41.605,52.54 L22.905,28.655 Z M73.48,54.24 L72.885,54.155 C71.185,55.77 69.23,57.3 67.7,58.49 C66.51,59.255 64.725,60.02 61.41,60.02 C57.075,60.02 51.38,57.64 51.38,49.395 C51.38,45.655 52.655,43.275 54.185,41.575 C57.67,39.705 64.045,37.665 72.715,35.54 L72.715,31.375 C72.715,25.595 71.44,22.79 65.15,22.79 C62.26,22.79 60.475,23.3 60.475,23.3 C59.54,25.51 59.54,28.23 59.71,30.695 L56.14,31.715 L54.61,31.715 C54.355,28.655 53.93,25.595 53.505,22.79 C57.67,20.325 65.065,18.2 68.89,18.2 C76.71,18.2 79.515,22.28 79.515,29.59 L79.515,47.1 C79.515,49.48 80.195,52.625 80.79,54.155 C82.745,55.26 84.275,55.855 86.655,56.365 L86.655,59.17 C84.615,59.085 82.49,59 80.365,59 C78.41,59 76.455,59 74.415,59.17 C74.245,57.47 73.99,55.855 73.48,54.24 Z M72.715,50.67 L72.715,38.77 C67.275,39.96 63.28,41.32 61.155,43.105 C59.54,44.465 59.115,46.59 59.115,48.46 C59.115,52.37 60.985,54.58 64.555,54.58 C68.04,54.58 70.675,52.625 72.715,50.67 Z M95.24,47.95 C95.07,51.095 94.73,52.625 94.22,54.92 C93.455,55.6 91.925,56.11 90.65,56.45 L90.65,59.255 C94.05,59.085 97.365,59 100.765,59 C103.91,59 107.14,59.085 110.455,59.255 L110.455,56.365 C107.395,55.94 105.1,55.26 102.89,54.155 C102.38,52.54 102.125,51.18 102.04,49.735 L102.04,27.465 C103.91,25.935 105.44,24.83 107.48,24.83 C109.69,24.83 111.135,26.02 112.155,28.74 L113.6,28.74 L118.53,22.28 C117.51,20.41 114.705,18.2 111.56,18.2 C109.605,18.2 108.33,18.37 107.14,18.88 C105.27,20.495 103.655,21.94 101.615,24.065 L101.19,23.895 C101.02,22.365 100.85,20.58 101.19,19.135 L99.575,18.2 C96.005,19.645 93.54,20.58 89.035,21.345 L89.375,23.81 C91.5,24.065 93.285,24.575 94.56,25.425 C94.985,27.21 95.24,29.42 95.24,31.885 L95.24,47.95 Z M126.435,47.95 C126.265,51.095 126.01,52.625 125.5,54.92 C124.735,55.6 123.205,56.11 121.93,56.45 L121.93,59.255 C124.99,59.085 127.965,59 131.025,59 C134,59 136.975,59.085 140.035,59.255 L140.035,56.365 C137.74,55.94 136.125,55.345 134.17,54.41 C133.66,52.795 133.405,51.435 133.32,49.99 L133.32,27.125 C133.32,27.125 136.975,23.3 141.82,23.3 C147.26,23.3 149.47,26.53 149.47,32.565 L149.47,47.95 C149.3,51.095 149.045,52.625 148.62,54.92 C147.855,55.6 146.24,56.11 145.05,56.45 L145.05,59.17 C148.11,59.085 151.17,59 154.23,59 C157.12,59 159.84,59 162.73,59.17 L162.73,56.365 C160.69,55.94 158.82,55.43 157.205,54.41 C156.695,52.795 156.44,50.5 156.27,48.29 L156.27,31.375 C156.27,29.76 156.185,28.23 155.845,26.87 C155.845,26.87 160.265,23.3 164.855,23.3 C170.295,23.3 172.42,26.53 172.42,32.565 L172.42,47.95 C172.25,51.095 171.995,52.625 171.485,54.92 C170.72,55.6 168.85,56.195 167.49,56.45 L167.49,59.255 C170.72,59.085 173.695,59 176.84,59 C179.9,59 182.875,59.085 186.02,59.255 L186.02,56.365 C183.725,55.94 182.195,55.345 180.155,54.41 C179.645,52.795 179.39,51.435 179.22,49.99 L179.22,31.12 C179.22,23.045 175.14,18.2 167.83,18.2 C165.875,18.2 163.495,18.54 161.625,19.475 L154.825,24.065 C152.785,19.9 149.13,18.2 144.795,18.2 C142.755,18.2 140.545,18.71 138.675,19.475 L133.15,23.64 L132.725,23.47 C132.385,21.855 132.3,20.495 132.385,18.965 L130.77,18.2 C127.71,19.73 124.905,20.495 120.315,21.345 L120.655,23.81 C122.27,24.065 124.395,24.575 125.755,25.34 C126.18,27.21 126.435,28.91 126.435,31.375 L126.435,47.95 Z M201.66,49.99 C201.745,51.435 202,52.795 202.51,54.41 C204.55,55.345 206.08,55.855 208.375,56.365 L208.375,59.255 C204.89,59.085 201.83,59 198.685,59 C195.795,59 192.82,59.085 189.76,59.255 L189.76,56.45 C190.95,56.11 193.075,55.6 193.84,54.92 C194.35,52.625 194.69,51.095 194.86,47.95 L194.86,31.8 C194.86,29.335 194.605,27.21 194.18,25.425 C192.905,24.575 191.63,24.15 189.42,23.725 L188.995,21.345 C193.585,20.58 197.495,19.645 201.065,18.2 L202.765,19.05 C202.255,20.665 201.66,25.425 201.66,27.125 L201.66,49.99 Z M192.82,5.875 C192.82,3.155 195.115,0.86 197.75,0.86 C200.47,0.86 202.765,3.155 202.765,5.875 C202.765,8.51 200.47,10.805 197.75,10.805 C195.115,10.805 192.82,8.51 192.82,5.875 Z M217.215,47.95 C217.045,51.095 216.705,52.625 216.195,54.92 C215.43,55.6 213.9,56.11 212.625,56.45 L212.625,59.255 C215.685,59.085 218.66,59 221.635,59 C224.61,59 227.585,59.085 230.73,59.255 L230.73,56.365 C228.435,55.94 226.905,55.345 224.865,54.41 C224.355,52.795 224.1,51.435 224.015,49.99 L224.015,27.21 C226.225,25.425 229.965,23.3 233.875,23.3 C239.57,23.3 241.95,26.02 241.95,32.14 L241.95,47.95 C241.78,51.095 241.44,52.625 240.93,54.92 C240.165,55.6 238.635,56.025 237.36,56.45 L237.36,59.255 C240.505,59.085 243.48,59 246.54,59 C249.515,59 252.405,59.085 255.465,59.255 L255.465,56.365 C253.17,55.94 251.725,55.345 249.6,54.41 C249.09,52.795 248.835,51.435 248.75,49.99 L248.75,30.865 C248.75,23.045 244.84,18.2 236.255,18.2 C234.3,18.2 232.005,18.455 230.135,19.22 C227.925,20.495 225.97,22.025 223.93,23.64 L223.505,23.555 C223.25,22.365 223.08,20.495 223.165,19.05 L221.55,18.2 C217.98,19.815 215.515,20.58 211.01,21.345 L211.35,23.81 C213.475,24.065 215.26,24.575 216.535,25.425 C216.96,27.21 217.13,29.335 217.215,31.8 L217.215,47.95 Z M282.07,54.24 L281.475,54.155 C279.775,55.77 277.82,57.3 276.29,58.49 C275.1,59.255 273.315,60.02 270,60.02 C265.665,60.02 259.97,57.64 259.97,49.395 C259.97,45.655 261.245,43.275 262.775,41.575 C266.26,39.705 272.635,37.665 281.305,35.54 L281.305,31.375 C281.305,25.595 280.03,22.79 273.74,22.79 C270.85,22.79 269.065,23.3 269.065,23.3 C268.13,25.51 268.13,28.23 268.3,30.695 L264.73,31.715 L263.2,31.715 C262.945,28.655 262.52,25.595 262.095,22.79 C266.26,20.325 273.655,18.2 277.48,18.2 C285.3,18.2 288.105,22.28 288.105,29.59 L288.105,47.1 C288.105,49.48 288.785,52.625 289.38,54.155 C291.335,55.26 292.865,55.855 295.245,56.365 L295.245,59.17 C293.205,59.085 291.08,59 288.955,59 C287,59 285.045,59 283.005,59.17 C282.835,57.47 282.58,55.855 282.07,54.24 Z M281.305,50.67 L281.305,38.77 C275.865,39.96 271.87,41.32 269.745,43.105 C268.13,44.465 267.705,46.59 267.705,48.46 C267.705,52.37 269.575,54.58 273.145,54.58 C276.63,54.58 279.265,52.625 281.305,50.67 Z" id="Karmina"></path>
            </g>
        </g>
    </g>
</svg>