<?xml version="1.0" encoding="UTF-8"?>
<svg width="48px" height="79px" viewBox="0 0 48 79" version="1.1" xmlns="http://www.w3.org/2000/svg" xmlns:xlink="http://www.w3.org/1999/xlink">
    <!-- Generator: Sketch 41.2 (35397) - http://www.bohemiancoding.com/sketch -->
    <title>Group 27</title>
    <desc>Created with Sketch.</desc>
    <defs></defs>
    <g id="Home" stroke="none" stroke-width="1" fill="none" fill-rule="evenodd">
        <g id="Group-28" transform="translate(-5.000000, -103.000000)">
            <g id="Group-27" transform="translate(6.000000, 104.000000)">
                <g id="Group-26" transform="translate(23.000000, 62.500000) rotate(-180.000000) translate(-23.000000, -62.500000) translate(12.000000, 48.000000)" stroke="#6D65CB" stroke-width="1.39999998">
                    <path d="M10.6465806,28.7927561 C5.55322581,28.7927561 1.22490323,24.4972195 9.09494702e-13,18.4121707 C1.16458065,18.9469024 2.11696774,19.4943659 2.12903226,19.5021463 C2.24045161,19.5665122 2.36322581,19.5976341 2.48529032,19.5976341 C2.69890323,19.5976341 2.90896774,19.5007317 3.04806452,19.3210732 C3.26522581,19.039561 3.23896774,18.6413415 2.98703226,18.3902439 C1.04109677,16.4507805 0.0546451613,13.5253171 0.0546451613,9.69519512 C0.0546451613,4.22197561 4.11470968,0.985292683 8.47993548,-9.09494702e-13 C7.56019355,2.66163415 5.82503226,9.0727561 9.08032258,12.3172195 C9.218,12.454439 9.39967742,12.5244634 9.58206452,12.5244634 C9.73606452,12.5244634 9.89006452,12.4742439 10.0192258,12.3745122 C10.1157419,12.2995366 11.8693548,10.904 12.7003871,8.27773171 C13.2496774,10.0665366 13.840129,12.6241951 13.840129,15.3537317 C13.840129,15.6260488 13.9976774,15.8750244 14.2446452,15.992439 C14.341871,16.0384146 14.4461935,16.0610488 14.5498065,16.0610488 C14.7101935,16.0610488 14.8684516,16.0072927 14.9969032,15.9026098 C15.2048387,15.7342683 19.4210323,12.2613415 20.6210968,6.87936585 C21.1299355,8.62714634 21.6465806,11.3800244 21.6465806,15.3537317 C21.6465806,23.0153902 16.9172903,28.7927561 10.6465806,28.7927561" id="Fill-2017" fill="#FFE2BA"></path>
                    <path d="M14.3056774,20.1175122 C14.3056774,22.461561 11.7969677,24.5587561 11.7969677,24.5587561 C11.7969677,22.7084146 10.8566452,20.8573659 10.8566452,20.8573659 C10.8566452,22.3073659 8.6616129,22.3377805 8.6616129,22.3377805 C7.68154839,21.2895366 8.6616129,18.3902439 8.6616129,18.3902439 C6.27496774,18.6378049 5.07845161,19.9321951 5.07845161,22.0909268 C5.07845161,23.6180244 5.62064516,24.6337317 6.46658065,25.2986098 C6.46658065,25.2986098 5.71574194,24.9562683 4.96774194,24.7306341 C5.35593548,27.1482439 7.48993548,29 10.0724516,29 C12.9303226,29 15.2467097,26.9176585 15.2467097,24.0650488 C15.2467097,21.212439 14.3056774,20.1175122 14.3056774,20.1175122 L14.3056774,20.1175122 Z" id="Stroke-2020" stroke-linejoin="round"></path>
                </g>
                <polygon id="Fill-2637" fill="#FFFFFF" points="13 42 33 42 33 50 13 50"></polygon>
                <polygon id="Stroke-2638" stroke="#6D65CB" stroke-width="2" stroke-linecap="round" points="13 42 33 42 33 50 13 50"></polygon>
                <path d="M23,0 L23,0 C20.425,0 17.941,0.953 16.027,2.676 C11.554,6.701 9,12.436 9,18.453 L9,45 L13,45 L13,42 L33,42 L33,45 L37,45 L37,18.453 C37,12.436 34.446,6.701 29.973,2.676 C28.059,0.953 25.575,0 23,0 L23,0 Z" id="Fill-2640"></path>
                <path d="M23,0 L23,0 C20.425,0 17.941,0.953 16.027,2.676 C11.554,6.701 9,12.436 9,18.453 L9,45 L13,45 L13,42 L33,42 L33,45 L37,45 L37,18.453 C37,12.436 34.446,6.701 29.973,2.676 C28.059,0.953 25.575,0 23,0 L23,0 Z" id="Stroke-2641" stroke="#6D65CB" stroke-width="2" stroke-linecap="round"></path>
                <path d="M9,17 L37,17 M29,42 L29,33" id="Stroke-2642" stroke="#6D65CB" stroke-width="2" stroke-linecap="round"></path>
                <path d="M34,28 C34,30.761 31.761,33 29,33 C26.239,33 24,30.761 24,28 C24,25.238 26.239,23 29,23 C31.761,23 34,25.238 34,28 L34,28 Z" id="Fill-2643" fill="#FFE2BA"></path>
                <path d="M34,28 C34,30.761 31.761,33 29,33 C26.239,33 24,30.761 24,28 C24,25.238 26.239,23 29,23 C31.761,23 34,25.238 34,28 L34,28 Z" id="Stroke-2644" stroke="#6D65CB" stroke-width="2" stroke-linecap="round"></path>
                <path d="M29,23 L29,17 L29,23 Z M9,24 L17,24 L17,33 L9,33 L9,24 Z M9,27 L17,27 L9,27 Z M9,30 L17,30 L9,30 Z" id="Stroke-2645" stroke="#6D65CB" stroke-width="2" stroke-linecap="round"></path>
                <path d="M14,38 C14,38.552 13.552,39 13,39 C12.448,39 12,38.552 12,38 C12,37.448 12.448,37 13,37 C13.552,37 14,37.448 14,38" id="Fill-2646" fill="#6D65CB"></path>
                <path d="M18,38 C18,38.552 17.552,39 17,39 C16.448,39 16,38.552 16,38 C16,37.448 16.448,37 17,37 C17.552,37 18,37.448 18,38" id="Fill-2647" fill="#6D65CB"></path>
                <path d="M22,38 C22,38.552 21.552,39 21,39 C20.448,39 20,38.552 20,38 C20,37.448 20.448,37 21,37 C21.552,37 22,37.448 22,38" id="Fill-2648" fill="#6D65CB"></path>
                <path d="M26,38 C26,38.552 25.552,39 25,39 C24.448,39 24,38.552 24,38 C24,37.448 24.448,37 25,37 C25.552,37 26,37.448 26,38" id="Fill-2649" fill="#6D65CB"></path>
                <path d="M34,38 C34,38.552 33.552,39 33,39 C32.448,39 32,38.552 32,38 C32,37.448 32.448,37 33,37 C33.552,37 34,37.448 34,38" id="Fill-2650" fill="#6D65CB"></path>
                <polygon id="Fill-2651" fill="#FFFFFF" points="9 42 4 41 4 39 9 38"></polygon>
                <polygon id="Stroke-2652" stroke="#6D65CB" stroke-width="2" stroke-linecap="round" points="8.73817845 43.4659745 0.0732421875 41.7329873 0.0732421875 38.2670127 8.73817845 36.5340255"></polygon>
                <polygon id="Fill-2653" fill="#FFFFFF" points="37 38 42 39 42 41 37 42"></polygon>
                <polygon id="Stroke-2654" stroke="#6D65CB" stroke-width="2" stroke-linecap="round" points="37.2618215 36.5340255 45.9267578 38.2670127 45.9267578 41.7329873 37.2618215 43.4659745"></polygon>
            </g>
        </g>
    </g>
</svg>