<?xml version="1.0" encoding="UTF-8"?>
<svg width="30px" height="30px" viewBox="0 0 30 30" version="1.1" xmlns="http://www.w3.org/2000/svg" xmlns:xlink="http://www.w3.org/1999/xlink">
    <!-- Generator: Sketch 41.2 (35397) - http://www.bohemiancoding.com/sketch -->
    <title>learn</title>
    <desc>Created with Sketch.</desc>
    <defs></defs>
    <g id="Design-Sprint-Academy" stroke="none" stroke-width="1" fill="none" fill-rule="evenodd">
        <g id="design_sprints_small_v2" transform="translate(-21.000000, -785.000000)">
            <g id="Group-13" transform="translate(21.000000, 520.000000)">
                <g id="Group-19" transform="translate(0.000000, 265.000000)">
                    <g id="Group-18">
                        <g id="learn">
                            <g id="Group-14" transform="translate(0.000000, 1.000000)">
                                <path d="M29,14.5 C29,22.508 22.508,29 14.5,29 C6.492,29 0,22.508 0,14.5 C0,6.492 6.492,0 14.5,0 C22.508,0 29,6.492 29,14.5 L29,14.5 Z" id="Fill-2766"></path>
                                <g id="Group-17" transform="translate(8.000000, 5.000000)" stroke="#6D65CB">
                                    <path d="M1.5,3.5 L0.5,2.5" id="Line" stroke-linecap="round"></path>
                                    <path d="M6.5,1.5 L6.5,0.5" id="Line" stroke-linecap="round"></path>
                                    <path d="M11.5,3.5 L12.5,2.5" id="Line" stroke-linecap="round"></path>
                                    <path d="M9.8686123,7.67393989 C9.8686123,5.62605021 8.04164843,4.0051228 5.92856753,4.3524069 C4.6005982,4.5705158 3.51488267,5.6015029 3.21749802,6.91377805 C2.93902688,8.1427533 3.35914808,9.28762383 4.13983308,10.0590533 C4.43238875,10.3475848 4.60824408,13.5580513 4.67906911,13.9632831 L5.09677583,18.5982985 C5.15673566,18.9431681 5.45613238,19.1946775 5.80623339,19.1946775 L7.19376013,19.1946775 C7.54386114,19.1946775 7.84325786,18.9431681 7.90321768,18.5982985 L8.3261558,13.9339068 C8.39416392,13.5435643 8.56559269,10.3471824 8.84889281,10.0699185 C9.47223357,9.45985743 9.8686123,8.61237155 9.8686123,7.67393989 L9.8686123,7.67393989 Z" id="Stroke-2783" stroke-width="0.6" stroke-linejoin="round" fill="#FFE2BA"></path>
                                    <path d="M6.49999676,7.52464394 L6.49999676,10.3415486 L6.87303542,11.5194171 C6.88913201,11.5355137 6.88913201,11.5620731 6.87303542,11.5781697 L6.12736052,12.3238446 C6.1108615,12.3403436 6.1108615,12.366903 6.12736052,12.383402 L6.87303542,13.1290769 C6.88913201,13.1451735 6.88913201,13.1717329 6.87303542,13.1878295 L6.12736052,13.9339068 C6.1108615,13.9500034 6.1108615,13.9765628 6.12736052,13.9926594 L6.87303542,14.7383343 C6.88913201,14.7548333 6.88913201,14.7813927 6.87303542,14.7978917 L6.12736052,15.5435666 C6.1108615,15.5596632 6.1108615,15.5862226 6.12736052,15.6023192 L6.87303542,16.3483965 C6.88913201,16.3644931 6.88913201,16.3910525 6.87303542,16.4071491 L6.12736052,17.152824 C6.1108615,17.169323 6.1108615,17.1958824 6.12736052,17.2123814 L6.90241171,17.9874326" id="Path" stroke-width="0.6" stroke-linecap="round" stroke-linejoin="round"></path>
                                </g>
                            </g>
                            <polyline id="Path" stroke="#6D65CB" stroke-linejoin="round" points="1 24 1 17.4166667 6 17.4166667"></polyline>
                            <path d="M4.64,5.33333333 C7.19084,2.323375 10.92256,0.5 15.08,0.5 C22.76732,0.5 29,6.992375 29,15 C29,23.007625 22.76732,29.5 15.08,29.5 C8.18264,29.5 2.26432,24.2751667 1.16,17.4166667" id="Stroke-1308" stroke="#6D65CB" stroke-linecap="round" stroke-linejoin="round"></path>
                        </g>
                    </g>
                </g>
            </g>
        </g>
    </g>
</svg>