<?xml version="1.0" encoding="UTF-8"?>
<svg width="18px" height="12px" viewBox="0 0 18 12" version="1.1" xmlns="http://www.w3.org/2000/svg" xmlns:xlink="http://www.w3.org/1999/xlink">
    <!-- Generator: Sketch 41.2 (35397) - http://www.bohemiancoding.com/sketch -->
    <title>align-justify</title>
    <desc>Created with Sketch.</desc>
    <defs></defs>
    <g id="Innovation-Services" stroke="none" stroke-width="1" fill="none" fill-rule="evenodd">
        <g id="innovation_services_small_v2" transform="translate(-337.000000, -24.000000)" fill="#000000">
            <g id="Nav">
                <path d="M355,34.5048 C355,34.007775 354.597025,33.6048 354.1,33.6048 L337.9,33.6048 C337.402975,33.6048 337,34.007775 337,34.5048 C337,35.001825 337.402975,35.4048 337.9,35.4048 L354.1,35.4048 C354.597025,35.4048 355,35.001825 355,34.5048 M355,29.7096 C355,29.212575 354.597025,28.8096 354.1,28.8096 L337.9,28.8096 C337.402975,28.8096 337,29.212575 337,29.7096 C337,30.206625 337.402975,30.6096 337.9,30.6096 L354.1,30.6096 C354.597025,30.6096 355,30.206625 355,29.7096 M354.1,25.8 L337.9,25.8 C337.402975,25.8 337,25.397025 337,24.9 C337,24.402975 337.402975,24 337.9,24 L354.1,24 C354.597025,24 355,24.402975 355,24.9 C355,25.397025 354.597025,25.8 354.1,25.8" id="align-justify"></path>
            </g>
        </g>
    </g>
</svg>