<?xml version="1.0" encoding="UTF-8"?>
<svg width="60px" height="60px" viewBox="0 0 60 60" version="1.1" xmlns="http://www.w3.org/2000/svg" xmlns:xlink="http://www.w3.org/1999/xlink">
    <!-- Generator: Sketch 41.2 (35397) - http://www.bohemiancoding.com/sketch -->
    <title>Group 30</title>
    <desc>Created with Sketch.</desc>
    <defs></defs>
    <g id="Home" stroke="none" stroke-width="1" fill="none" fill-rule="evenodd">
        <g id="Group-30" transform="translate(1.000000, 1.000000)">
            <g id="Hamburger-Menu">
                <polygon id="Fill-3676" fill="#FFFFFF" points="0 0 58 0 58 58 0 58"></polygon>
                <polygon id="Stroke-3677" stroke="#6D65CB" stroke-width="2" stroke-linejoin="round" points="0 0 58 0 58 58 0 58"></polygon>
                <rect id="Rectangle-10" fill-opacity="0.5" fill="#6D65CB" x="20" y="0" width="19.2999992" height="58"></rect>
                <path d="M7,35 L28,35" id="Path" stroke="#6D65CB" stroke-width="2" stroke-linecap="round" stroke-linejoin="round"></path>
                <path d="M7,29 L18,29" id="Path-Copy" stroke="#6D65CB" stroke-width="2" stroke-linecap="round" stroke-linejoin="round"></path>
                <path d="M32,35 L41,35" id="Path" stroke="#6D65CB" stroke-width="2" stroke-linecap="round" stroke-linejoin="round"></path>
                <path d="M21,29 L28,29" id="Path-Copy-2" stroke="#6D65CB" stroke-width="2" stroke-linecap="round" stroke-linejoin="round"></path>
                <path d="M41,40 L30,40" id="Path" stroke="#6D65CB" stroke-width="2" stroke-linecap="round" stroke-linejoin="round"></path>
                <path d="M26,40 L17,40" id="Path" stroke="#6D65CB" stroke-width="2" stroke-linecap="round" stroke-linejoin="round"></path>
                <path d="M16.9791757,45 L41,45" id="Path" stroke="#6D65CB" stroke-width="2" stroke-linecap="round" stroke-linejoin="round"></path>
                <path d="M45,45 L51,45" id="Path" stroke="#6D65CB" stroke-width="2" stroke-linecap="round" stroke-linejoin="round"></path>
                <path d="M51,50 L30,50" id="Path" stroke="#6D65CB" stroke-width="2" stroke-linecap="round" stroke-linejoin="round"></path>
                <path d="M18,6 C18,7.657 16.657,9 15,9 C13.343,9 12,7.657 12,6 C12,4.343 13.343,3 15,3 C16.657,3 18,4.343 18,6 L18,6 Z" id="Fill-3905" fill="#FFFFFF"></path>
            </g>
            <text id="Jan" font-family="Montserrat-Regular, Montserrat" font-size="6" font-weight="normal" letter-spacing="0.198461518" fill="#6D65CB">
                <tspan x="4.74261545" y="8">Jan</tspan>
            </text>
            <text id="Feb" font-family="Montserrat-Regular, Montserrat" font-size="6" font-weight="normal" letter-spacing="0.198461518" fill="#6D65CB">
                <tspan x="24.0406154" y="8">Feb</tspan>
            </text>
            <text id="Mar" font-family="Montserrat-Regular, Montserrat" font-size="6" font-weight="normal" letter-spacing="0.198461518" fill="#6D65CB">
                <tspan x="41.6026154" y="8">Mar</tspan>
            </text>
        </g>
    </g>
</svg>