<?xml version="1.0" encoding="UTF-8"?>
<svg width="36px" height="36px" viewBox="0 0 36 36" version="1.1" xmlns="http://www.w3.org/2000/svg" xmlns:xlink="http://www.w3.org/1999/xlink">
    <!-- Generator: Sketch 41.2 (35397) - http://www.bohemiancoding.com/sketch -->
    <title>prototype</title>
    <desc>Created with Sketch.</desc>
    <defs></defs>
    <g id="Design-Sprint-Academy" stroke="none" stroke-width="1" fill="none" fill-rule="evenodd">
        <g id="design_sprints_small_v2" transform="translate(-20.000000, -680.000000)">
            <g id="Group-13" transform="translate(21.000000, 520.000000)">
                <g id="Group-12-Copy-3" transform="translate(0.000000, 161.000000)">
                    <g id="prototype">
                        <path d="M23.5435088,22.6666667 L10.4564912,22.6666667 C9.95245614,22.6666667 9.54385965,22.2580702 9.54385965,21.7540351 L9.54385965,12.2459649 C9.54385965,11.7419298 9.95245614,11.3333333 10.4564912,11.3333333 L23.5435088,11.3333333 C24.0475439,11.3333333 24.4561404,11.7419298 24.4561404,12.2459649 L24.4561404,21.7540351 C24.4561404,22.2580702 24.0475439,22.6666667 23.5435088,22.6666667 L23.5435088,22.6666667 Z" id="Fill-39" fill="#FFFFFF"></path>
                        <path d="M23.5435088,22.6666667 L10.4564912,22.6666667 C9.95245614,22.6666667 9.54385965,22.2580702 9.54385965,21.7540351 L9.54385965,12.2459649 C9.54385965,11.7419298 9.95245614,11.3333333 10.4564912,11.3333333 L23.5435088,11.3333333 C24.0475439,11.3333333 24.4561404,11.7419298 24.4561404,12.2459649 L24.4561404,21.7540351 C24.4561404,22.2580702 24.0475439,22.6666667 23.5435088,22.6666667 L23.5435088,22.6666667 Z" id="Stroke-40" stroke="#6D65CB" stroke-linejoin="round"></path>
                        <polygon id="Fill-41" fill="#FFFFFF" points="13.7192982 8.35087719 20.2807018 8.35087719 20.2807018 11.3333333 13.7192982 11.3333333"></polygon>
                        <polygon id="Stroke-42" stroke="#6D65CB" stroke-linejoin="round" points="13.7192982 8.35087719 20.2807018 8.35087719 20.2807018 11.3333333 13.7192982 11.3333333"></polygon>
                        <path d="M22.0701754,8.35087719 L11.9298246,8.35087719 L11.9298246,1.56221053 C11.9298246,0.699684211 12.6295088,0 13.4920351,0 L20.5079649,0 C21.3704912,0 22.0701754,0.699684211 22.0701754,1.56221053 L22.0701754,8.35087719 L22.0701754,8.35087719 Z" id="Fill-43" fill="#FFFFFF"></path>
                        <path d="M22.0701754,8.35087719 L11.9298246,8.35087719 L11.9298246,1.56221053 C11.9298246,0.699684211 12.6295088,0 13.4920351,0 L20.5079649,0 C21.3704912,0 22.0701754,0.699684211 22.0701754,1.56221053 L22.0701754,8.35087719 L22.0701754,8.35087719 Z" id="Stroke-44" stroke="#6D65CB" stroke-linejoin="round"></path>
                        <path d="M15.5087719,2.38596491 C15.5087719,2.71522807 15.2415439,2.98245614 14.9122807,2.98245614 C14.5830175,2.98245614 14.3157895,2.71522807 14.3157895,2.38596491 C14.3157895,2.05670175 14.5830175,1.78947368 14.9122807,1.78947368 C15.2415439,1.78947368 15.5087719,2.05670175 15.5087719,2.38596491" id="Fill-45" fill="#6D65CB"></path>
                        <path d="M19.6842105,2.38596491 C19.6842105,2.71522807 19.4169825,2.98245614 19.0877193,2.98245614 C18.7584561,2.98245614 18.4912281,2.71522807 18.4912281,2.38596491 C18.4912281,2.05670175 18.7584561,1.78947368 19.0877193,1.78947368 C19.4169825,1.78947368 19.6842105,2.05670175 19.6842105,2.38596491" id="Fill-46" fill="#6D65CB"></path>
                        <polygon id="Fill-47" fill="#FFFFFF" points="11.9298246 7.15789474 10.1403509 6.56140351 10.1403509 2.98245614 11.9298246 2.38596491"></polygon>
                        <polygon id="Stroke-48" stroke="#6D65CB" stroke-linejoin="round" points="11.9298246 7.15789474 10.1403509 6.56140351 10.1403509 2.98245614 11.9298246 2.38596491"></polygon>
                        <polygon id="Fill-49" fill="#FFFFFF" points="22.0701754 7.15789474 23.8596491 6.56140351 23.8596491 2.98245614 22.0701754 2.38596491"></polygon>
                        <polygon id="Stroke-50" stroke="#6D65CB" stroke-linejoin="round" points="22.0701754 7.15789474 23.8596491 6.56140351 23.8596491 2.98245614 22.0701754 2.38596491"></polygon>
                        <path d="M1.78947368,23.8596491 L4.1754386,23.8596491 C4.1754386,19.9126667 5.59687719,16.7017544 9.54385965,16.7017544 L9.54385965,14.3157895 C4.28161404,14.3157895 1.78947368,18.5974035 1.78947368,23.8596491 L1.78947368,23.8596491 Z" id="Fill-51" fill="#FFFFFF"></path>
                        <path d="M1.78947368,23.8596491 L4.1754386,23.8596491 C4.1754386,19.9126667 5.59687719,16.7017544 9.54385965,16.7017544 L9.54385965,14.3157895 C4.28161404,14.3157895 1.78947368,18.5974035 1.78947368,23.8596491 L1.78947368,23.8596491 Z" id="Stroke-52" stroke="#6D65CB" stroke-linejoin="round"></path>
                        <path d="M16.1052632,16.7017544 C16.1052632,18.0194035 15.0369474,19.0877193 13.7192982,19.0877193 C12.4016491,19.0877193 11.3333333,18.0194035 11.3333333,16.7017544 C11.3333333,15.3841053 12.4016491,14.3157895 13.7192982,14.3157895 C15.0369474,14.3157895 16.1052632,15.3841053 16.1052632,16.7017544 L16.1052632,16.7017544 Z" id="Fill-53" fill="#FFE2BA"></path>
                        <path d="M16.1052632,16.7017544 C16.1052632,18.0194035 15.0369474,19.0877193 13.7192982,19.0877193 C12.4016491,19.0877193 11.3333333,18.0194035 11.3333333,16.7017544 C11.3333333,15.3841053 12.4016491,14.3157895 13.7192982,14.3157895 C15.0369474,14.3157895 16.1052632,15.3841053 16.1052632,16.7017544 L16.1052632,16.7017544 Z" id="Stroke-54" stroke="#6D65CB" stroke-linejoin="round"></path>
                        <path d="M18.4912281,19.0877193 L22.6666667,19.0877193 M19.0877193,16.7017544 L22.6666667,16.7017544 M19.0877193,14.3157895 L22.6666667,14.3157895 M1.19417544,29.2292632 C0.469438596,28.6852632 0,27.8185614 0,26.8421053 C0,25.195193 1.33554386,23.8596491 2.98245614,23.8596491 C4.62936842,23.8596491 5.96491228,25.195193 5.96491228,26.8421053 C5.96491228,27.8179649 5.49607018,28.6840702 4.77192982,29.2280702" id="Stroke-55" stroke="#6D65CB" stroke-linecap="round" stroke-linejoin="round"></path>
                        <path d="M32.2105263,23.8596491 L29.8245614,23.8596491 C29.8245614,19.9126667 28.4031228,16.7017544 24.4561404,16.7017544 L24.4561404,14.3157895 C29.718386,14.3157895 32.2105263,18.5974035 32.2105263,23.8596491 L32.2105263,23.8596491 Z" id="Fill-56" fill="#FFFFFF"></path>
                        <path d="M32.2105263,23.8596491 L29.8245614,23.8596491 C29.8245614,19.9126667 28.4031228,16.7017544 24.4561404,16.7017544 L24.4561404,14.3157895 C29.718386,14.3157895 32.2105263,18.5974035 32.2105263,23.8596491 L32.2105263,23.8596491 Z" id="Stroke-57" stroke="#6D65CB" stroke-linejoin="round"></path>
                        <path d="M32.8058246,29.2292632 C33.5305614,28.6852632 34,27.8185614 34,26.8421053 C34,25.195193 32.6644561,23.8596491 31.0175439,23.8596491 C29.3706316,23.8596491 28.0350877,25.195193 28.0350877,26.8421053 C28.0350877,27.8179649 28.5039298,28.6840702 29.2280702,29.2280702" id="Stroke-58" stroke="#6D65CB" stroke-linecap="round" stroke-linejoin="round"></path>
                        <path d="M14.9122807,34 L9.45617544,34 C8.84596491,34 8.35087719,33.5049123 8.35087719,32.8947018 L8.35087719,32.1228421 C8.35087719,31.5126316 8.84596491,31.0175439 9.45617544,31.0175439 L14.9122807,31.0175439 L14.9122807,34 L14.9122807,34 Z" id="Fill-59" fill="#FFFFFF"></path>
                        <path d="M14.9122807,34 L9.45617544,34 C8.84596491,34 8.35087719,33.5049123 8.35087719,32.8947018 L8.35087719,32.1228421 C8.35087719,31.5126316 8.84596491,31.0175439 9.45617544,31.0175439 L14.9122807,31.0175439 L14.9122807,34 L14.9122807,34 Z" id="Stroke-60" stroke="#6D65CB" stroke-linecap="round" stroke-linejoin="round"></path>
                        <path d="M24.5438246,34 L19.0877193,34 L19.0877193,31.0175439 L24.5438246,31.0175439 C25.1546316,31.0175439 25.6491228,31.5126316 25.6491228,32.1228421 L25.6491228,32.8947018 C25.6491228,33.5049123 25.1546316,34 24.5438246,34 L24.5438246,34 Z" id="Fill-61" fill="#FFFFFF"></path>
                        <path d="M24.5438246,34 L19.0877193,34 L19.0877193,31.0175439 L24.5438246,31.0175439 C25.1546316,31.0175439 25.6491228,31.5126316 25.6491228,32.1228421 L25.6491228,32.8947018 C25.6491228,33.5049123 25.1546316,34 24.5438246,34 L24.5438246,34 Z" id="Stroke-62" stroke="#6D65CB" stroke-linecap="round" stroke-linejoin="round"></path>
                        <path d="M19.0877193,4.77192982 C19.0877193,5.92494737 18.1530175,6.56140351 17,6.56140351 C15.8469825,6.56140351 14.9122807,5.92494737 14.9122807,4.77192982" id="Stroke-63" stroke="#6D65CB" stroke-linecap="round" stroke-linejoin="round"></path>
                        <polygon id="Fill-121" fill="#FFE2BA" points="8.94736842 25.0526316 12.5263158 25.0526316 12.5263158 28.0350877 8.94736842 28.0350877"></polygon>
                        <polygon id="Stroke-122" stroke="#6D65CB" stroke-linecap="round" stroke-linejoin="round" points="8.94736842 25.0526316 12.5263158 25.0526316 12.5263158 28.0350877 8.94736842 28.0350877"></polygon>
                        <polygon id="Fill-123" fill="#FFE2BA" points="21.4736842 25.0526316 25.0526316 25.0526316 25.0526316 28.0350877 21.4736842 28.0350877"></polygon>
                        <polygon id="Stroke-124" stroke="#6D65CB" stroke-linecap="round" stroke-linejoin="round" points="21.4736842 25.0526316 25.0526316 25.0526316 25.0526316 28.0350877 21.4736842 28.0350877"></polygon>
                        <polygon id="Fill-125" fill="#FFFFFF" points="21.4736842 28.0350877 21.4736842 25.0526316 23.2631579 25.0526316 23.2631579 22.6666667 19.0877193 22.6666667 19.0877193 31.0175439 23.2631579 31.0175439 23.2631579 28.0350877"></polygon>
                        <polygon id="Stroke-126" stroke="#6D65CB" stroke-linecap="round" stroke-linejoin="round" points="21.4736842 28.0350877 21.4736842 25.0526316 23.2631579 25.0526316 23.2631579 22.6666667 19.0877193 22.6666667 19.0877193 31.0175439 23.2631579 31.0175439 23.2631579 28.0350877"></polygon>
                        <polygon id="Fill-127" fill="#FFFFFF" points="10.7368421 22.6666667 10.7368421 25.0526316 12.5263158 25.0526316 12.5263158 28.0350877 10.7368421 28.0350877 10.7368421 31.0175439 14.9122807 31.0175439 14.9122807 22.6666667"></polygon>
                        <polygon id="Stroke-128" stroke="#6D65CB" stroke-linecap="round" stroke-linejoin="round" points="10.7368421 22.6666667 10.7368421 25.0526316 12.5263158 25.0526316 12.5263158 28.0350877 10.7368421 28.0350877 10.7368421 31.0175439 14.9122807 31.0175439 14.9122807 22.6666667"></polygon>
                        <path d="M10.1403509,4.77192982 L7.15789474,4.77192982 M26.8421053,4.77192982 L23.8596491,4.77192982" id="Stroke-129" stroke="#6D65CB" stroke-linecap="round" stroke-linejoin="round"></path>
                        <path d="M30.4210526,4.77192982 C30.4210526,5.76031579 29.6199649,6.56140351 28.6315789,6.56140351 C27.643193,6.56140351 26.8421053,5.76031579 26.8421053,4.77192982 C26.8421053,3.78354386 27.643193,2.98245614 28.6315789,2.98245614 C29.6199649,2.98245614 30.4210526,3.78354386 30.4210526,4.77192982 L30.4210526,4.77192982 Z" id="Fill-130" fill="#FFE2BA"></path>
                        <path d="M30.4210526,4.77192982 C30.4210526,5.76031579 29.6199649,6.56140351 28.6315789,6.56140351 C27.643193,6.56140351 26.8421053,5.76031579 26.8421053,4.77192982 C26.8421053,3.78354386 27.643193,2.98245614 28.6315789,2.98245614 C29.6199649,2.98245614 30.4210526,3.78354386 30.4210526,4.77192982 L30.4210526,4.77192982 Z" id="Stroke-131" stroke="#6D65CB" stroke-linecap="round" stroke-linejoin="round"></path>
                        <path d="M7.15789474,4.77192982 C7.15789474,5.76031579 6.35680702,6.56140351 5.36842105,6.56140351 C4.38003509,6.56140351 3.57894737,5.76031579 3.57894737,4.77192982 C3.57894737,3.78354386 4.38003509,2.98245614 5.36842105,2.98245614 C6.35680702,2.98245614 7.15789474,3.78354386 7.15789474,4.77192982 L7.15789474,4.77192982 Z" id="Fill-132" fill="#FFE2BA"></path>
                        <path d="M7.15789474,4.77192982 C7.15789474,5.76031579 6.35680702,6.56140351 5.36842105,6.56140351 C4.38003509,6.56140351 3.57894737,5.76031579 3.57894737,4.77192982 C3.57894737,3.78354386 4.38003509,2.98245614 5.36842105,2.98245614 C6.35680702,2.98245614 7.15789474,3.78354386 7.15789474,4.77192982 L7.15789474,4.77192982 Z" id="Stroke-133" stroke="#6D65CB" stroke-linecap="round" stroke-linejoin="round"></path>
                    </g>
                </g>
            </g>
        </g>
    </g>
</svg>