<?xml version="1.0" encoding="UTF-8"?>
<svg width="41px" height="41px" viewBox="0 0 41 41" version="1.1" xmlns="http://www.w3.org/2000/svg" xmlns:xlink="http://www.w3.org/1999/xlink">
    <!-- Generator: Sketch 41.2 (35397) - http://www.bohemiancoding.com/sketch -->
    <title>sketch</title>
    <desc>Created with Sketch.</desc>
    <defs></defs>
    <g id="Design-Sprint-Academy" stroke="none" stroke-width="1" fill="none" fill-rule="evenodd">
        <g id="design_sprints_small_v2" transform="translate(-20.000000, -567.000000)">
            <g id="Group-13" transform="translate(21.000000, 520.000000)">
                <g id="Group-12-Copy" transform="translate(0.000000, 48.000000)">
                    <g id="sketch">
                        <g id="Edit-Top-Right-Corner">
                            <polygon id="Fill-464" fill="#FFFFFF" points="0 0 8.06896552 0 8.06896552 8.06896552 0 8.06896552"></polygon>
                            <polygon id="Stroke-465" stroke="#6D65CB" points="0 0 8.06896552 0 8.06896552 8.06896552 0 8.06896552"></polygon>
                            <polygon id="Fill-466" fill="#FFE2BA" points="30.9310345 0 39 0 39 8.06896552 30.9310345 8.06896552"></polygon>
                            <polygon id="Stroke-467" stroke="#6D65CB" points="30.9310345 0 39 0 39 8.06896552 30.9310345 8.06896552"></polygon>
                            <polygon id="Fill-468" fill="#FFFFFF" points="0 30.9310345 8.06896552 30.9310345 8.06896552 39 0 39"></polygon>
                            <polygon id="Stroke-469" stroke="#6D65CB" points="0 30.9310345 8.06896552 30.9310345 8.06896552 39 0 39"></polygon>
                            <polygon id="Fill-470" fill="#FFFFFF" points="30.9310345 30.9310345 39 30.9310345 39 39 30.9310345 39"></polygon>
                            <polygon id="Stroke-471" stroke="#6D65CB" points="30.9310345 30.9310345 39 30.9310345 39 39 30.9310345 39"></polygon>
                            <path d="M30.2586207,34.9655172 C30.2586207,34.5956897 30.5612069,34.2931034 30.9310345,34.2931034 C31.3008621,34.2931034 31.6034483,34.5956897 31.6034483,34.9655172 C31.6034483,35.3353448 31.3008621,35.637931 30.9310345,35.637931 C30.5612069,35.637931 30.2586207,35.3353448 30.2586207,34.9655172 L30.2586207,34.9655172 Z M27.5689655,34.9655172 C27.5689655,34.5956897 27.8715517,34.2931034 28.2413793,34.2931034 C28.6112069,34.2931034 28.9137931,34.5956897 28.9137931,34.9655172 C28.9137931,35.3353448 28.6112069,35.637931 28.2413793,35.637931 C27.8715517,35.637931 27.5689655,35.3353448 27.5689655,34.9655172 L27.5689655,34.9655172 Z M24.8793103,34.9655172 C24.8793103,34.5956897 25.1751724,34.2931034 25.5517241,34.2931034 C25.9215517,34.2931034 26.2241379,34.5956897 26.2241379,34.9655172 C26.2241379,35.3353448 25.9215517,35.637931 25.5517241,35.637931 C25.1751724,35.637931 24.8793103,35.3353448 24.8793103,34.9655172 L24.8793103,34.9655172 Z M22.1896552,34.9655172 C22.1896552,34.5956897 22.4922414,34.2931034 22.862069,34.2931034 C23.2318966,34.2931034 23.5344828,34.5956897 23.5344828,34.9655172 C23.5344828,35.3353448 23.2318966,35.637931 22.862069,35.637931 C22.4922414,35.637931 22.1896552,35.3353448 22.1896552,34.9655172 L22.1896552,34.9655172 Z M19.5,34.9655172 C19.5,34.5956897 19.8025862,34.2931034 20.1724138,34.2931034 C20.5422414,34.2931034 20.8448276,34.5956897 20.8448276,34.9655172 C20.8448276,35.3353448 20.5422414,35.637931 20.1724138,35.637931 C19.8025862,35.637931 19.5,35.3353448 19.5,34.9655172 L19.5,34.9655172 Z M16.8103448,34.9655172 C16.8103448,34.5956897 17.112931,34.2931034 17.4827586,34.2931034 C17.8525862,34.2931034 18.1551724,34.5956897 18.1551724,34.9655172 C18.1551724,35.3353448 17.8525862,35.637931 17.4827586,35.637931 C17.112931,35.637931 16.8103448,35.3353448 16.8103448,34.9655172 L16.8103448,34.9655172 Z M14.1206897,34.9655172 C14.1206897,34.5956897 14.4232759,34.2931034 14.7931034,34.2931034 C15.162931,34.2931034 15.4655172,34.5956897 15.4655172,34.9655172 C15.4655172,35.3353448 15.162931,35.637931 14.7931034,35.637931 C14.4232759,35.637931 14.1206897,35.3353448 14.1206897,34.9655172 L14.1206897,34.9655172 Z M11.4310345,34.9655172 C11.4310345,34.5956897 11.7336207,34.2931034 12.1034483,34.2931034 C12.4732759,34.2931034 12.7758621,34.5956897 12.7758621,34.9655172 C12.7758621,35.3353448 12.4732759,35.637931 12.1034483,35.637931 C11.7336207,35.637931 11.4310345,35.3353448 11.4310345,34.9655172 L11.4310345,34.9655172 Z M8.74137931,34.9655172 C8.74137931,34.5956897 9.04396552,34.2931034 9.4137931,34.2931034 C9.78362069,34.2931034 10.0862069,34.5956897 10.0862069,34.9655172 C10.0862069,35.3353448 9.78362069,35.637931 9.4137931,35.637931 C9.04396552,35.637931 8.74137931,35.3353448 8.74137931,34.9655172 L8.74137931,34.9655172 Z M7.39655172,33.6206897 C7.39655172,33.2508621 7.69913793,32.9482759 8.06896552,32.9482759 C8.4387931,32.9482759 8.74137931,33.2508621 8.74137931,33.6206897 C8.74137931,33.9905172 8.4387931,34.2931034 8.06896552,34.2931034 C7.69913793,34.2931034 7.39655172,33.9905172 7.39655172,33.6206897 L7.39655172,33.6206897 Z M30.2586207,32.2758621 C30.2586207,31.9060345 30.5612069,31.6034483 30.9310345,31.6034483 C31.3008621,31.6034483 31.6034483,31.9060345 31.6034483,32.2758621 C31.6034483,32.6456897 31.3008621,32.9482759 30.9310345,32.9482759 C30.5612069,32.9482759 30.2586207,32.6456897 30.2586207,32.2758621 L30.2586207,32.2758621 Z M34.2931034,30.9310345 C34.2931034,30.5612069 34.5956897,30.2586207 34.9655172,30.2586207 C35.3353448,30.2586207 35.637931,30.5612069 35.637931,30.9310345 C35.637931,31.3008621 35.3353448,31.6034483 34.9655172,31.6034483 C34.5956897,31.6034483 34.2931034,31.3008621 34.2931034,30.9310345 L34.2931034,30.9310345 Z M31.6034483,30.9310345 C31.6034483,30.5612069 31.9060345,30.2586207 32.2758621,30.2586207 C32.6456897,30.2586207 32.9482759,30.5612069 32.9482759,30.9310345 C32.9482759,31.3008621 32.6456897,31.6034483 32.2758621,31.6034483 C31.9060345,31.6034483 31.6034483,31.3008621 31.6034483,30.9310345 L31.6034483,30.9310345 Z M7.39655172,30.9310345 C7.39655172,30.5612069 7.69913793,30.2586207 8.06896552,30.2586207 C8.4387931,30.2586207 8.74137931,30.5612069 8.74137931,30.9310345 C8.74137931,31.3008621 8.4387931,31.6034483 8.06896552,31.6034483 C7.69913793,31.6034483 7.39655172,31.3008621 7.39655172,30.9310345 L7.39655172,30.9310345 Z M4.70689655,30.9310345 C4.70689655,30.5612069 5.00948276,30.2586207 5.37931034,30.2586207 C5.74913793,30.2586207 6.05172414,30.5612069 6.05172414,30.9310345 C6.05172414,31.3008621 5.74913793,31.6034483 5.37931034,31.6034483 C5.00948276,31.6034483 4.70689655,31.3008621 4.70689655,30.9310345 L4.70689655,30.9310345 Z M3.36206897,29.5862069 C3.36206897,29.2163793 3.66465517,28.9137931 4.03448276,28.9137931 C4.40431034,28.9137931 4.70689655,29.2163793 4.70689655,29.5862069 C4.70689655,29.9560345 4.40431034,30.2586207 4.03448276,30.2586207 C3.66465517,30.2586207 3.36206897,29.9560345 3.36206897,29.5862069 L3.36206897,29.5862069 Z M34.2931034,28.2413793 C34.2931034,27.8715517 34.5956897,27.5689655 34.9655172,27.5689655 C35.3353448,27.5689655 35.637931,27.8715517 35.637931,28.2413793 C35.637931,28.6112069 35.3353448,28.9137931 34.9655172,28.9137931 C34.5956897,28.9137931 34.2931034,28.6112069 34.2931034,28.2413793 L34.2931034,28.2413793 Z M3.36206897,26.8965517 C3.36206897,26.5267241 3.66465517,26.2241379 4.03448276,26.2241379 C4.40431034,26.2241379 4.70689655,26.5267241 4.70689655,26.8965517 C4.70689655,27.2663793 4.40431034,27.5689655 4.03448276,27.5689655 C3.66465517,27.5689655 3.36206897,27.2663793 3.36206897,26.8965517 L3.36206897,26.8965517 Z M34.2931034,25.5517241 C34.2931034,25.1818966 34.5956897,24.8793103 34.9655172,24.8793103 C35.3353448,24.8793103 35.637931,25.1818966 35.637931,25.5517241 C35.637931,25.9215517 35.3353448,26.2241379 34.9655172,26.2241379 C34.5956897,26.2241379 34.2931034,25.9215517 34.2931034,25.5517241 L34.2931034,25.5517241 Z M3.36206897,24.2068966 C3.36206897,23.837069 3.66465517,23.5344828 4.03448276,23.5344828 C4.40431034,23.5344828 4.70689655,23.837069 4.70689655,24.2068966 C4.70689655,24.5767241 4.40431034,24.8793103 4.03448276,24.8793103 C3.66465517,24.8793103 3.36206897,24.5767241 3.36206897,24.2068966 L3.36206897,24.2068966 Z M34.2931034,22.862069 C34.2931034,22.4922414 34.5956897,22.1896552 34.9655172,22.1896552 C35.3353448,22.1896552 35.637931,22.4922414 35.637931,22.862069 C35.637931,23.2318966 35.3353448,23.5344828 34.9655172,23.5344828 C34.5956897,23.5344828 34.2931034,23.2318966 34.2931034,22.862069 L34.2931034,22.862069 Z M3.36206897,21.5172414 C3.36206897,21.1474138 3.66465517,20.8448276 4.03448276,20.8448276 C4.40431034,20.8448276 4.70689655,21.1474138 4.70689655,21.5172414 C4.70689655,21.887069 4.40431034,22.1896552 4.03448276,22.1896552 C3.66465517,22.1896552 3.36206897,21.887069 3.36206897,21.5172414 L3.36206897,21.5172414 Z M34.2931034,20.1724138 C34.2931034,19.8025862 34.5956897,19.5 34.9655172,19.5 C35.3353448,19.5 35.637931,19.8025862 35.637931,20.1724138 C35.637931,20.5422414 35.3353448,20.8448276 34.9655172,20.8448276 C34.5956897,20.8448276 34.2931034,20.5422414 34.2931034,20.1724138 L34.2931034,20.1724138 Z M3.36206897,18.8275862 C3.36206897,18.4577586 3.66465517,18.1551724 4.03448276,18.1551724 C4.40431034,18.1551724 4.70689655,18.4577586 4.70689655,18.8275862 C4.70689655,19.1974138 4.40431034,19.5 4.03448276,19.5 C3.66465517,19.5 3.36206897,19.1974138 3.36206897,18.8275862 L3.36206897,18.8275862 Z M34.2931034,17.4827586 C34.2931034,17.112931 34.5956897,16.8103448 34.9655172,16.8103448 C35.3353448,16.8103448 35.637931,17.112931 35.637931,17.4827586 C35.637931,17.8525862 35.3353448,18.1551724 34.9655172,18.1551724 C34.5956897,18.1551724 34.2931034,17.8525862 34.2931034,17.4827586 L34.2931034,17.4827586 Z M3.36206897,16.137931 C3.36206897,15.7681034 3.66465517,15.4655172 4.03448276,15.4655172 C4.40431034,15.4655172 4.70689655,15.7681034 4.70689655,16.137931 C4.70689655,16.5077586 4.40431034,16.8103448 4.03448276,16.8103448 C3.66465517,16.8103448 3.36206897,16.5077586 3.36206897,16.137931 L3.36206897,16.137931 Z M34.2931034,14.7931034 C34.2931034,14.4232759 34.5956897,14.1206897 34.9655172,14.1206897 C35.3353448,14.1206897 35.637931,14.4232759 35.637931,14.7931034 C35.637931,15.162931 35.3353448,15.4655172 34.9655172,15.4655172 C34.5956897,15.4655172 34.2931034,15.162931 34.2931034,14.7931034 L34.2931034,14.7931034 Z M3.36206897,13.4482759 C3.36206897,13.0784483 3.66465517,12.7758621 4.03448276,12.7758621 C4.40431034,12.7758621 4.70689655,13.0784483 4.70689655,13.4482759 C4.70689655,13.8181034 4.40431034,14.1206897 4.03448276,14.1206897 C3.66465517,14.1206897 3.36206897,13.8181034 3.36206897,13.4482759 L3.36206897,13.4482759 Z M34.2931034,12.1034483 C34.2931034,11.7336207 34.5956897,11.4310345 34.9655172,11.4310345 C35.3353448,11.4310345 35.637931,11.7336207 35.637931,12.1034483 C35.637931,12.4732759 35.3353448,12.7758621 34.9655172,12.7758621 C34.5956897,12.7758621 34.2931034,12.4732759 34.2931034,12.1034483 L34.2931034,12.1034483 Z M3.36206897,10.7586207 C3.36206897,10.3887931 3.66465517,10.0862069 4.03448276,10.0862069 C4.40431034,10.0862069 4.70689655,10.3887931 4.70689655,10.7586207 C4.70689655,11.1284483 4.40431034,11.4310345 4.03448276,11.4310345 C3.66465517,11.4310345 3.36206897,11.1284483 3.36206897,10.7586207 L3.36206897,10.7586207 Z M34.2931034,9.4137931 C34.2931034,9.04396552 34.5956897,8.74137931 34.9655172,8.74137931 C35.3353448,8.74137931 35.637931,9.04396552 35.637931,9.4137931 C35.637931,9.78362069 35.3353448,10.0862069 34.9655172,10.0862069 C34.5956897,10.0862069 34.2931034,9.78362069 34.2931034,9.4137931 L34.2931034,9.4137931 Z M32.9482759,8.06896552 C32.9482759,7.69913793 33.2508621,7.39655172 33.6206897,7.39655172 C33.9905172,7.39655172 34.2931034,7.69913793 34.2931034,8.06896552 C34.2931034,8.4387931 33.9905172,8.74137931 33.6206897,8.74137931 C33.2508621,8.74137931 32.9482759,8.4387931 32.9482759,8.06896552 L32.9482759,8.06896552 Z M30.2586207,8.06896552 C30.2586207,7.69913793 30.5612069,7.39655172 30.9310345,7.39655172 C31.3008621,7.39655172 31.6034483,7.69913793 31.6034483,8.06896552 C31.6034483,8.4387931 31.3008621,8.74137931 30.9310345,8.74137931 C30.5612069,8.74137931 30.2586207,8.4387931 30.2586207,8.06896552 L30.2586207,8.06896552 Z M6.05172414,8.06896552 C6.05172414,7.69913793 6.35431034,7.39655172 6.72413793,7.39655172 C7.09396552,7.39655172 7.39655172,7.69913793 7.39655172,8.06896552 C7.39655172,8.4387931 7.09396552,8.74137931 6.72413793,8.74137931 C6.35431034,8.74137931 6.05172414,8.4387931 6.05172414,8.06896552 L6.05172414,8.06896552 Z M3.36206897,8.06896552 C3.36206897,7.69913793 3.66465517,7.39655172 4.03448276,7.39655172 C4.40431034,7.39655172 4.70689655,7.69913793 4.70689655,8.06896552 C4.70689655,8.4387931 4.40431034,8.74137931 4.03448276,8.74137931 C3.66465517,8.74137931 3.36206897,8.4387931 3.36206897,8.06896552 L3.36206897,8.06896552 Z M7.39655172,6.72413793 C7.39655172,6.35431034 7.69913793,6.05172414 8.06896552,6.05172414 C8.4387931,6.05172414 8.74137931,6.35431034 8.74137931,6.72413793 C8.74137931,7.09396552 8.4387931,7.39655172 8.06896552,7.39655172 C7.69913793,7.39655172 7.39655172,7.09396552 7.39655172,6.72413793 L7.39655172,6.72413793 Z M30.2586207,5.37931034 C30.2586207,5.00948276 30.5612069,4.70689655 30.9310345,4.70689655 C31.3008621,4.70689655 31.6034483,5.00948276 31.6034483,5.37931034 C31.6034483,5.74913793 31.3008621,6.05172414 30.9310345,6.05172414 C30.5612069,6.05172414 30.2586207,5.74913793 30.2586207,5.37931034 L30.2586207,5.37931034 Z M28.9137931,4.03448276 C28.9137931,3.66465517 29.2163793,3.36206897 29.5862069,3.36206897 C29.9560345,3.36206897 30.2586207,3.66465517 30.2586207,4.03448276 C30.2586207,4.40431034 29.9560345,4.70689655 29.5862069,4.70689655 C29.2163793,4.70689655 28.9137931,4.40431034 28.9137931,4.03448276 L28.9137931,4.03448276 Z M26.2241379,4.03448276 C26.2241379,3.66465517 26.5267241,3.36206897 26.8965517,3.36206897 C27.2663793,3.36206897 27.5689655,3.66465517 27.5689655,4.03448276 C27.5689655,4.40431034 27.2663793,4.70689655 26.8965517,4.70689655 C26.5267241,4.70689655 26.2241379,4.40431034 26.2241379,4.03448276 L26.2241379,4.03448276 Z M23.5344828,4.03448276 C23.5344828,3.66465517 23.837069,3.36206897 24.2068966,3.36206897 C24.5767241,3.36206897 24.8793103,3.66465517 24.8793103,4.03448276 C24.8793103,4.40431034 24.5767241,4.70689655 24.2068966,4.70689655 C23.837069,4.70689655 23.5344828,4.40431034 23.5344828,4.03448276 L23.5344828,4.03448276 Z M20.8448276,4.03448276 C20.8448276,3.66465517 21.1474138,3.36206897 21.5172414,3.36206897 C21.887069,3.36206897 22.1896552,3.66465517 22.1896552,4.03448276 C22.1896552,4.40431034 21.887069,4.70689655 21.5172414,4.70689655 C21.1474138,4.70689655 20.8448276,4.40431034 20.8448276,4.03448276 L20.8448276,4.03448276 Z M18.1551724,4.03448276 C18.1551724,3.66465517 18.4577586,3.36206897 18.8275862,3.36206897 C19.1974138,3.36206897 19.5,3.66465517 19.5,4.03448276 C19.5,4.40431034 19.1974138,4.70689655 18.8275862,4.70689655 C18.4577586,4.70689655 18.1551724,4.40431034 18.1551724,4.03448276 L18.1551724,4.03448276 Z M15.4655172,4.03448276 C15.4655172,3.66465517 15.7681034,3.36206897 16.137931,3.36206897 C16.5077586,3.36206897 16.8103448,3.66465517 16.8103448,4.03448276 C16.8103448,4.40431034 16.5077586,4.70689655 16.137931,4.70689655 C15.7681034,4.70689655 15.4655172,4.40431034 15.4655172,4.03448276 L15.4655172,4.03448276 Z M12.7758621,4.03448276 C12.7758621,3.66465517 13.0784483,3.36206897 13.4482759,3.36206897 C13.8181034,3.36206897 14.1206897,3.66465517 14.1206897,4.03448276 C14.1206897,4.40431034 13.8181034,4.70689655 13.4482759,4.70689655 C13.0784483,4.70689655 12.7758621,4.40431034 12.7758621,4.03448276 L12.7758621,4.03448276 Z M10.0862069,4.03448276 C10.0862069,3.66465517 10.3887931,3.36206897 10.7586207,3.36206897 C11.1284483,3.36206897 11.4310345,3.66465517 11.4310345,4.03448276 C11.4310345,4.40431034 11.1284483,4.70689655 10.7586207,4.70689655 C10.3887931,4.70689655 10.0862069,4.40431034 10.0862069,4.03448276 L10.0862069,4.03448276 Z M7.39655172,4.03448276 C7.39655172,3.66465517 7.69913793,3.36206897 8.06896552,3.36206897 C8.4387931,3.36206897 8.74137931,3.66465517 8.74137931,4.03448276 C8.74137931,4.40431034 8.4387931,4.70689655 8.06896552,4.70689655 C7.69913793,4.70689655 7.39655172,4.40431034 7.39655172,4.03448276 L7.39655172,4.03448276 Z" id="Fill-472" fill="#6D65CB"></path>
                            <path d="M30.9310345,8.06896552 L39,0" id="Path" stroke="#6D65CB" stroke-linecap="round"></path>
                            <path d="M30.9310345,4.03448276 L34.9655172,0" id="Path" stroke="#6D65CB" stroke-linecap="round"></path>
                            <path d="M34.9655172,8.06896552 L39,4.03448276" id="Path" stroke="#6D65CB" stroke-linecap="round"></path>
                        </g>
                        <g id="Pencil" transform="translate(8.914286, 7.800000)">
                            <path d="M19.1198964,0.937246489 C18.3230499,0.140739952 17.0319138,0.140739952 16.2350673,0.937246489 L1.44717385,15.72514 L0.00509927361,20.0520436 L4.33200291,18.609969 L19.1198964,3.82207554 C19.9164029,3.02522906 19.9164029,1.73409298 19.1198964,0.937246489 L19.1198964,0.937246489 Z" id="Fill-332"></path>
                            <path d="M19.1198964,0.937246489 C18.3230499,0.140739952 17.0319138,0.140739952 16.2350673,0.937246489 L1.44717385,15.72514 L0.00509927361,20.0520436 L4.33200291,18.609969 L19.1198964,3.82207554 C19.9164029,3.02522906 19.9164029,1.73409298 19.1198964,0.937246489 L19.1198964,0.937246489 Z" id="Stroke-333" stroke="#6D65CB" stroke-linejoin="round"></path>
                            <path d="M17.4371361,5.50449588 L14.552647,2.62000678 L15.51403,1.65862373 L18.3985191,4.54311283 L17.4371361,5.50449588 L17.4371361,5.50449588 Z M1.44717385,15.72514 L4.33200291,18.609969 L1.44717385,15.72514 Z" id="Stroke-334" stroke="#6D65CB" stroke-linejoin="round"></path>
                        </g>
                    </g>
                </g>
            </g>
        </g>
    </g>
</svg>