<?xml version="1.0" encoding="UTF-8"?>
<svg width="201px" height="145px" viewBox="0 0 201 145" version="1.1" xmlns="http://www.w3.org/2000/svg" xmlns:xlink="http://www.w3.org/1999/xlink">
    <!-- Generator: Sketch 42 (36781) - http://www.bohemiancoding.com/sketch -->
    <title>Solano-Gothic</title>
    <desc>Created with Sketch.</desc>
    <defs></defs>
    <g id="Case-Study" stroke="none" stroke-width="1" fill="none" fill-rule="evenodd">
        <g id="casestudy_timeinc_large_v2" transform="translate(-124.000000, -14763.000000)" fill="#333333">
            <g id="Group-47" transform="translate(124.000000, 14741.000000)">
                <g id="Group-35" transform="translate(0.000000, 22.000000)">
                    <path d="M18.76,60 C21.14,60 23.18,59.065 24.795,57.45 C26.325,55.92 27.26,53.88 27.26,51.5 L27.26,39.175 C27.26,33.225 23.095,29.995 18.675,27.105 L11.535,22.6 C10.515,21.92 9.41,20.475 9.41,18.35 L9.41,10.275 C9.41,9.17 10.43,8.15 11.535,8.15 L16.635,8.15 C17.74,8.15 18.76,9.17 18.76,10.275 L18.76,17.5 L27.26,17.5 L27.26,9 C27.26,6.62 26.325,4.58 24.795,3.05 C23.18,1.435 21.14,0.5 18.76,0.5 L9.41,0.5 C6.945,0.5 4.99,1.435 3.46,2.965 C1.845,4.495 0.91,6.535 0.91,9 L0.91,19.71 C0.91,25.575 4.99,28.465 9.325,31.355 L16.635,36.2 C17.57,36.795 18.76,38.325 18.76,40.365 L18.76,50.225 C18.76,51.33 17.74,52.35 16.635,52.35 L11.535,52.35 C10.345,52.35 9.41,51.33 9.41,50.225 L9.41,43 L0.91,43 L0.91,51.5 C0.91,53.965 1.845,56.005 3.46,57.535 C4.99,59.065 6.945,60 9.41,60 L18.76,60 Z M53.865,60 L44.515,60 C42.135,60 40.095,59.065 38.48,57.45 C36.95,55.92 36.015,53.88 36.015,51.5 L36.015,9 C36.015,6.62 36.95,4.58 38.48,3.05 C40.095,1.435 42.135,0.5 44.515,0.5 L53.865,0.5 C56.33,0.5 58.285,1.435 59.815,2.965 C61.43,4.495 62.365,6.535 62.365,9 L62.365,51.5 C62.365,53.965 61.43,55.92 59.9,57.45 C58.37,59.065 56.33,60 53.865,60 Z M53.865,50.225 L53.865,10.275 C53.865,9.17 52.845,8.15 51.74,8.15 L46.64,8.15 C45.535,8.15 44.515,9.17 44.515,10.275 L44.515,50.225 C44.515,51.33 45.535,52.35 46.64,52.35 L51.74,52.35 C52.93,52.35 53.865,51.33 53.865,50.225 Z M94.24,60 L94.24,52.35 L81.49,52.35 L81.49,0.5 L72.99,0.5 L72.99,60 L94.24,60 Z M128.24,60 L119.4,60 L118.04,50.65 L107.925,50.65 L106.65,60 L97.81,60 L108.35,0.5 L117.7,0.5 L128.24,60 Z M116.935,43 L113.96,21.75 L113.28,13.42 L112.77,13.42 L112.09,21.75 L109.03,43 L116.935,43 Z M164.025,60 L164.025,0.5 L155.525,0.5 L155.525,18.69 L157.055,43 L156.46,43 L154.505,34.5 L143.54,0.5 L135.04,0.5 L135.04,60 L143.54,60 L143.54,41.64 L142.095,17.5 L142.605,17.5 L144.645,26 L155.525,60 L164.025,60 Z M192.5,60 L183.15,60 C180.77,60 178.73,59.065 177.115,57.45 C175.585,55.92 174.65,53.88 174.65,51.5 L174.65,9 C174.65,6.62 175.585,4.58 177.115,3.05 C178.73,1.435 180.77,0.5 183.15,0.5 L192.5,0.5 C194.965,0.5 196.92,1.435 198.45,2.965 C200.065,4.495 201,6.535 201,9 L201,51.5 C201,53.965 200.065,55.92 198.535,57.45 C197.005,59.065 194.965,60 192.5,60 Z M192.5,50.225 L192.5,10.275 C192.5,9.17 191.48,8.15 190.375,8.15 L185.275,8.15 C184.17,8.15 183.15,9.17 183.15,10.275 L183.15,50.225 C183.15,51.33 184.17,52.35 185.275,52.35 L190.375,52.35 C191.565,52.35 192.5,51.33 192.5,50.225 Z M19.695,145 C21.905,145 23.945,144.15 25.475,142.79 C27.175,141.26 28.195,138.965 28.195,136.5 L28.195,111 L14.595,111 L14.595,118.65 L19.695,118.65 L19.695,135.225 C19.695,136.33 18.675,137.35 17.57,137.35 L12.47,137.35 C11.365,137.35 10.345,136.33 10.345,135.225 L10.345,95.275 C10.345,94.17 11.365,93.15 12.47,93.15 L17.57,93.15 C18.675,93.15 19.695,94.17 19.695,95.275 L19.695,102.5 L28.195,102.5 L28.195,94 C28.195,91.79 27.345,89.75 25.9,88.22 C24.37,86.52 22.16,85.5 19.695,85.5 L10.345,85.5 C7.965,85.5 5.84,86.52 4.31,88.05 C2.78,89.58 1.845,91.705 1.845,94 L1.845,136.5 C1.845,138.88 2.865,141.09 4.48,142.62 C6.01,144.065 8.05,145 10.345,145 L19.695,145 Z M55.565,145 L46.215,145 C43.835,145 41.795,144.065 40.18,142.45 C38.65,140.92 37.715,138.88 37.715,136.5 L37.715,94 C37.715,91.62 38.65,89.58 40.18,88.05 C41.795,86.435 43.835,85.5 46.215,85.5 L55.565,85.5 C58.03,85.5 59.985,86.435 61.515,87.965 C63.13,89.495 64.065,91.535 64.065,94 L64.065,136.5 C64.065,138.965 63.13,140.92 61.6,142.45 C60.07,144.065 58.03,145 55.565,145 Z M55.565,135.225 L55.565,95.275 C55.565,94.17 54.545,93.15 53.44,93.15 L48.34,93.15 C47.235,93.15 46.215,94.17 46.215,95.275 L46.215,135.225 C46.215,136.33 47.235,137.35 48.34,137.35 L53.44,137.35 C54.63,137.35 55.565,136.33 55.565,135.225 Z M86.76,145 L86.76,93.15 L95.26,93.15 L95.26,85.5 L69.76,85.5 L69.76,93.15 L78.26,93.15 L78.26,145 L86.76,145 Z M128.24,145 L128.24,85.5 L119.74,85.5 L119.74,110.575 L110.39,110.575 L110.39,85.5 L101.89,85.5 L101.89,145 L110.39,145 L110.39,118.225 L119.74,118.225 L119.74,145 L128.24,145 Z M148.3,145 L148.3,85.5 L139.8,85.5 L139.8,145 L148.3,145 Z M176.775,145 C179.07,145 181.11,144.065 182.64,142.62 C184.255,141.09 185.275,138.88 185.275,136.5 L185.275,128 L176.775,128 L176.775,135.225 C176.775,136.33 175.755,137.35 174.65,137.35 L169.55,137.35 C168.445,137.35 167.425,136.33 167.425,135.225 L167.425,95.275 C167.425,94.17 168.445,93.15 169.55,93.15 L174.65,93.15 C175.755,93.15 176.775,94.17 176.775,95.275 L176.775,102.5 L185.275,102.5 L185.275,94 C185.275,91.705 184.34,89.665 182.895,88.135 C181.365,86.52 179.155,85.5 176.775,85.5 L167.425,85.5 C165.045,85.5 162.835,86.52 161.305,88.135 C159.86,89.665 158.925,91.705 158.925,94 L158.925,136.5 C158.925,138.965 160.03,141.175 161.645,142.705 C163.175,144.15 165.215,145 167.425,145 L176.775,145 Z" id="Solano-Gothic"></path>
                </g>
            </g>
        </g>
    </g>
</svg>