<?xml version="1.0" encoding="UTF-8"?>
<svg width="338px" height="33px" viewBox="0 0 338 33" version="1.1" xmlns="http://www.w3.org/2000/svg" xmlns:xlink="http://www.w3.org/1999/xlink">
    <!-- Generator: Sketch 42 (36781) - http://www.bohemiancoding.com/sketch -->
    <title>timeinc-logos</title>
    <desc>Created with Sketch.</desc>
    <defs></defs>
    <g id="Case-Study" stroke="none" stroke-width="1" fill="none" fill-rule="evenodd">
        <g id="casestudy_timeinc_large_v2" transform="translate(-102.000000, -964.000000)" fill="#000000">
            <g id="Group-4" transform="translate(102.000000, 964.000000)">
                <g id="timeinc-logos">
                    <path d="M8.71715435,2.73280897 L6.33203909,2.72099363 L2.63688434,2.71921323 C2.38060271,2.71888953 0.398815919,2.7362079 0.398815919,2.7362079 L0.361315086,5.71610198 L0,5.72678434 L0.0230295576,2.37608274 L0.0113591737,1 C1.270827,1.05713446 5.82180991,1.0971124 10.5439584,1.10002577 C16.0503568,1.10293915 19.5981535,1.0545448 20.9903525,1.01650911 L20.9729247,2.54133568 L21,5.93007297 L20.6253029,5.92570291 C20.6277926,5.64909442 20.5650837,4.52437094 20.568507,4.41463393 C20.5699075,4.37368486 20.4903932,2.86407257 20.4796565,2.75061291 L18.8983973,2.72876262 L14.1609994,2.72552554 L12.3455545,2.73086672 L12.3369962,23.6343114 C12.3369962,23.6639307 12.3695177,25.0061859 12.3769867,25.2840892 C12.5588891,25.3080436 14.3145817,25.4219888 14.6321717,25.4231218 L14.7560334,25.4219888 L14.7560334,25.9907438 C14.6609587,25.9907438 14.5439436,26.0006169 14.44529,25.9999695 C13.4487948,25.988316 11.8384374,25.876313 10.694273,25.8759893 C9.56815875,25.8748564 7.9797417,25.9777955 6.80616789,25.9931716 C6.77442445,25.9943046 6.53308091,25.988316 6.44345236,25.983946 L6.44096268,25.3769934 C6.45325548,25.3784501 6.52467823,25.3761842 6.63578029,25.3724615 C7.1318494,25.3544957 8.35334959,25.2792336 8.67093963,25.25447 L8.72120009,25.2475102 L8.72057767,23.4577287 L8.71715435,2.73280897 Z M38.7422199,1 C38.7422199,1 40.5016052,6.13300003 40.7876979,6.88423378 C41.0740987,7.63546753 46.4517787,20.6234788 46.4517787,20.6234788 C46.4517787,20.6234788 48.9828594,15.0307276 51.2375533,9.02860889 C51.6951167,7.81374829 52.2941089,6.22924579 52.7348796,4.94623802 C53.381939,3.06831512 54.0923178,1.00872025 54.0923178,1.00872025 L55.4782574,1.00952769 C55.4782574,1.00952769 55.8205827,3.30295455 55.941213,4.32451619 C56.2941685,7.29634654 58.6034003,19.3742216 59.4146895,23.3477508 C59.6163564,24.3410524 59.7704182,25.2011278 59.7704182,25.2011278 C60.0081355,25.2169535 60.9446769,25.3049634 61.5009939,25.3488877 C61.6162321,25.3580924 61.9274369,25.373918 61.9993838,25.374564 L62,25.9725473 C62,25.9725473 61.7494956,25.9848203 61.6106859,25.9848203 C60.368794,25.9769075 58.4334702,25.871457 57.2394915,25.8703266 C56.1783141,25.8700036 55.1559602,25.9539764 54.0941665,25.9746467 C53.9139143,25.9785223 53.7318133,25.970448 53.5467851,25.970448 L53.5467851,25.3784397 C53.5534097,25.3769863 53.6949925,25.3697194 53.7690962,25.3719802 C54.2884384,25.3493721 55.6631315,25.2240589 55.7997843,25.2175994 C55.8004006,25.0013694 55.7259887,24.2485208 55.6147561,23.479685 C55.5372631,22.9367685 55.4058484,22.0099992 55.2664225,21.0963104 C54.9663102,19.3201238 53.56897,11.9579684 53.1542357,9.91516807 C53.0864485,9.57943829 53.0445437,9.39179133 53.0445437,9.39179133 C53.0445437,9.39179133 48.7018507,19.8149174 47.827088,21.8685373 C47.7414297,22.070718 47.6804212,22.2123414 47.6602391,22.2593339 C46.8227594,24.2370553 46.1205459,26 46.1205459,26 L44.8877436,25.993702 L38.13876,9.71040359 L37.9788438,9.33171847 C37.9788438,9.33171847 37.388017,12.383 36.5346689,16.6885448 C36.083576,19.0147534 35.1474967,24.8314859 35.0844855,25.2163075 C35.6226232,25.2902682 36.6805654,25.3724647 36.9692771,25.3634214 C37.0356777,25.3634214 37.1481428,25.3661667 37.2319524,25.3661667 L37.2311821,25.9549454 C37.1103977,25.970771 36.8286187,25.9717399 36.8172181,25.9715784 C35.7971752,25.9512312 35.0623006,25.877432 33.9619915,25.877432 C33.6725094,25.877432 32.1429842,25.9504237 31.6029977,25.9680257 C31.3782216,25.9778764 31.0605463,25.9533305 31,25.9557528 L31.0007703,25.3732721 C31.0534594,25.3732721 31.1605324,25.3517944 31.2281655,25.3493721 C31.7162331,25.3304783 32.4665139,25.2595858 33.1030971,25.1827184 C33.1548619,24.8960804 33.7059408,22.0282472 33.8818794,21.013145 C34.5589808,17.650841 36.5560835,6.41915355 36.8065879,4.90505904 C37.0258178,3.26888097 37.2814062,1.23480092 37.3040533,1.01033512 C37.8315608,1.01937834 38.7422199,1 38.7422199,1 Z M29.6601898,25.9999555 C28.7647236,25.9997938 27.2449164,25.8558454 26.1051363,25.8551984 C24.9784606,25.8543897 23.449164,25.9957503 22.3489983,25.9954268 C22.2551589,25.9962355 22.0900738,25.9761798 22,25.9761798 L22.0003013,25.3834035 C22.2172014,25.378713 23.1890345,25.2939614 23.4603103,25.2750378 C23.7773761,25.2527178 24.0707938,25.2373525 24.2010845,25.1969175 C24.2010845,25.1969175 24.2039464,24.4823512 24.2081639,23.3737868 C24.222172,19.5407158 24.2513933,8.70722383 24.2169001,3.80521468 C24.213737,3.28813262 24.2107245,1.97771695 24.2107245,1.78783445 C24.0046694,1.76713176 23.7166742,1.7404447 23.5101672,1.71424285 C23.2518452,1.70114193 22.1881307,1.60328937 22.00723,1.59309976 L22.001205,1 C23.0558819,1.00048522 24.6214791,1.10383694 25.8921524,1.10464564 C27.1069438,1.10529259 28.753728,1.00436697 30,1.00485219 L29.9974394,1.62302162 C29.7993674,1.63547558 29.3187227,1.66426526 29.3026058,1.66588266 C28.9388462,1.69920105 27.9222775,1.8091841 27.672541,1.82551982 C27.6720892,2.19525695 27.671336,2.88459188 27.6704323,3.732917 C27.6674198,8.12253454 27.6574785,19.6058969 27.6538635,23.4726098 C27.653261,23.9783701 27.6528092,24.4449893 27.6522067,24.7256078 C27.6522067,25.0212681 27.6540142,25.1985349 27.6570267,25.2101802 C27.6638048,25.2320151 28.3009489,25.2892709 28.4482603,25.2991371 C28.7285736,25.3293824 29.8865793,25.380007 29.9221268,25.3877705 L29.9993975,25.3877705 L29.9981925,25.9807085 C29.9221268,25.9802233 29.7377617,26.0010877 29.6601898,25.9999555 Z M69.0956902,2.79795018 L69.0846051,12.6103085 L75.9966328,12.6354953 C76.0283045,12.6354953 77.8258308,12.5857675 77.8690626,12.5862519 C77.9784883,12.5870592 79.212417,12.5221547 79.2599245,12.5073009 C79.2599245,12.5073009 79.280036,12.4041319 79.3069569,12.3300246 C79.408148,11.7361973 79.5346763,11.1727233 79.5677732,10.7321158 C79.5677732,10.7321158 79.5994449,10.5436991 79.6024537,10.4159891 L79.9950242,10.4085622 C79.9954993,10.4542537 80.0154524,10.5675943 80.0133938,10.727595 C80.0078512,11.3186776 79.9603437,12.5476644 79.9617689,13.3515432 C79.9631942,14.5112663 79.9973996,15.5578102 80.0043674,16.0822123 C80.0099099,16.2310728 79.9989832,16.4701859 79.9989832,16.4701859 L79.5677732,16.4701859 C79.5609638,16.4152916 79.5533626,16.3570068 79.5438611,16.2969459 C79.4681658,15.6280426 79.4059309,15.1562744 79.2925463,14.4747777 C79.2890624,14.4402266 79.265467,14.3173602 79.2572324,14.2388936 C79.0369559,14.2254929 78.4557805,14.2070872 78.1452397,14.1980458 C78.0103183,14.1941709 76.3257016,14.1822233 74.4307849,14.1789942 C73.6532451,14.1772182 72.2584243,14.2101548 71.6666389,14.2090246 C70.9733458,14.207733 69.8288896,14.2466434 69.082388,14.2716687 L69.0838133,23.1697138 L69.1132679,24.3160362 L73.3091323,24.3851385 L79.2847868,24.3825552 C79.3117077,24.3825552 80.65237,24.3346034 81.0718614,24.3425147 C81.1592752,24.3442907 81.3388537,24.3297598 81.3388537,24.3297598 C81.37876,24.0426949 81.4280094,23.4603308 81.4767838,22.9042837 C81.4823264,22.8397021 81.6315,21.3632066 81.6315,20.9666759 L82,20.9626396 C82,21.3383427 81.9189205,26 81.9189205,26 C81.2454222,25.9990313 79.1782116,25.9961251 76.6240488,25.9606053 C75.0773622,25.9389704 73.3526808,25.9381632 71.6495362,25.9147524 C70.269601,25.8953779 68.9055017,25.8496865 67.6623882,25.8508166 C65.8922579,25.8517854 64.158075,25.9572147 63.4853685,25.9575376 C63.3311274,25.9575376 63.0590677,25.9467202 63,25.9470431 L63.0006334,25.3606427 L63.1238363,25.3606427 C63.5396855,25.3590282 64.7606288,25.2933165 65.3975463,25.1859496 C65.3975463,25.0687341 65.4404614,23.6172639 65.4404614,23.587395 C65.4404614,23.587395 65.4479043,5.16276487 65.4488544,4.33692837 C65.4494878,3.44570307 65.4322268,1.96258791 65.4327018,1.83148738 C65.0725948,1.79209264 64.9436911,1.77078073 64.8681541,1.75705715 C64.4860353,1.70732936 63.7319326,1.64726852 63.328277,1.62062864 C63.2133088,1.6232119 63.0878889,1.60981123 63.0267626,1.59915527 C63.0267626,1.59915527 63.0261291,1.0230879 63.0226453,1.0146923 C63.113543,1.02034319 63.3023062,1.00791124 63.6411932,1.00936432 C64.3531726,1.01227049 65.6627966,1.10930426 67.2658588,1.11188752 C68.2720681,1.11366352 69.8973004,1.06958661 71.0601262,1.05618594 C72.7181387,1.05699321 73.9767713,1.04423836 75.5844259,1.03503549 C78.2062076,1.02082755 80.446029,1.00516652 81.3217509,1.00145308 C81.5771831,1.00096872 81.7170135,1 81.7170135,1 C81.7170135,1.04488417 81.7149549,1.0983254 81.7149549,1.15790187 C81.7154299,1.34260509 81.707512,1.66745026 81.7102041,2.06624129 C81.7170135,3.30733711 81.749477,5.25834555 81.749477,5.89544248 L81.3816104,5.89657266 L81.3774931,5.72187958 C81.3410707,5.28659998 81.2603079,4.05809756 81.1607004,3.02350122 C81.1510406,2.93147252 81.1339379,2.85881829 81.1339379,2.85881829 C80.9147698,2.85187577 80.0183029,2.82523588 80.0023087,2.81199667 C79.9877397,2.79988763 79.2732266,2.79036185 79.2581825,2.78358079 C79.2520066,2.78019026 76.9049766,2.7653365 74.4881106,2.76243033 C72.8365908,2.76016998 71.2145256,2.76872703 70.2179762,2.76856558 C69.9741042,2.76727395 69.0956902,2.79795018 69.0956902,2.79795018 Z" id="Combined-Shape"></path>
                    <path d="M116.26257,5.93203883 L116.26257,20.0679612 C116.26257,23.3495146 118.867039,26 122.215642,26 C125.440223,26 128.044693,23.3495146 128.044693,20.0679612 L128.044693,5.93203883 C128.044693,2.65048544 125.440223,0 122.215642,0 L122.215642,0 C118.867039,0 116.26257,2.65048544 116.26257,5.93203883 M120.47933,20.0679612 L120.47933,5.93203883 C120.47933,4.9223301 121.223464,4.29126214 122.215642,4.29126214 C123.083799,4.29126214 123.827933,4.9223301 123.827933,5.93203883 L123.827933,20.0679612 C123.827933,20.9514563 123.083799,21.7087379 122.215642,21.7087379 C121.223464,21.7087379 120.47933,20.9514563 120.47933,20.0679612 Z M162.026816,0.252427184 L162.026816,4.54368932 L158.182123,4.54368932 L158.182123,25.6213592 L153.965363,25.6213592 L153.965363,4.54368932 L150.12067,4.54368932 L150.12067,0.252427184 L162.026816,0.252427184 Z M174.42905,0.252427184 L178.769832,0.252427184 L178.769832,20.0679612 C178.769832,23.3495146 176.041341,26 172.81676,26 C169.592179,26 166.863687,23.3495146 166.863687,20.0679612 L166.863687,0.252427184 L171.204469,0.252427184 L171.204469,20.0679612 C171.204469,20.9514563 171.948603,21.7087379 172.81676,21.7087379 C173.684916,21.7087379 174.42905,20.9514563 174.42905,20.0679612 L174.42905,0.252427184 Z M213,4.54368932 L206.798883,4.54368932 L206.798883,10.4757282 L210.767598,10.4757282 L210.767598,14.7669903 L206.798883,14.7669903 L206.798883,21.3300971 L213,21.3300971 L213,25.6213592 L202.582123,25.6213592 L202.582123,0.252427184 L213,0.252427184 L213,4.54368932 Z M146.151955,25.6213592 L141.687151,25.6213592 L138.586592,13.631068 C138.586592,13.631068 141.315084,13.1262136 141.315084,10.223301 L141.315084,6.31067961 C141.315084,5.30097087 140.57095,4.54368932 139.578771,4.54368932 L137.96648,4.54368932 L137.96648,25.6213592 L133.749721,25.6213592 L133.749721,0.252427184 L139.578771,0.252427184 C142.803352,0.252427184 145.407821,2.77669903 145.531844,6.05825243 L145.531844,10.0970874 C145.531844,12.6213592 144.663687,14.3883495 143.175419,15.6504854 L146.151955,25.6213592 Z M193.156425,0.252427184 L197.497207,0.252427184 L197.497207,25.6213592 L192.784358,25.6213592 L188.815642,13.2524272 L188.815642,25.6213592 L184.47486,25.6213592 L184.47486,0.252427184 L188.815642,0.252427184 L193.156425,14.1359223 L193.156425,0.252427184 Z M106.464804,0.631067961 L112.913966,0.631067961 L112.913966,4.9223301 L106.464804,4.9223301 L106.464804,10.8543689 L110.557542,10.8543689 L110.557542,15.1456311 L106.464804,15.1456311 L106.464804,26 L102,26 L102,0.631067961 L102.372067,0.631067961 L106.464804,0.631067961 Z" id="Combined-Shape"></path>
                    <path d="M338,10.6360026 L338,6.28987426 L329.512419,6.28987426 L329.512419,10.6360026 L331.618034,10.6360026 L328.774369,20.354732 L325.887289,10.6360026 L328.014611,10.6360026 L328.014611,6.28987426 L318.571906,6.28987426 L318.571906,10.6360026 L319.917762,10.6360026 L325.30119,26.2733289 C325.887289,28.0641959 325.279482,28.8067505 324.172407,28.8067505 C323.195575,28.8067505 322.587769,28.2825943 322.479232,26.8630046 L319.049468,26.8630046 L319.049468,32.3666446 C320.786057,32.7816016 322.392402,33 323.629722,33 C327.580463,33 329.534126,31.5367306 331.010228,27.1469226 L336.697558,10.6578425 L338,10.6578425 L338,10.6360026 L338,10.6360026 Z M307.349196,17.4718729 L318.485076,17.4718729 L318.485076,15.2878888 C318.485076,9.95896757 315.836777,5.91859696 310.019203,5.91859696 C304.852849,5.91859696 301.357963,9.45665122 301.357963,16.0741231 L301.357963,16.358041 C301.357963,23.6962277 305.113338,26.5135672 310.909205,26.5135672 C313.123356,26.5135672 316.270925,25.7710126 318.137758,24.8755791 L318.137758,19.6340172 L314.07848,19.6340172 C313.774577,21.446724 312.710916,22.2547981 311.104571,22.2547981 C308.673346,22.2547981 307.327489,21.0536069 307.327489,18.0615486 L307.327489,17.4718729 L307.349196,17.4718729 L307.349196,17.4718729 Z M307.370904,14.0866976 C307.522855,11.4440768 308.608224,10.2647253 310.171154,10.2647253 C311.929451,10.2647253 312.797746,11.4222369 312.884575,14.0866976 L307.370904,14.0866976 Z M293.695262,26.0549305 L300.771864,26.0549305 L300.771864,21.7088021 L299.382592,21.7088021 L299.382592,11.9245533 C299.382592,8.23362012 297.624296,5.89675711 294.172824,5.89675711 C291.936965,5.89675711 289.91818,7.27266711 288.811104,9.45665122 L288.811104,6.28987426 L281.66938,6.28987426 L281.66938,10.6360026 L283.036944,10.6360026 L283.036944,21.7088021 L281.66938,21.7088021 L281.66938,26.0549305 L291.242329,26.0549305 L291.242329,21.7088021 L288.963056,21.7088021 L288.963056,13.9774983 C288.963056,12.1647915 289.787936,11.1164792 291.372574,11.1164792 C293.000626,11.1164792 293.695262,12.1866314 293.695262,13.9774983 L293.695262,26.0549305 L293.695262,26.0549305 Z M281.235233,16.358041 L281.235233,16.0741231 C281.235233,9.41297154 277.63181,5.91859696 272.204968,5.91859696 C266.799833,5.91859696 263.174703,9.41297154 263.174703,16.0741231 L263.174703,16.358041 C263.174703,23.0191926 266.778126,26.5135672 272.204968,26.5135672 C277.63181,26.5135672 281.235233,22.9973527 281.235233,16.358041 L281.235233,16.358041 Z M275.265707,16.5545996 C275.265707,16.8166777 275.265707,17.4281932 275.243999,17.6684315 C275.113755,20.4639312 274.158631,21.9272005 272.204968,21.9272005 C270.251305,21.9272005 269.317888,20.485771 269.165936,17.733951 C269.144229,17.4718729 269.144229,16.9477167 269.144229,16.6637988 L269.144229,15.0039709 C269.231058,12.1211118 270.142768,10.5268034 272.18326,10.5268034 C274.288875,10.5268034 275.178877,12.2303111 275.222292,15.266049 L275.222292,16.0741231 C275.265707,16.0741231 275.265707,16.5327598 275.265707,16.5545996 Z M252.733459,26.0549305 L263.19641,26.0549305 L263.19641,21.7088021 L261.13421,21.7088021 L261.13421,4.34612839 L263.174703,4.34612839 L263.174703,0 L251.713212,0 L248.609059,15.0258107 L245.287831,0 L234,0 L234,4.34612839 L236.018785,4.34612839 L236.018785,21.7088021 L234,21.7088021 L234,26.0549305 L242.791484,26.0549305 L242.791484,21.7088021 L240.685869,21.7088021 L240.685869,5.39444077 L245.396368,26.0549305 L250.150282,26.0549305 L254.795659,5.43812045 L254.795659,21.730642 L252.755166,21.730642 L252.755166,26.0549305 L252.733459,26.0549305 L252.733459,26.0549305 Z" id="Shape"></path>
                </g>
            </g>
        </g>
    </g>
</svg>