<?xml version="1.0" encoding="UTF-8"?>
<svg width="22px" height="19px" viewBox="0 0 22 19" version="1.1" xmlns="http://www.w3.org/2000/svg" xmlns:xlink="http://www.w3.org/1999/xlink">
    <!-- Generator: Sketch 41.2 (35397) - http://www.bohemiancoding.com/sketch -->
    <title>view-list</title>
    <desc>Created with Sketch.</desc>
    <defs></defs>
    <g id="Design-Sprint-Academy" stroke="none" stroke-width="1" fill="none" fill-rule="evenodd">
        <g id="design_sprints_small_v2" transform="translate(-20.000000, -855.000000)" fill="#6D65CB">
            <g id="Group-9" transform="translate(20.000000, 855.000000)">
                <path d="M1.71886776,15.5454103 C0.769524633,15.5454103 3.55271368e-13,16.3188077 3.55271368e-13,17.2727051 C3.55271368e-13,18.2266026 0.769524633,19 1.71886776,19 C2.66821089,19 3.4374892,18.2266026 3.4374892,17.2727051 C3.4374892,16.3188077 2.66821089,15.5454103 1.71886776,15.5454103 M1.71886776,0 C0.769524633,0 3.55271368e-13,0.773397436 3.55271368e-13,1.72729487 C3.55271368e-13,2.68119231 0.769524633,3.45458974 1.71886776,3.45458974 C2.66821089,3.45458974 3.4374892,2.68119231 3.4374892,1.72729487 C3.4374892,0.773397436 2.66821089,0 1.71886776,0 M1.71886776,7.89596154 C0.769524633,7.89596154 3.55271368e-13,8.66935897 3.55271368e-13,9.62325641 C3.55271368e-13,10.5771538 0.769524633,11.3505513 1.71886776,11.3505513 C2.66821089,11.3505513 3.4374892,10.5771538 3.4374892,9.62325641 C3.4374892,8.66935897 2.66821089,7.89596154 1.71886776,7.89596154 M20.6914434,16.0769231 L7.03361279,16.0769231 C6.35325843,16.0769231 5.80197926,16.6223205 5.80197926,17.2948718 C5.80197926,17.9674231 6.35325843,18.5128205 7.03361279,18.5128205 L20.6914434,18.5128205 C21.3717978,18.5128205 21.9230769,17.9674231 21.9230769,17.2948718 C21.9230769,16.6223205 21.3717978,16.0769231 20.6914434,16.0769231 M20.6914434,8.28205128 L7.03361279,8.28205128 C6.35325843,8.28205128 5.80197926,8.82744872 5.80197926,9.5 C5.80197926,10.1725513 6.35325843,10.7179487 7.03361279,10.7179487 L20.6914434,10.7179487 C21.3717978,10.7179487 21.9230769,10.1725513 21.9230769,9.5 C21.9230769,8.82744872 21.3717978,8.28205128 20.6914434,8.28205128 M5.80197926,1.70512821 C5.80197926,1.03257692 6.35325843,0.487179487 7.03361279,0.487179487 L20.6914434,0.487179487 C21.3717978,0.487179487 21.9230769,1.03257692 21.9230769,1.70512821 C21.9230769,2.37767949 21.3717978,2.92307692 20.6914434,2.92307692 L7.03361279,2.92307692 C6.35325843,2.92307692 5.80197926,2.37767949 5.80197926,1.70512821" id="view-list"></path>
            </g>
        </g>
    </g>
</svg>